# Blender v2.78 (sub 0) OBJ File: '232.blend'
# www.blender.org
mtllib chair.mtl
o Cube.004
v -1.366157 0.588935 -0.310165
v -1.351226 0.653802 -0.338007
v -1.436307 0.588935 -0.690807
v -1.408465 0.653802 -0.674705
v -1.126973 0.588935 -0.311322
v -1.141858 0.653802 -0.339164
v -1.056822 0.588935 -0.690807
v -1.056822 0.640335 -0.690807
v -1.366949 0.653802 -0.698592
v -1.374388 0.588206 -0.718336
v -1.118742 0.588206 -0.718336
v -1.126180 0.653802 -0.698592
v -1.390146 0.632948 -0.764950
v -1.374388 0.582164 -0.757017
v -1.118742 0.582164 -0.757017
v -1.102984 0.632948 -0.764950
v -1.362601 1.202806 -0.827007
v -1.130529 1.202806 -0.827007
v -1.362601 1.200625 -0.840970
v -1.130529 1.200625 -0.840970
v -1.168857 0.588935 -0.690807
v -1.295353 0.588935 -0.690807
v -1.309812 0.653802 -0.690807
v -1.183317 0.653802 -0.690807
v -1.286429 0.588935 -0.310165
v -1.206701 0.588935 -0.311322
v -1.206903 0.653802 -0.339164
v -1.286631 0.653802 -0.338007
v -1.203957 0.588206 -0.718336
v -1.289172 0.588206 -0.718336
v -1.289172 0.653802 -0.698592
v -1.203957 0.653802 -0.698592
v -1.203957 0.582164 -0.757017
v -1.289172 0.582164 -0.757017
v -1.294425 0.629893 -0.784504
v -1.198704 0.629893 -0.784504
v -1.300959 1.224441 -0.830386
v -1.192170 1.224441 -0.830386
v -1.300959 1.222260 -0.844349
v -1.192170 1.222260 -0.844349
v -1.198704 1.230509 -0.818674
v -1.102984 1.200600 -0.814002
v -1.198704 1.224467 -0.857354
v -1.102984 1.194557 -0.852682
v -1.390146 1.194557 -0.852682
v -1.390146 1.200600 -0.814002
v -1.294425 1.230509 -0.818674
v -1.294425 1.224467 -0.857354
v -1.190217 1.375989 -0.848030
v -1.128576 1.354353 -0.844650
v -1.190217 1.372019 -0.873444
v -1.128576 1.350383 -0.870064
v -1.364554 1.350383 -0.870064
v -1.364554 1.354353 -0.844650
v -1.302912 1.375989 -0.848030
v -1.302912 1.372019 -0.873444
v -1.192170 1.390292 -0.850264
v -1.130529 1.368657 -0.846884
v -1.192170 1.386322 -0.875679
v -1.130529 1.364687 -0.872299
v -1.362601 1.364687 -0.872299
v -1.362601 1.368657 -0.846884
v -1.300959 1.390292 -0.850264
v -1.300959 1.386322 -0.875679
v -1.409549 1.350383 -0.870064
v -1.409549 1.354353 -0.844650
v -1.409549 1.366742 -0.846585
v -1.409549 1.362772 -0.872000
v -1.083581 1.354353 -0.844650
v -1.083581 1.350383 -0.870064
v -1.083581 1.362772 -0.872000
v -1.083581 1.366742 -0.846585
v -1.220331 1.627721 -0.887354
v -1.191137 1.613490 -0.885131
v -1.220331 1.623751 -0.912769
v -1.191137 1.609519 -0.910545
v -1.308166 1.619864 -0.906461
v -1.301992 1.613490 -0.885131
v -1.272798 1.627721 -0.887354
v -1.272798 1.623751 -0.912769
v -1.329473 1.587311 -0.907076
v -1.329473 1.591281 -0.881662
v -1.163656 1.591281 -0.881662
v -1.163656 1.587311 -0.907076
v -1.192170 1.363873 -0.852168
v -1.130529 1.342237 -0.848788
v -1.192170 1.361691 -0.866131
v -1.130529 1.340056 -0.862751
v -1.362601 1.342237 -0.848788
v -1.300959 1.363873 -0.852168
v -1.362601 1.340056 -0.862751
v -1.300959 1.361691 -0.866131
v -1.420881 1.365556 -0.866734
v -1.339106 1.594860 -0.902555
v -1.154024 1.597041 -0.888592
v -1.072249 1.367738 -0.852771
v -1.072249 1.365556 -0.866734
v -1.154024 1.594860 -0.902555
v -1.420881 1.367738 -0.852771
v -1.420881 1.342237 -0.848788
v -1.420881 1.340056 -0.862751
v -1.072249 1.340056 -0.862751
v -1.072249 1.342237 -0.848788
v -1.217688 1.637998 -0.894990
v -1.184963 1.622045 -0.892498
v -1.217688 1.635817 -0.908953
v -1.184963 1.619864 -0.906461
v -1.308166 1.622045 -0.892498
v -1.275442 1.637998 -0.894990
v -1.301992 1.609519 -0.910545
v -1.275442 1.635817 -0.908953
v -1.339106 1.597041 -0.888592
v -1.436307 0.588935 -0.415771
v -1.408465 0.653802 -0.424176
v -1.056822 0.588935 -0.416350
v -1.084664 0.653802 -0.424793
v -1.183317 0.653802 -0.416350
v -1.309812 0.653802 -0.415771
v -1.295353 0.588935 -0.415771
v -1.168857 0.588935 -0.416350
v -1.436307 0.640335 -0.415771
v -1.436307 0.640335 -0.690807
v -1.056822 0.640335 -0.416350
v -1.126973 0.640335 -0.311322
v -1.286429 0.640335 -0.310165
v -1.366157 0.640335 -0.310165
v -1.198704 0.638990 -0.726270
v -1.102984 0.638990 -0.726270
v -1.084664 0.653802 -0.674705
v -1.390146 0.638990 -0.726270
v -1.206701 0.640335 -0.311322
v -1.294425 0.638990 -0.726270
v -1.425716 0.820151 -0.794194
v -1.425716 1.007354 -0.823438
v -1.067413 1.007354 -0.823438
v -1.067413 0.820151 -0.794194
v -1.425716 0.826193 -0.755514
v -1.425716 1.013397 -0.784758
v -1.067413 0.826193 -0.755514
v -1.067413 1.013397 -0.784758
v -1.306282 0.839072 -0.738447
v -1.306282 1.036245 -0.769249
v -1.186848 0.839072 -0.738447
v -1.186848 1.036245 -0.769249
v -1.186848 0.827066 -0.815306
v -1.186848 1.024239 -0.846107
v -1.306282 0.827066 -0.815306
v -1.306282 1.024239 -0.846107
vt 0.7249 0.2207
vt 0.7249 0.1968
vt 0.8525 0.1968
vt 0.8525 0.2207
vt 0.3449 0.3441
vt 0.3449 0.2787
vt 0.3614 0.3075
vt 0.3614 0.3470
vt 0.4966 0.2207
vt 0.4966 0.1968
vt 0.5552 0.1968
vt 0.5552 0.2207
vt 0.6291 0.2207
vt 0.6291 0.1968
vt 0.6661 0.1968
vt 0.6661 0.2207
vt 0.2176 0.4028
vt 0.2176 0.4548
vt 0.1688 0.4222
vt 0.1688 0.3852
vt 0.3964 0.0513
vt 0.3507 0.0554
vt 0.3769 0.0155
vt 0.4070 0.0149
vt 0.5438 0.3038
vt 0.5438 0.2787
vt 0.5620 0.2787
vt 0.5620 0.3038
vt 0.4553 0.1783
vt 0.5005 0.1707
vt 0.4817 0.1818
vt 0.4457 0.1820
vt 0.8796 0.1968
vt 0.8856 0.2210
vt 0.3693 0.1968
vt 0.3693 0.2207
vt 0.3361 0.2210
vt 0.3422 0.1968
vt 0.0644 0.0002
vt 0.0622 0.0257
vt 0.0169 0.0249
vt 0.0246 0.0009
vt 0.3796 0.3075
vt 0.3796 0.3470
vt 0.1117 0.2104
vt 0.1679 0.2012
vt 0.1509 0.2893
vt 0.1063 0.3034
vt 0.5441 0.9998
vt 0.5441 0.9748
vt 0.5623 0.9748
vt 0.5623 0.9998
vt 0.0002 0.4788
vt 0.0002 0.4722
vt 0.0656 0.4722
vt 0.0656 0.4788
vt 0.5623 0.7965
vt 0.5441 0.7965
vt 0.5441 0.7067
vt 0.5623 0.7067
vt 0.2797 0.1855
vt 0.3358 0.1763
vt 0.3188 0.2643
vt 0.2743 0.2784
vt 0.5438 0.4820
vt 0.5620 0.4820
vt 0.5620 0.5719
vt 0.5438 0.5719
vt 0.1683 0.1762
vt 0.2244 0.1854
vt 0.2298 0.2784
vt 0.1852 0.2643
vt 0.0103 0.5073
vt 0.0758 0.5073
vt 0.5441 0.6612
vt 0.5441 0.6174
vt 0.5620 0.6174
vt 0.5620 0.6612
vt 0.0002 0.2012
vt 0.0564 0.2103
vt 0.0618 0.3034
vt 0.0172 0.2893
vt 0.3614 0.4260
vt 0.3614 0.3865
vt 0.3796 0.3865
vt 0.3796 0.4260
vt 0.1437 0.0013
vt 0.1514 0.0252
vt 0.1062 0.0258
vt 0.1041 0.0004
vt 0.3510 0.1707
vt 0.3963 0.1783
vt 0.4058 0.1820
vt 0.3699 0.1818
vt 0.5011 0.0558
vt 0.4553 0.0516
vt 0.4446 0.0153
vt 0.4749 0.0160
vt 0.2173 0.2787
vt 0.2173 0.3441
vt 0.1683 0.3483
vt 0.1683 0.3113
vt 0.5921 0.1968
vt 0.5921 0.2207
vt 0.3449 0.4548
vt 0.3449 0.4028
vt 0.5498 0.5845
vt 0.5498 0.6139
vt 0.5562 0.6139
vt 0.5561 0.5845
vt 0.5500 0.6941
vt 0.5563 0.6941
vt 0.5499 0.6647
vt 0.5563 0.6647
vt 0.0566 0.3260
vt 0.1075 0.3260
vt 0.0942 0.4374
vt 0.0700 0.4373
vt 0.1085 0.3193
vt 0.1375 0.3098
vt 0.1364 0.3164
vt 0.4555 0.4251
vt 0.4453 0.4537
vt 0.3799 0.4537
vt 0.3900 0.4251
vt 0.0103 0.5139
vt 0.0758 0.5139
vt 0.0103 0.4436
vt 0.0758 0.4436
vt 0.4555 0.4185
vt 0.3900 0.4185
vt 0.4453 0.4602
vt 0.4555 0.4888
vt 0.3900 0.4888
vt 0.3799 0.4602
vt 0.1077 0.4308
vt 0.5375 0.4061
vt 0.5160 0.4056
vt 0.4873 0.2913
vt 0.5000 0.3016
vt 0.4352 0.4027
vt 0.4063 0.4123
vt 0.4074 0.4056
vt 0.4362 0.3959
vt 0.2156 0.5142
vt 0.2325 0.5142
vt 0.2325 0.5208
vt 0.2156 0.5208
vt 0.5170 0.4123
vt 0.4881 0.4027
vt 0.4871 0.3960
vt 0.0556 0.3193
vt 0.0266 0.3098
vt 0.0277 0.3164
vt 0.1888 0.5142
vt 0.1888 0.5208
vt 0.3361 0.2213
vt 0.3866 0.2213
vt 0.3866 0.2279
vt 0.3361 0.2279
vt 0.0272 0.5208
vt 0.0272 0.5142
vt 0.0392 0.5142
vt 0.0392 0.5208
vt 0.0002 0.5142
vt 0.0002 0.5208
vt 0.0062 0.3160
vt 0.0062 0.3103
vt 0.3858 0.4061
vt 0.4232 0.3015
vt 0.4360 0.2912
vt 0.3858 0.4118
vt 0.3771 0.5142
vt 0.3771 0.5208
vt 0.3652 0.5208
vt 0.3652 0.5142
vt 0.4042 0.5208
vt 0.4042 0.5142
vt 0.5375 0.4118
vt 0.2510 0.5208
vt 0.2510 0.5142
vt 0.1579 0.3103
vt 0.1579 0.3160
vt 0.1718 0.5142
vt 0.1718 0.5208
vt 0.1533 0.5208
vt 0.1533 0.5142
vt 0.0565 0.4307
vt 0.1205 0.4205
vt 0.4737 0.2847
vt 0.4495 0.2846
vt 0.0437 0.4204
vt 0.1076 0.3133
vt 0.1366 0.3037
vt 0.5162 0.4182
vt 0.4871 0.4086
vt 0.0275 0.3038
vt 0.0565 0.3133
vt 0.4362 0.4086
vt 0.4072 0.4182
vt 0.3799 0.4052
vt 0.4183 0.2980
vt 0.1639 0.3169
vt 0.1255 0.4240
vt 0.5050 0.2981
vt 0.5435 0.4052
vt 0.0002 0.3169
vt 0.0005 0.3047
vt 0.3802 0.4174
vt 0.5431 0.4174
vt 0.1636 0.3047
vt 0.1110 0.4359
vt 0.0955 0.4433
vt 0.4751 0.2788
vt 0.4905 0.2862
vt 0.0687 0.4432
vt 0.0532 0.4358
vt 0.4328 0.2861
vt 0.4482 0.2787
vt 0.0387 0.4240
vt 0.3368 0.1787
vt 0.3361 0.0510
vt 0.4828 0.0019
vt 0.5156 0.0514
vt 0.3691 0.0014
vt 0.4068 0.0002
vt 0.4930 0.1959
vt 0.4482 0.1965
vt 0.5147 0.1788
vt 0.3585 0.1959
vt 0.4449 0.0006
vt 0.4033 0.1965
vt 0.1118 0.1179
vt 0.0564 0.1178
vt 0.0002 0.1130
vt 0.2299 0.0002
vt 0.2744 0.0002
vt 0.2797 0.0931
vt 0.2244 0.0931
vt 0.1854 0.0002
vt 0.1684 0.0882
vt 0.5620 0.3937
vt 0.5438 0.3937
vt 0.3189 0.0003
vt 0.3358 0.0883
vt 0.5441 0.8849
vt 0.5623 0.8849
vt 0.1680 0.1131
vn -1.0000 0.0000 0.0000
vn 0.0000 -0.9996 0.0265
vn 0.8316 0.0000 0.5554
vn 0.0000 0.0000 1.0000
vn 0.0000 -1.0000 0.0000
vn 0.0000 1.0000 0.0000
vn 0.9561 -0.2896 0.0452
vn -0.5004 -0.1435 -0.8538
vn 0.5004 -0.1435 -0.8538
vn 0.1063 -0.3564 -0.9282
vn 0.0000 -0.9880 0.1543
vn -0.1062 -0.0905 -0.9902
vn -0.9561 -0.2896 0.0452
vn -0.9828 0.1823 -0.0285
vn 0.1012 0.2130 0.9718
vn 0.9828 0.1823 -0.0285
vn -0.1012 0.2130 0.9718
vn 0.0000 0.2466 0.9691
vn -0.0000 -0.1543 -0.9880
vn 0.0000 0.9880 -0.1543
vn 0.1062 -0.0905 -0.9902
vn 0.0000 -0.0561 -0.9984
vn -0.1063 -0.3564 -0.9282
vn 0.0000 -0.4991 -0.8666
vn 0.0145 0.0000 0.9999
vn 0.3042 0.8673 -0.3941
vn 0.3042 0.9461 0.1108
vn 0.1503 0.9768 -0.1526
vn -0.1503 0.9768 -0.1526
vn -0.3042 0.8673 -0.3941
vn -0.3042 0.9461 0.1108
vn -0.5395 0.8319 -0.1299
vn 0.5395 0.8319 -0.1299
vn 0.0000 0.1543 0.9880
vn 1.0000 0.0000 0.0000
vn 0.4425 0.8860 -0.1384
vn 0.9432 0.3283 -0.0513
vn -0.4425 0.8860 -0.1384
vn -0.6331 0.7648 -0.1195
vn 0.6331 0.7648 -0.1195
vn -0.9432 0.3283 -0.0513
vn -0.1558 -0.2967 0.9422
vn -0.1490 -0.5526 -0.8200
vn 0.1558 -0.2967 0.9422
vn 0.1490 -0.5526 -0.8200
vn -0.4198 0.0079 -0.9076
vn 0.4389 0.2894 0.8506
vn 0.4198 0.0079 -0.9076
vn 0.0000 -0.3232 0.9463
vn -0.0000 -0.5779 -0.8161
vn -0.4654 0.1366 0.8745
vn -0.4451 -0.1382 -0.8848
vn 0.0000 -0.5780 -0.8161
vn 0.4451 -0.1382 -0.8848
vn 0.4654 0.1366 0.8745
vn 0.2059 0.5490 0.8101
vn 0.1969 0.2561 -0.9464
vn -0.2059 0.5490 0.8101
vn -0.1969 0.2561 -0.9464
vn 0.0000 0.5964 0.8027
vn 0.0000 0.3015 -0.9535
vn -0.2947 0.4925 0.8189
vn -0.2818 0.2022 -0.9379
vn 0.2818 0.2022 -0.9379
vn 0.2947 0.4925 0.8189
vn -0.4389 0.2894 0.8506
vn -0.8330 0.0000 0.5533
vn -0.4354 0.9002 0.0000
vn 0.3621 0.9002 0.2418
vn 0.0000 0.9002 0.4354
vn 0.0000 0.8817 -0.4718
vn 0.2159 0.9154 -0.3396
vn -0.2159 0.9154 -0.3396
vn 0.0063 0.9002 0.4354
vn -0.3627 0.9002 0.2409
vn 0.4354 0.9002 0.0000
vn 0.1799 -0.1735 -0.9683
vn 0.1635 -0.1523 -0.9747
vn 0.0000 0.0608 0.9982
vn -0.0844 0.0957 0.9918
vn -0.1559 0.1525 0.9759
vn 0.9828 -0.1823 0.0285
vn 0.0844 0.0957 0.9918
vn 0.1559 0.1525 0.9759
vn -0.9828 -0.1823 0.0285
vn -0.1799 -0.1735 -0.9683
vn -0.1635 -0.1523 -0.9747
usemtl Material
s off
f 113/1/1 121/2/1 122/3/1 3/4/1
f 22/5/2 3/6/2 10/7/2 30/8/2
f 115/9/3 123/10/3 124/11/3 5/12/3
f 25/13/4 125/14/4 126/15/4 1/16/4
f 120/17/5 115/18/5 5/19/5 26/20/5
f 118/21/6 114/22/6 2/23/6 28/24/6
f 128/25/7 11/26/7 15/27/7 16/28/7
f 24/29/6 129/30/6 12/31/6 32/32/6
f 3/4/8 122/3/8 130/33/8 10/34/8
f 8/35/9 7/36/9 11/37/9 128/38/9
f 33/39/10 36/40/10 16/41/10 15/42/10
f 30/8/11 10/7/11 14/43/11 34/44/11
f 148/45/12 134/46/12 45/47/12 48/48/12
f 10/49/13 130/50/13 13/51/13 14/52/13
f 19/53/1 17/54/1 89/55/1 91/56/1
f 134/57/14 138/58/14 46/59/14 45/60/14
f 144/61/15 140/62/15 42/63/15 41/64/15
f 140/65/16 135/66/16 44/67/16 42/68/16
f 138/69/17 142/70/17 47/71/17 46/72/17
f 142/70/18 144/61/18 41/64/18 47/71/18
f 39/73/19 19/53/19 91/56/19 92/74/19
f 47/75/20 41/76/20 43/77/20 48/78/20
f 135/79/21 146/80/21 43/81/21 44/82/21
f 146/80/22 148/45/22 48/48/22 43/81/22
f 11/83/11 29/84/11 33/85/11 15/86/11
f 29/84/11 30/8/11 34/44/11 33/85/11
f 14/87/23 13/88/23 35/89/23 34/90/23
f 34/90/24 35/89/24 36/40/24 33/39/24
f 4/91/6 23/92/6 31/93/6 9/94/6
f 23/92/6 24/29/6 32/32/6 31/93/6
f 116/95/6 117/96/6 27/97/6 6/98/6
f 117/96/6 118/21/6 28/24/6 27/97/6
f 113/99/5 119/100/5 25/101/5 1/102/5
f 119/100/5 120/17/5 26/20/5 25/101/5
f 5/12/4 124/11/4 131/103/4 26/104/4
f 26/104/25 131/103/25 125/14/25 25/13/25
f 7/105/2 21/106/2 29/84/2 11/83/2
f 21/106/2 22/5/2 30/8/2 29/84/2
f 18/107/26 38/108/26 41/76/26 42/68/26
f 40/109/27 20/110/27 44/67/27 43/77/27
f 20/110/28 18/107/28 42/68/28 44/67/28
f 17/111/29 19/112/29 45/60/29 46/59/29
f 37/113/30 17/111/30 46/59/30 47/75/30
f 19/112/31 39/114/31 48/78/31 45/60/31
f 39/114/32 37/113/32 47/75/32 48/78/32
f 38/108/33 40/109/33 43/77/33 41/76/33
f 63/115/34 57/116/34 73/117/34 79/118/34
f 49/119/34 50/120/34 58/121/34 57/116/34
f 20/122/19 40/123/19 87/124/19 88/125/19
f 37/126/35 39/73/35 92/74/35 90/127/35
f 17/54/34 37/128/34 90/129/34 89/55/34
f 18/130/35 20/122/35 88/125/35 86/131/35
f 38/132/34 18/133/34 86/134/34 85/135/34
f 40/123/1 38/132/1 85/135/1 87/124/1
f 57/116/34 58/121/34 74/136/34 73/117/34
f 71/137/19 60/138/19 76/139/19 84/140/19
f 56/141/19 53/142/19 61/143/19 64/144/19
f 104/145/36 105/146/36 107/147/36 106/148/36
f 52/149/19 51/150/19 59/151/19 60/138/19
f 55/152/34 49/119/34 57/116/34 63/115/34
f 54/153/34 55/152/34 63/115/34 62/154/34
f 109/155/20 104/145/20 106/148/20 111/156/20
f 64/144/19 59/151/19 51/150/19 56/141/19
f 92/157/11 87/158/11 85/159/11 90/160/11
f 101/161/1 100/162/1 99/163/1 93/164/1
f 89/165/11 100/162/11 101/161/11 91/166/11
f 62/154/34 67/167/34 66/168/34 54/153/34
f 61/143/19 68/169/19 81/170/19 110/171/19
f 53/142/19 65/172/19 68/169/19 61/143/19
f 103/173/35 102/174/35 97/175/35 96/176/35
f 88/177/11 102/174/11 103/173/11 86/178/11
f 60/138/19 71/137/19 70/179/19 52/149/19
f 96/176/37 97/175/37 98/180/37 95/181/37
f 50/120/34 69/182/34 72/183/34 58/121/34
f 108/184/38 109/155/38 111/156/38 77/185/38
f 77/185/39 94/186/39 112/187/39 108/184/39
f 105/146/40 95/181/40 98/180/40 107/147/40
f 62/154/34 63/115/34 79/118/34 78/188/34
f 58/121/34 72/183/34 83/189/34 74/136/34
f 60/138/19 59/151/19 75/190/19 76/139/19
f 59/151/19 64/144/19 80/191/19 75/190/19
f 64/144/19 61/143/19 110/171/19 80/191/19
f 93/164/41 99/163/41 112/187/41 94/186/41
f 67/167/34 62/154/34 78/188/34 82/192/34
f 50/120/42 49/119/42 85/193/42 86/194/42
f 51/150/43 52/149/43 88/195/43 87/196/43
f 55/152/44 54/153/44 89/197/44 90/198/44
f 53/142/45 56/141/45 92/199/45 91/200/45
f 81/170/46 68/169/46 93/201/46 94/202/46
f 83/189/47 72/183/47 96/203/47 95/204/47
f 71/137/48 84/140/48 98/205/48 97/206/48
f 49/119/49 55/152/49 90/198/49 85/193/49
f 56/141/50 51/150/50 87/196/50 92/199/50
f 66/168/51 67/167/51 99/207/51 100/208/51
f 68/169/52 65/172/52 101/209/52 93/201/52
f 54/153/49 66/168/49 100/208/49 89/197/49
f 65/172/53 53/142/53 91/200/53 101/209/53
f 70/179/54 71/137/54 97/206/54 102/210/54
f 72/183/55 69/182/55 103/211/55 96/203/55
f 52/149/53 70/179/53 102/210/53 88/195/53
f 69/182/49 50/120/49 86/194/49 103/211/49
f 73/117/56 74/136/56 105/212/56 104/213/56
f 76/139/57 75/190/57 106/214/57 107/215/57
f 78/188/58 79/118/58 109/216/58 108/217/58
f 80/191/59 110/171/59 77/218/59 111/219/59
f 79/118/60 73/117/60 104/213/60 109/216/60
f 75/190/61 80/191/61 111/219/61 106/214/61
f 82/192/62 78/188/62 108/217/62 112/220/62
f 110/171/63 81/170/63 94/202/63 77/218/63
f 84/140/64 76/139/64 107/215/64 98/205/64
f 74/136/65 83/189/65 95/204/65 105/212/65
f 67/167/66 82/192/66 112/220/66 99/207/66
f 22/5/5 21/106/5 120/17/5 119/100/5
f 3/6/5 22/5/5 119/100/5 113/99/5
f 24/29/6 23/92/6 118/21/6 117/96/6
f 129/30/6 24/29/6 117/96/6 116/95/6
f 23/92/6 4/91/6 114/22/6 118/21/6
f 21/106/5 7/105/5 115/18/5 120/17/5
f 7/36/35 8/35/35 123/10/35 115/9/35
f 1/16/67 126/15/67 121/2/67 113/1/67
f 114/22/68 4/91/68 122/221/68 121/222/68
f 116/95/69 6/98/69 124/223/69 123/224/69
f 28/24/70 2/23/70 126/225/70 125/226/70
f 32/32/71 12/31/71 128/227/71 127/228/71
f 12/31/72 129/30/72 8/229/72 128/227/72
f 4/91/73 9/94/73 130/230/73 122/221/73
f 6/98/70 27/97/70 131/231/70 124/223/70
f 27/97/74 28/24/74 125/226/74 131/231/74
f 9/94/71 31/93/71 132/232/71 130/230/71
f 31/93/71 32/32/71 127/228/71 132/232/71
f 2/23/75 114/22/75 121/222/75 126/225/75
f 129/30/76 116/95/76 123/224/76 8/229/76
f 36/40/19 35/89/19 147/233/19 145/234/19
f 145/234/19 147/233/19 148/45/19 146/80/19
f 16/41/77 36/40/77 145/234/77 136/235/77
f 136/235/78 145/234/78 146/80/78 135/79/78
f 132/236/79 127/237/79 143/238/79 141/239/79
f 141/239/34 143/238/34 144/61/34 142/70/34
f 130/240/80 132/236/80 141/239/80 137/241/80
f 137/241/81 141/239/81 142/70/81 138/69/81
f 128/25/82 16/28/82 136/242/82 139/243/82
f 139/243/35 136/242/35 135/66/35 140/65/35
f 127/237/83 128/244/83 139/245/83 143/238/83
f 143/238/84 139/245/84 140/62/84 144/61/84
f 13/51/85 130/50/85 137/246/85 133/247/85
f 133/247/1 137/246/1 138/58/1 134/57/1
f 35/89/86 13/88/86 133/248/86 147/233/86
f 147/233/87 133/248/87 134/46/87 148/45/87
