# Blender v2.78 (sub 0) OBJ File: 'chest.blend'
# www.blender.org
mtllib chest.mtl
o Cube.008_Cube.010
v -3.152845 1.043141 -0.997123
v -3.152845 3.024151 -1.272073
v -7.155404 3.024151 -1.272073
v -7.155403 1.043141 -0.997123
v -3.316491 1.205233 -1.019621
v -3.316491 2.862059 -1.249576
v -6.991757 1.205233 -1.019621
v -6.991758 2.862059 -1.249576
v -4.105508 1.472142 -1.708674
v -4.105508 2.417583 -1.839895
v -6.202741 1.472141 -1.708675
v -6.202741 2.417583 -1.839895
v -3.727751 1.254530 -1.563681
v -3.727751 2.666457 -1.759646
v -6.580497 1.254530 -1.563681
v -6.580498 2.666457 -1.759646
v -4.023530 1.470556 -1.448701
v -4.023530 2.489910 -1.590180
v -6.284719 1.470556 -1.448701
v -6.284719 2.489910 -1.590180
vt 0.2680 0.6015
vt 0.2680 0.3012
vt 0.1411 0.3590
vt 0.1411 0.5437
vt 0.6706 0.5424
vt 0.6706 0.8427
vt 0.7000 0.8720
vt 0.7000 0.5130
vt 0.9697 0.6894
vt 0.9697 0.0297
vt 0.9403 0.0003
vt 0.9403 0.7188
vt 0.9703 0.0297
vt 0.9703 0.6894
vt 0.9997 0.7188
vt 0.9997 0.0003
vt 0.7300 0.8427
vt 0.7300 0.5424
vt 0.7007 0.5130
vt 0.7007 0.8720
vt 0.5760 0.4446
vt 0.5760 0.0681
vt 0.7474 0.0681
vt 0.7474 0.4446
vt 0.6022 0.5553
vt 0.6700 0.5130
vt 0.6700 0.7689
vt 0.6022 0.7266
vt 0.5338 0.5124
vt 0.5338 0.0003
vt 0.4763 0.3690
vt 0.5186 0.3012
vt 0.5186 0.8133
vt 0.4763 0.7455
vt 0.5338 0.5553
vt 0.6016 0.5130
vt 0.6016 0.7689
vt 0.5338 0.7266
vt 0.8435 0.7188
vt 0.7480 0.6156
vt 0.7480 0.1035
vt 0.8435 0.0003
vt 0.3718 0.6602
vt 0.2686 0.6086
vt 0.2686 0.3528
vt 0.3718 0.3012
vt 0.4756 0.6602
vt 0.3725 0.6086
vt 0.3725 0.3528
vt 0.4756 0.3012
vt 0.9397 0.0003
vt 0.8441 0.1035
vt 0.8441 0.6156
vt 0.9397 0.7188
vt 0.4062 0.2428
vt 0.4062 0.0581
vt 0.0003 0.0581
vt 0.0003 0.2428
vt 0.1404 0.3012
vt 0.1404 0.9609
vt 0.0707 0.8340
vt 0.0707 0.4281
vt 0.0701 0.9609
vt 0.0701 0.3012
vt 0.0003 0.4281
vt 0.0003 0.8340
vt 0.5331 0.3006
vt 0.5331 0.0003
vn 0.4816 0.1205 0.8681
vn 0.0000 0.1375 0.9905
vn 0.0000 -0.1375 -0.9905
vn 0.2882 -0.1316 -0.9485
vn 0.0000 -0.5545 -0.8322
vn 0.0000 0.3069 -0.9517
vn -0.2882 -0.1316 -0.9485
vn 0.0000 0.8063 -0.5915
vn 0.6793 -0.1009 -0.7269
vn -0.6793 -0.1009 -0.7269
vn 0.0000 -0.9369 -0.3496
vn -0.0000 0.8505 0.5259
vn 0.0000 -0.6752 0.7377
vn -0.4816 0.1205 0.8681
usemtl Material
s off
f 8/1/1 7/2/1 19/3/1 20/4/1
f 6/5/2 5/6/2 1/7/2 2/8/2
f 5/9/2 7/10/2 4/11/2 1/12/2
f 8/13/2 6/14/2 2/15/2 3/16/2
f 7/17/2 8/18/2 3/19/2 4/20/2
f 9/21/3 11/22/3 12/23/3 10/24/3
f 10/25/4 14/26/4 13/27/4 9/28/4
f 9/21/5 13/29/5 15/30/5 11/22/5
f 12/31/6 16/32/6 14/33/6 10/34/6
f 11/35/7 15/36/7 16/37/7 12/38/7
f 2/39/8 14/40/8 16/41/8 3/42/8
f 1/43/9 13/44/9 14/45/9 2/46/9
f 3/47/10 16/48/10 15/49/10 4/50/10
f 4/51/11 15/52/11 13/53/11 1/54/11
f 17/55/2 18/56/2 20/57/2 19/58/2
f 7/59/12 5/60/12 17/61/12 19/62/12
f 6/63/13 8/64/13 20/65/13 18/66/13
f 5/67/14 6/68/14 18/56/14 17/55/14
