# Blender v2.78 (sub 0) OBJ File: 'chest.blend'
# www.blender.org
mtllib chest2.mtl
o Cube.006_Cube.008
v -3.152845 -1.000000 -1.000000
v -3.152845 -1.000000 1.000000
v -7.155404 -1.000000 1.000000
v -7.155403 -1.000000 -1.000000
v -3.311310 1.000000 -0.841534
v -3.311311 1.000000 0.841535
v -6.996938 1.000000 0.841534
v -6.996938 1.000000 -0.841534
v -3.152844 1.000000 -0.999999
v -3.152846 1.000000 1.000001
v -7.155404 1.000000 -1.000000
v -7.155404 1.000000 1.000000
v -3.311310 -0.848819 -0.841534
v -3.311311 -0.848819 0.841535
v -6.996938 -0.848819 -0.841534
v -6.996938 -0.848819 0.841534
vt 0.4135 0.4125
vt 0.6195 0.4125
vt 0.6195 0.0003
vt 0.4135 0.0003
vt 0.6201 0.0003
vt 0.6201 0.3799
vt 0.8105 0.3799
vt 0.8105 0.0003
vt 0.4135 0.8102
vt 0.4135 0.6042
vt 0.6195 0.6042
vt 0.6195 0.8102
vt 0.2063 0.8254
vt 0.0003 0.8254
vt 0.0003 0.4132
vt 0.2063 0.4132
vt 0.9997 0.7934
vt 0.7937 0.7934
vt 0.7937 0.9994
vt 0.9997 0.9994
vt 0.2069 0.4125
vt 0.4129 0.4125
vt 0.4129 0.0003
vt 0.2069 0.0003
vt 0.0166 0.3962
vt 0.1900 0.3962
vt 0.2063 0.4125
vt 0.0003 0.4125
vt 0.3966 0.8091
vt 0.3966 0.4295
vt 0.4129 0.4132
vt 0.4129 0.8254
vt 0.1900 0.0166
vt 0.2063 0.0003
vt 0.2232 0.8091
vt 0.2069 0.8254
vt 0.7937 0.7928
vt 0.7937 0.4132
vt 0.9671 0.4132
vt 0.9671 0.7928
vt 0.9845 0.0003
vt 0.8111 0.0003
vt 0.8111 0.1907
vt 0.9845 0.1907
vt 0.8111 0.1913
vt 0.9845 0.1913
vt 0.9845 0.3817
vt 0.8111 0.3817
vt 0.4135 0.4132
vt 0.7931 0.4132
vt 0.7931 0.6036
vt 0.4135 0.6036
vn 0.0000 -1.0000 0.0000
vn 0.0000 0.0000 -1.0000
vn 1.0000 -0.0000 0.0000
vn -0.0000 -0.0000 1.0000
vn -1.0000 -0.0000 -0.0000
vn 0.0000 1.0000 0.0000
usemtl Material
s off
f 1/1/1 2/2/1 3/3/1 4/4/1
f 7/5/2 6/6/2 14/7/2 16/8/2
f 1/9/3 9/10/3 10/11/3 2/12/3
f 2/13/4 10/14/4 12/15/4 3/16/4
f 3/17/5 12/18/5 11/19/5 4/20/5
f 9/21/2 1/22/2 4/23/2 11/24/2
f 5/25/6 6/26/6 10/27/6 9/28/6
f 8/29/6 5/30/6 9/31/6 11/32/6
f 6/26/6 7/33/6 12/34/6 10/27/6
f 7/35/6 8/29/6 11/32/6 12/36/6
f 13/37/6 15/38/6 16/39/6 14/40/6
f 6/41/5 5/42/5 13/43/5 14/44/5
f 8/45/3 7/46/3 16/47/3 15/48/3
f 5/49/4 8/50/4 15/51/4 13/52/4
