# Blender v2.78 (sub 0) OBJ File: ''
# www.blender.org
mtllib circle.mtl
o Cylinder
v -0.000000 0.000000 -1.000000
v 0.195090 0.000000 -0.980785
v 0.382683 0.000000 -0.923879
v 0.555570 0.000000 -0.831469
v 0.707107 0.000000 -0.707106
v 0.831470 0.000000 -0.555570
v 0.923879 0.000000 -0.382683
v 0.980785 0.000000 -0.195090
v 1.000000 0.000000 0.000000
v 0.980785 0.000000 0.195090
v 0.923879 0.000000 0.382684
v 0.831470 0.000000 0.555570
v 0.707107 0.000000 0.707107
v 0.555570 0.000000 0.831470
v 0.382683 0.000000 0.923880
v 0.195090 0.000000 0.980786
v -0.000000 0.000000 1.000000
v -0.195091 0.000000 0.980785
v -0.382684 0.000000 0.923880
v -0.555571 0.000000 0.831470
v -0.707107 0.000000 0.707107
v -0.831470 0.000000 0.555570
v -0.923880 0.000000 0.382683
v -0.980786 0.000000 0.195090
v -1.000000 0.000000 -0.000001
v -0.980785 0.000000 -0.195091
v -0.923879 0.000000 -0.382684
v -0.831469 0.000000 -0.555571
v -0.707106 0.000000 -0.707107
v -0.555569 0.000000 -0.831470
v -0.382682 0.000000 -0.923880
v -0.195089 0.000000 -0.980785
vt 0.1813 0.1117
vt 0.2632 0.0570
vt 0.3542 0.0193
vt 0.4508 0.0001
vt 0.5492 0.0001
vt 0.6458 0.0193
vt 0.7368 0.0570
vt 0.8187 0.1117
vt 0.8883 0.1813
vt 0.9430 0.2632
vt 0.9807 0.3542
vt 0.9999 0.4508
vt 0.9999 0.5492
vt 0.9807 0.6458
vt 0.9430 0.7368
vt 0.8883 0.8187
vt 0.8187 0.8883
vt 0.7368 0.9430
vt 0.6458 0.9807
vt 0.5492 0.9999
vt 0.4508 0.9999
vt 0.3542 0.9807
vt 0.2632 0.9430
vt 0.1813 0.8883
vt 0.1117 0.8187
vt 0.0570 0.7368
vt 0.0193 0.6458
vt 0.0001 0.5492
vt 0.0001 0.4508
vt 0.0193 0.3542
vt 0.0570 0.2632
vt 0.1117 0.1813
vn 0.0000 1.0000 0.0000
usemtl None
s off
f 2/1/1 1/2/1 32/3/1 31/4/1 30/5/1 29/6/1 28/7/1 27/8/1 26/9/1 25/10/1 24/11/1 23/12/1 22/13/1 21/14/1 20/15/1 19/16/1 18/17/1 17/18/1 16/19/1 15/20/1 14/21/1 13/22/1 12/23/1 11/24/1 10/25/1 9/26/1 8/27/1 7/28/1 6/29/1 5/30/1 4/31/1 3/32/1
