# Blender v2.78 (sub 0) OBJ File: 'CS.blend'
# www.blender.org
mtllib CS.mtl
o Cylinder
v -1.589682 0.026571 -1.401094
v 0.000000 -1.512087 -1.000000
v -1.666168 0.026571 0.000001
v 0.500000 -1.512087 -0.866025
v -1.588346 0.026571 1.401126
v 0.866025 -1.512087 -0.500000
v -0.833655 0.026571 1.599310
v 1.000000 -1.512087 0.000000
v -0.000006 0.026571 1.673209
v 0.866025 -1.512087 0.500000
v 0.833640 0.026571 1.599302
v 0.500000 -1.512087 0.866025
v 1.589670 0.026571 1.401094
v 0.000000 -1.512087 1.000000
v 1.666157 0.026571 -0.000000
v -0.500000 -1.512087 0.866026
v 1.589670 0.026571 -1.401094
v -0.866025 -1.512087 0.500000
v -0.833653 0.026571 -1.599302
v -1.000000 -1.512087 0.000000
v 0.833640 0.026571 -1.599302
v -0.866026 -1.512087 -0.499999
v -0.000006 0.026571 -1.673209
v -0.500001 -1.512087 -0.866025
v 0.000000 -0.041131 -2.111347
v 1.055674 -0.041131 -2.111347
v 2.111347 -0.041131 -2.111347
v 2.111347 -0.041131 -0.000000
v 2.111347 -0.041131 2.111347
v 1.055674 -0.041131 2.111347
v 0.000000 -0.041131 2.111347
v -1.055673 -0.041131 2.111347
v -2.108835 -0.041131 2.111347
v -2.111347 -0.041131 0.000001
v -2.111347 -0.041131 -2.111347
v -1.055675 -0.041131 -2.111347
v 0.000000 0.026571 -1.055191
v 0.000000 -0.093032 -1.000000
v 0.500000 -0.093032 -0.866025
v 0.521997 0.026571 -0.915322
v 0.866025 -0.093032 -0.500000
v 0.897105 0.026571 -0.540214
v 1.000000 -0.093032 0.000000
v 1.041855 0.026571 0.000000
v 0.866025 -0.093032 0.500000
v 0.897105 0.026571 0.540214
v 0.500000 -0.093032 0.866025
v 0.521997 0.026571 0.915322
v 0.000000 -0.093032 1.000000
v 0.000000 0.026571 1.055191
v -0.500000 -0.093032 0.866026
v -0.522003 0.026571 0.915337
v -0.866025 -0.093032 0.500000
v -0.897088 0.026571 0.540275
v -1.000000 -0.093032 0.000000
v -1.041855 0.026571 0.000000
v -0.866026 -0.093032 -0.499999
v -0.897105 0.026571 -0.540214
v -0.500001 -0.093032 -0.866025
v -0.521997 0.026571 -0.915322
v 1.399590 0.131954 0.000000
v 1.335342 0.131954 -1.176912
v 1.335342 0.131954 1.176912
v 0.000022 0.131954 1.405488
v 0.700281 0.131954 1.343406
v -0.700239 0.131954 1.343413
v -1.399546 0.131954 0.000001
v -1.334176 0.131954 1.176939
v -1.335298 0.131954 -1.176912
v 0.000022 0.131954 -1.405488
v -0.700238 0.131954 -1.343406
v 0.700281 0.131954 -1.343406
v -1.245689 0.131954 -0.000000
v -1.072601 0.131954 0.645971
v -0.000010 0.131954 1.261623
v 0.624107 0.131954 1.094391
v 1.245668 0.131954 -0.000001
v 1.072600 0.131954 -0.645900
v 0.624107 0.131954 -1.094393
v 1.072600 0.131954 0.645898
v -0.624136 0.131954 1.094408
v -1.072621 0.131954 -0.645900
v -0.000010 0.131954 -1.261624
v -0.624129 0.131954 -1.094392
vt 0.4415 0.5421
vt 0.6460 0.5421
vt 0.6460 0.6141
vt 0.4415 0.6141
vt 0.1378 0.1845
vt 0.1092 0.0756
vt 0.2116 0.0004
vt 0.2116 0.1525
vt 0.3483 0.7361
vt 0.3594 0.5342
vt 0.4235 0.5342
vt 0.4235 0.8385
vt 0.3047 0.8092
vt 0.1027 0.8203
vt 0.0004 0.7451
vt 0.3047 0.7451
vt 0.3476 0.5809
vt 0.3476 0.6936
vt 0.2681 0.6813
vt 0.2295 0.5342
vt 0.3497 0.4245
vt 0.3604 0.3043
vt 0.4235 0.3043
vt 0.4235 0.4565
vt 0.3497 0.1842
vt 0.4235 0.1522
vt 0.3212 0.0754
vt 0.4235 0.0004
vt 0.8693 0.8974
vt 0.8803 0.6954
vt 0.9445 0.6953
vt 0.9445 0.9996
vt 0.8715 0.5838
vt 0.8605 0.3819
vt 0.9356 0.2796
vt 0.9356 0.5838
vt 0.4243 0.1769
vt 0.4243 0.1023
vt 0.4616 0.0377
vt 0.5262 0.0004
vt 0.6008 0.0004
vt 0.6654 0.0377
vt 0.7027 0.1023
vt 0.7027 0.1769
vt 0.6654 0.2415
vt 0.6008 0.2788
vt 0.5262 0.2788
vt 0.4616 0.2415
vt 0.8216 0.0471
vt 0.8216 0.1598
vt 0.7421 0.1476
vt 0.7035 0.0004
vt 0.1378 0.4248
vt 0.1484 0.3047
vt 0.2116 0.3047
vt 0.2116 0.4568
vt 0.6640 0.8452
vt 0.8686 0.8452
vt 0.8686 0.7732
vt 0.6640 0.7732
vt 0.0176 0.6845
vt 0.2221 0.6845
vt 0.2221 0.7372
vt 0.0176 0.7372
vt 0.0176 0.6124
vt 0.2221 0.6124
vt 0.0176 0.5403
vt 0.2221 0.5403
vt 0.4415 0.3368
vt 0.6460 0.3368
vt 0.6460 0.2840
vt 0.4415 0.2840
vt 0.4415 0.4088
vt 0.6460 0.4088
vt 0.4415 0.4809
vt 0.6460 0.4809
vt 0.4415 0.5337
vt 0.6460 0.5337
vt 0.4415 0.6862
vt 0.6460 0.6862
vt 0.6460 0.7389
vt 0.4415 0.7389
vt 0.8686 0.7011
vt 0.6640 0.7011
vt 0.3129 0.4052
vt 0.3218 0.3043
vt 0.4243 0.6894
vt 0.4243 0.6141
vt 0.4243 0.7434
vt 0.6468 0.7732
vt 0.6468 0.8510
vt 0.6468 0.6953
vt 0.4243 0.4841
vt 0.4243 0.5381
vt 0.4243 0.4088
vt 0.4243 0.3336
vt 0.4243 0.2796
vt 0.0004 0.6124
vt 0.0004 0.5345
vt 0.0004 0.6903
vt 0.0004 0.7443
vt 0.4243 0.5389
vt 0.4740 0.7585
vt 0.4540 0.8323
vt 0.4243 0.8324
vt 0.4482 0.7442
vt 0.5044 0.8323
vt 0.5244 0.9076
vt 0.4986 0.9224
vt 0.4747 0.8324
vt 0.0594 0.3047
vt 0.0392 0.2294
vt 0.0650 0.2147
vt 0.0891 0.3047
vt 0.1099 0.3047
vt 0.1009 0.2037
vt 0.1092 0.5338
vt 0.0769 0.4971
vt 0.1009 0.4056
vt 0.8721 0.0156
vt 0.8518 0.0893
vt 0.8223 0.0885
vt 0.8466 0.0004
vt 0.9024 0.0893
vt 0.9227 0.1673
vt 0.8972 0.1818
vt 0.8729 0.0885
vt 0.5635 0.7442
vt 0.5635 0.9464
vt 0.5252 0.9443
vt 0.5252 0.7744
vt 0.6468 0.4723
vt 0.7079 0.2796
vt 0.7353 0.3200
vt 0.6840 0.4819
vt 0.8408 0.4948
vt 0.8415 0.5754
vt 0.8132 0.5838
vt 0.8123 0.4874
vt 0.0650 0.3946
vt 0.8597 0.6625
vt 0.8401 0.6945
vt 0.7575 0.6485
vt 0.7908 0.4819
vt 0.8597 0.4035
vt 0.8423 0.3200
vt 0.2770 0.2144
vt 0.2123 0.1497
vt 0.2889 0.1120
vt 0.3129 0.2034
vt 0.3011 0.3043
vt 0.2770 0.3943
vt 0.7064 0.5838
vt 0.7529 0.6626
vt 0.7333 0.6946
vt 0.6506 0.6485
vt 0.7055 0.4875
vt 0.7529 0.4036
vt 0.0004 0.1501
vt 0.0769 0.1122
vt 0.0004 0.9427
vt 0.0004 0.8302
vt 0.0409 0.8210
vt 0.0409 0.9155
vt 0.3212 0.5334
vt 0.2889 0.4968
vt 0.7339 0.4948
vt 0.7347 0.5754
vt 0.8721 0.1673
vt 0.8466 0.1818
vt 0.4740 0.9076
vt 0.4482 0.9224
vt 0.5643 0.8661
vt 0.5643 0.7534
vt 0.6048 0.7442
vt 0.6048 0.8388
vt 0.9227 0.0156
vt 0.8972 0.0004
vt 0.2713 0.3043
vt 0.2512 0.2291
vt 0.7536 0.4723
vt 0.8149 0.2796
vt 0.3092 0.8966
vt 0.3092 0.6943
vt 0.3476 0.6964
vt 0.3476 0.8663
vt 0.5244 0.7585
vt 0.4986 0.7442
vn 0.2588 0.0000 0.9659
vn 0.0113 0.9946 -0.1033
vn 0.1365 0.9906 -0.0030
vn 0.1365 0.9906 0.0030
vn 0.0113 0.9946 0.1033
vn 0.0055 0.9902 0.1398
vn -0.0055 0.9902 0.1398
vn -0.0113 0.9946 0.1033
vn -0.1366 0.9906 0.0031
vn -0.1366 0.9906 -0.0030
vn 0.0000 1.0000 0.0000
vn -0.0113 0.9946 -0.1033
vn -0.0055 0.9902 -0.1398
vn -0.9659 0.0000 0.2588
vn 0.7071 0.0000 0.7071
vn 0.9659 0.0000 0.2588
vn 0.9659 0.0000 -0.2588
vn 0.7071 0.0000 -0.7071
vn 0.2588 0.0000 -0.9659
vn -0.2588 0.0000 -0.9659
vn -0.7071 0.0000 -0.7071
vn -0.7071 0.0000 0.7071
vn -0.2588 0.0000 0.9659
vn -0.9659 0.0000 -0.2588
vn 0.0325 0.9300 0.3661
vn -0.2364 0.4071 0.8823
vn -0.6516 0.3884 0.6516
vn -0.9151 0.3202 0.2452
vn -0.9151 0.3202 -0.2452
vn -0.6516 0.3884 -0.6516
vn -0.2364 0.4071 -0.8823
vn 0.2364 0.4072 -0.8822
vn 0.6515 0.3886 -0.6516
vn 0.9151 0.3202 -0.2452
vn 0.9151 0.3202 0.2452
vn 0.6516 0.3884 0.6516
vn 0.2364 0.4071 0.8823
vn 0.0055 0.9902 -0.1398
vn 0.3311 0.8836 0.3311
vn -0.1209 0.8841 -0.4513
vn -0.1209 0.8841 0.4513
vn 0.0325 0.9300 -0.3661
vn -0.0889 0.9365 -0.3393
vn -0.0325 0.9300 -0.3661
vn 0.3311 0.8836 -0.3311
vn -0.4559 0.8816 0.1221
vn 0.3676 0.9298 0.0201
vn 0.3676 0.9298 -0.0201
vn 0.4558 0.8817 0.1221
vn -0.0891 0.9365 0.3392
vn -0.0325 0.9300 0.3661
vn 0.0890 0.9365 0.3393
vn -0.4559 0.8816 -0.1221
vn 0.4558 0.8817 -0.1221
vn 0.1209 0.8841 0.4513
vn 0.0890 0.9365 -0.3393
vn -0.3311 0.8836 0.3311
vn 0.1209 0.8841 -0.4513
vn -0.3675 0.9298 0.0204
vn -0.3675 0.9298 -0.0201
vn -0.3312 0.8836 -0.3312
usemtl Material.001
s off
f 59/1/1 24/2/1 2/3/1 38/4/1
f 21/5/2 17/6/2 27/7/2 26/8/2
f 17/9/3 15/10/3 28/11/3 27/12/3
f 15/13/4 13/14/4 29/15/4 28/16/4
f 13/17/5 11/18/5 30/19/5 29/20/5
f 11/21/6 9/22/6 31/23/6 30/24/6
f 9/22/7 7/25/7 32/26/7 31/23/7
f 7/25/8 5/27/8 33/28/8 32/26/8
f 5/29/9 3/30/9 34/31/9 33/32/9
f 3/33/10 1/34/10 35/35/10 34/36/10
f 4/37/11 2/38/11 24/39/11 22/40/11 20/41/11 18/42/11 16/43/11 14/44/11 12/45/11 10/46/11 8/47/11 6/48/11
f 1/49/12 19/50/12 36/51/12 35/52/12
f 19/53/13 23/54/13 25/55/13 36/56/13
f 41/57/14 6/58/14 8/59/14 43/60/14
f 57/61/15 22/62/15 24/63/15 59/64/15
f 55/65/16 20/66/16 22/62/16 57/61/16
f 53/67/17 18/68/17 20/66/17 55/65/17
f 51/69/18 16/70/18 18/71/18 53/72/18
f 49/73/19 14/74/19 16/70/19 51/69/19
f 47/75/20 12/76/20 14/74/20 49/73/20
f 45/77/21 10/78/21 12/76/21 47/75/21
f 39/79/22 4/80/22 6/81/22 41/82/22
f 38/4/23 2/3/23 4/80/23 39/79/23
f 43/60/24 8/59/24 10/83/24 45/84/24
f 9/22/25 11/21/25 65/85/25 64/86/25
f 38/4/26 39/79/26 40/87/26 37/88/26
f 39/79/27 41/82/27 42/89/27 40/87/27
f 41/57/28 43/60/28 44/90/28 42/91/28
f 43/60/29 45/84/29 46/92/29 44/90/29
f 45/77/30 47/75/30 48/93/30 46/94/30
f 47/75/31 49/73/31 50/95/31 48/93/31
f 49/73/32 51/69/32 52/96/32 50/95/32
f 51/69/33 53/72/33 54/97/33 52/96/33
f 53/67/34 55/65/34 56/98/34 54/99/34
f 55/65/35 57/61/35 58/100/35 56/98/35
f 57/61/36 59/64/36 60/101/36 58/100/36
f 59/1/37 38/4/37 37/88/37 60/102/37
f 23/54/38 21/5/38 26/8/38 25/55/38
f 58/103/39 60/104/39 84/105/39 82/106/39
f 48/107/40 50/108/40 75/109/40 76/110/40
f 37/111/41 40/112/41 79/113/41 83/114/41
f 21/5/42 23/54/42 70/115/42 72/116/42
f 19/53/43 1/117/43 69/118/43 71/119/43
f 23/54/44 19/53/44 71/119/44 70/115/44
f 52/120/45 54/121/45 74/122/45 81/123/45
f 42/124/46 44/125/46 77/126/46 78/127/46
f 13/128/47 15/129/47 61/130/47 63/131/47
f 15/132/48 17/133/48 62/134/48 61/135/48
f 56/136/49 58/137/49 82/138/49 73/139/49
f 83/114/11 79/113/11 72/116/11 70/115/11
f 84/140/11 83/114/11 70/115/11 71/119/11
f 82/138/11 84/141/11 71/142/11 69/143/11
f 73/139/11 82/138/11 69/143/11 67/144/11
f 74/145/11 73/139/11 67/144/11 68/146/11
f 81/147/11 74/148/11 68/149/11 66/150/11
f 75/151/11 81/147/11 66/150/11 64/86/11
f 76/152/11 75/151/11 64/86/11 65/85/11
f 80/153/11 76/154/11 65/155/11 63/156/11
f 77/157/11 80/153/11 63/156/11 61/135/11
f 78/158/11 77/157/11 61/135/11 62/134/11
f 79/113/11 78/159/11 62/160/11 72/116/11
f 5/161/50 7/162/50 66/163/50 68/164/50
f 7/25/51 9/22/51 64/86/51 66/150/51
f 11/21/52 13/165/52 63/166/52 65/85/52
f 44/167/53 46/168/53 80/153/53 77/157/53
f 54/121/54 56/169/54 73/170/54 74/122/54
f 60/104/55 37/171/55 83/172/55 84/105/55
f 17/173/56 21/174/56 72/175/56 62/176/56
f 40/177/57 42/124/57 78/127/57 79/178/57
f 50/179/58 52/180/58 81/147/58 75/151/58
f 3/181/59 5/182/59 68/146/59 67/144/59
f 1/183/60 3/184/60 67/185/60 69/186/60
f 46/187/61 48/107/61 76/110/61 80/188/61
