# Blender v2.78 (sub 0) OBJ File: 'cup.blend'
# www.blender.org
mtllib cup.mtl
o Cylinder
v -0.007558 -0.199423 -0.915611
v -0.007558 1.977551 -0.882217
v 0.450247 -0.199423 -0.792942
v 0.433550 1.977551 -0.764022
v 0.785384 -0.199423 -0.457805
v 0.756464 1.977551 -0.441109
v 0.908053 -0.199423 0.000000
v 0.874659 1.977551 0.000000
v 0.785384 -0.199423 0.457805
v 0.756464 1.977551 0.441109
v 0.450247 -0.199423 0.792942
v 0.433550 1.977551 0.764022
v -0.007558 -0.199423 0.915611
v -0.007558 1.977551 0.882217
v -0.465364 -0.199423 0.792942
v -0.448667 1.977551 0.764023
v -0.800500 -0.199423 0.457806
v -0.771581 1.977551 0.441109
v -0.923169 -0.199423 0.000000
v -0.889775 1.977551 0.000000
v -0.800501 -0.199423 -0.457805
v -0.771581 1.977551 -0.441108
v -0.465364 -0.199423 -0.792942
v -0.448667 1.977551 -0.764022
v 0.492442 1.977551 -0.866025
v -0.007558 1.977551 -1.000000
v 0.858467 1.977551 -0.500000
v 0.992442 1.977551 0.000000
v 0.858467 1.977551 0.500000
v 0.492442 1.977551 0.866025
v -0.007558 1.977551 1.000000
v -0.507558 1.977551 0.866026
v -0.873583 1.977551 0.500000
v -1.007558 1.977551 0.000000
v -0.873584 1.977551 -0.499999
v -0.507559 1.977551 -0.866025
v 0.433550 0.091362 -0.764022
v -0.007558 0.091362 -0.882217
v 0.756464 0.091362 -0.441109
v 0.874659 0.091362 0.000000
v 0.756464 0.091362 0.441109
v 0.433550 0.091362 0.764022
v -0.007558 0.091362 0.882217
v -0.448667 0.091362 0.764023
v -0.771581 0.091362 0.441109
v -0.889775 0.091362 0.000000
v -0.771581 0.091362 -0.441108
v -0.448667 0.091362 -0.764022
v -0.007558 -0.022449 -1.000000
v 0.492442 -0.022449 -0.866025
v 0.858467 -0.022449 -0.500000
v 0.992442 -0.022449 0.000000
v 0.858467 -0.022449 0.500000
v 0.492442 -0.022449 0.866025
v -0.007558 -0.022449 1.000000
v -0.507558 -0.022449 0.866026
v -0.873583 -0.022449 0.500000
v -1.007558 -0.022449 0.000000
v -0.873584 -0.022449 -0.499999
v -0.507559 -0.022449 -0.866025
v 0.119748 0.541942 0.999014
v -0.134865 0.541942 0.999014
v 0.052903 0.122950 0.999014
v -0.066949 0.122950 0.999014
v 0.028970 0.414644 1.389530
v 0.068906 0.570711 1.296111
v -0.063008 0.570711 1.296111
v -0.033124 0.414644 1.389530
v 0.024024 0.782316 1.656728
v 0.058399 0.870928 1.534034
v -0.073516 0.870928 1.534034
v -0.038070 0.782316 1.656728
v 0.024024 1.726373 1.469404
v 0.058399 1.591021 1.364327
v -0.073515 1.591021 1.364327
v -0.038070 1.726373 1.469404
v 0.033637 1.721387 0.989598
v 0.083391 1.486431 0.996538
v -0.093936 1.478491 0.985200
v -0.049835 1.713447 0.978260
v -0.073515 1.147776 1.527397
v 0.058399 1.147776 1.527397
v -0.038070 1.171145 1.641282
v 0.024024 1.171145 1.641282
v -0.043953 1.846142 1.144948
v -0.083726 1.627828 1.166130
v 0.070895 1.633389 1.170250
v 0.028831 1.851703 1.149067
v -0.073515 1.390083 1.486551
v -0.038070 1.428075 1.616323
v 0.058399 1.390083 1.486551
v 0.024024 1.428075 1.616323
vn 0.2588 0.0000 -0.9659
vn 0.7071 0.0000 -0.7071
vn 0.9659 0.0000 -0.2588
vn 0.9659 0.0000 0.2588
vn 0.7071 0.0000 0.7071
vn 0.2588 0.0000 0.9659
vn -0.2588 0.0000 0.9659
vn -0.7071 0.0000 0.7071
vn -0.9659 0.0000 0.2588
vn -0.9659 0.0000 -0.2588
vn -0.7071 0.0000 -0.7071
vn -0.2588 0.0000 -0.9659
vn 0.0000 -1.0000 0.0000
vn 0.0000 1.0000 -0.0000
vn 0.2351 -0.4184 -0.8773
vn 0.6423 -0.4184 -0.6423
vn 0.8773 -0.4184 -0.2351
vn 0.8773 -0.4184 0.2351
vn 0.6423 -0.4184 0.6423
vn 0.2351 -0.4184 0.8773
vn -0.2351 -0.4184 0.8773
vn -0.6423 -0.4184 0.6423
vn -0.8773 -0.4184 0.2351
vn -0.8773 -0.4184 -0.2351
vn -0.6423 -0.4184 -0.6423
vn -0.2351 -0.4184 -0.8773
vn 0.0000 0.0000 -1.0000
vn 0.0000 -0.5879 0.8089
vn -0.9690 -0.1307 0.2098
vn 0.9725 -0.1519 0.1765
vn 0.0000 -0.8012 0.5984
vn 0.0000 0.9953 -0.0964
vn 0.0000 -0.5197 -0.8544
vn 0.0000 0.6211 -0.7837
vn -0.9803 -0.1330 0.1458
vn 0.9731 -0.1242 0.1940
vn -0.9797 0.1753 -0.0969
vn -0.9712 0.1131 0.2097
vn 0.9728 0.1098 0.2037
vn 0.0000 0.4418 0.8971
vn 0.0883 -0.0283 -0.9957
vn 0.9756 0.1909 -0.1082
vn -0.0052 0.7784 -0.6277
vn 0.0014 -0.7674 0.6412
vn 0.0000 0.0397 0.9992
vn 0.9595 0.0093 0.2814
vn -0.9571 0.0096 0.2895
vn 0.0000 -0.0240 -0.9997
vn 0.0219 -0.9800 -0.1977
vn -0.0493 0.9336 0.3550
vn 0.9775 0.1889 0.0944
vn -0.9784 0.1876 0.0863
vn 0.0000 0.0967 0.9953
vn 0.9641 0.0347 0.2633
vn -0.9620 0.0357 0.2709
vn 0.0000 -0.1662 -0.9861
usemtl None
s off
f 49//1 26//1 25//1 50//1
f 50//2 25//2 27//2 51//2
f 51//3 27//3 28//3 52//3
f 52//4 28//4 29//4 53//4
f 53//5 29//5 30//5 54//5
f 54//6 30//6 31//6 55//6
f 55//7 31//7 32//7 56//7
f 56//8 32//8 33//8 57//8
f 57//9 33//9 34//9 58//9
f 58//10 34//10 35//10 59//10
f 4//7 2//7 38//7 37//7
f 59//11 35//11 36//11 60//11
f 60//12 36//12 26//12 49//12
f 1//13 3//13 5//13 7//13 9//13 11//13 13//13 15//13 17//13 19//13 21//13 23//13
f 2//14 4//14 25//14 26//14
f 4//14 6//14 27//14 25//14
f 6//14 8//14 28//14 27//14
f 8//14 10//14 29//14 28//14
f 10//14 12//14 30//14 29//14
f 12//14 14//14 31//14 30//14
f 14//14 16//14 32//14 31//14
f 16//14 18//14 33//14 32//14
f 18//14 20//14 34//14 33//14
f 20//14 22//14 35//14 34//14
f 22//14 24//14 36//14 35//14
f 24//14 2//14 26//14 36//14
f 37//14 38//14 48//14 47//14 46//14 45//14 44//14 43//14 42//14 41//14 40//14 39//14
f 18//2 16//2 44//2 45//2
f 12//11 10//11 41//11 42//11
f 2//6 24//6 48//6 38//6
f 6//8 4//8 37//8 39//8
f 20//3 18//3 45//3 46//3
f 14//12 12//12 42//12 43//12
f 8//9 6//9 39//9 40//9
f 22//4 20//4 46//4 47//4
f 16//1 14//1 43//1 44//1
f 10//10 8//10 40//10 41//10
f 24//5 22//5 47//5 48//5
f 3//15 1//15 49//15 50//15
f 5//16 3//16 50//16 51//16
f 7//17 5//17 51//17 52//17
f 9//18 7//18 52//18 53//18
f 11//19 9//19 53//19 54//19
f 13//20 11//20 54//20 55//20
f 15//21 13//21 55//21 56//21
f 17//22 15//22 56//22 57//22
f 19//23 17//23 57//23 58//23
f 21//24 19//24 58//24 59//24
f 23//25 21//25 59//25 60//25
f 1//26 23//26 60//26 49//26
f 61//27 63//27 64//27 62//27
f 68//28 65//28 69//28 72//28
f 62//29 64//29 68//29 67//29
f 63//30 61//30 66//30 65//30
f 64//31 63//31 65//31 68//31
f 61//32 62//32 67//32 66//32
f 91//33 89//33 75//33 74//33
f 66//34 67//34 71//34 70//34
f 67//35 68//35 72//35 71//35
f 65//36 66//36 70//36 69//36
f 86//37 85//37 80//37 79//37
f 89//38 90//38 76//38 75//38
f 92//39 91//39 74//39 73//39
f 90//40 92//40 73//40 76//40
f 78//41 79//41 80//41 77//41
f 88//42 87//42 78//42 77//42
f 85//43 88//43 77//43 80//43
f 87//44 86//44 79//44 78//44
f 72//45 69//45 84//45 83//45
f 69//46 70//46 82//46 84//46
f 71//47 72//47 83//47 81//47
f 70//48 71//48 81//48 82//48
f 74//49 75//49 86//49 87//49
f 76//50 73//50 88//50 85//50
f 73//51 74//51 87//51 88//51
f 75//52 76//52 85//52 86//52
f 83//53 84//53 92//53 90//53
f 84//54 82//54 91//54 92//54
f 81//55 83//55 90//55 89//55
f 82//56 81//56 89//56 91//56
