# Blender v2.78 (sub 0) OBJ File: 'hammer.blend'
# www.blender.org
mtllib hammerx.mtl
o Cylinder.000_Cylinder.004
v -0.239832 3.250976 -0.478420
v -0.239832 3.250977 1.598910
v 0.059388 3.170800 -0.478420
v 0.059388 3.170801 1.598910
v 0.278432 2.951756 -0.478420
v 0.278432 2.951756 1.598910
v 0.358607 2.652536 -0.478420
v 0.358607 2.652536 1.598910
v 0.278432 2.353316 -0.478420
v 0.278432 2.353317 1.598910
v 0.059388 2.134272 -0.478420
v 0.059388 2.134273 1.598910
v -0.239832 2.054097 -0.478420
v -0.239832 2.054097 1.598910
v -0.539052 2.134273 -0.478420
v -0.539052 2.134274 1.598910
v -0.758096 2.353317 -0.478420
v -0.758096 2.353317 1.598910
v -0.838272 2.652537 -0.478420
v -0.838272 2.652537 1.598910
v -0.758096 2.951756 -0.478420
v -0.758096 2.951757 1.598910
v -0.539052 3.170800 -0.478420
v -0.539052 3.170801 1.598910
v -0.239832 3.474109 0.148054
v -0.239832 3.474109 0.969920
v 0.170954 3.364039 0.969920
v 0.170954 3.364039 0.148054
v 0.471670 3.063323 0.969920
v 0.471670 3.063322 0.148054
v 0.581740 2.652536 0.969920
v 0.581740 2.652536 0.148054
v 0.471670 2.241750 0.969920
v 0.471670 2.241750 0.148054
v 0.170954 1.941034 0.969920
v 0.170954 1.941033 0.148054
v -0.239832 1.830964 0.969920
v -0.239832 1.830964 0.148054
v -0.650618 1.941034 0.969920
v -0.650618 1.941034 0.148054
v -0.951335 2.241751 0.969920
v -0.951335 2.241751 0.148054
v -1.061405 2.652537 0.969920
v -1.061405 2.652537 0.148054
v -0.951335 3.063323 0.969920
v -0.951335 3.063323 0.148054
v -0.650619 3.364040 0.969920
v -0.650619 3.364039 0.148054
v -0.239832 3.318965 -0.441013
v 0.093382 3.229680 -0.441013
v 0.093382 3.229681 1.558987
v -0.239832 3.318966 1.558987
v 0.337312 2.985750 -0.441013
v 0.337312 2.985751 1.558987
v 0.426597 2.652536 -0.441013
v 0.426597 2.652536 1.558987
v 0.337312 2.319321 -0.441013
v 0.337312 2.319322 1.558987
v 0.093382 2.075392 -0.441013
v 0.093382 2.075392 1.558987
v -0.239832 1.986108 -0.441013
v -0.239832 1.986108 1.558987
v -0.573047 2.075392 -0.441013
v -0.573047 2.075393 1.558987
v -0.816976 2.319322 -0.441013
v -0.816976 2.319323 1.558987
v -0.906261 2.652537 -0.441013
v -0.906261 2.652537 1.558987
v -0.816977 2.985751 -0.441013
v -0.816977 2.985752 1.558987
v -0.573047 3.229681 -0.441013
v -0.573047 3.229681 1.558987
v -0.040352 2.506507 -0.478420
v -0.140092 2.878741 -0.478420
v -0.339572 2.426331 -0.478420
v -0.439312 2.798566 -0.478420
v -0.040352 2.798566 1.598910
v -0.140092 2.426332 1.598910
v -0.339572 2.878742 1.598910
v -0.439312 2.506508 1.598910
v -0.181934 3.602251 0.584516
v -0.277209 3.602598 0.610045
v -0.202455 3.602598 0.507930
v -0.297730 3.602598 0.533458
v -0.239832 3.471329 0.405814
v -0.237815 3.551460 0.443425
v -0.182890 3.548511 0.458150
v -0.163246 3.452265 0.426335
v -0.140972 3.551947 0.500056
v -0.107180 3.438217 0.482401
v -0.124751 3.551947 0.560593
v -0.086659 3.432197 0.558987
v -0.140100 3.548511 0.617844
v -0.107180 3.438217 0.635574
v -0.180304 3.551460 0.658058
v -0.163246 3.452265 0.691639
v -0.241849 3.551460 0.674549
v -0.239832 3.471329 0.712160
v -0.296774 3.548511 0.659825
v -0.316419 3.452265 0.691639
v -0.338693 3.551947 0.617918
v -0.372484 3.438217 0.635574
v -0.354914 3.551947 0.557382
v -0.393006 3.432197 0.558987
v -0.339564 3.548511 0.500130
v -0.372484 3.438217 0.482401
v -0.299360 3.551460 0.459916
v -0.316419 3.452265 0.426335
v -0.239832 0.117089 0.418779
v -0.163246 0.117089 0.439300
v -0.107180 0.117089 0.495366
v -0.086659 0.117089 0.571952
v -0.107180 0.117089 0.648539
v -0.163246 0.117089 0.704604
v -0.239832 0.117089 0.725126
v -0.316419 0.117089 0.704604
v -0.372484 0.117089 0.648539
v -0.393006 0.117089 0.571952
v -0.372484 0.117089 0.495366
v -0.316419 0.117089 0.439300
v -0.181934 0.063505 0.597481
v -0.277209 0.063506 0.623010
v -0.297730 0.063506 0.546423
v -0.202455 0.063505 0.520895
v -0.239832 1.834706 0.418779
v -0.163246 1.850358 0.439300
v -0.316419 1.850359 0.439300
v -0.107180 1.866011 0.495366
v -0.086659 1.873236 0.571952
v -0.107180 1.866011 0.648539
v -0.163246 1.850359 0.704604
v -0.239832 1.834706 0.725126
v -0.316419 1.850359 0.704604
v -0.372484 1.866012 0.648539
v -0.393006 1.872032 0.571952
v -0.372484 1.866012 0.495366
vt 0.1271 0.4772
vt 0.0002 0.4542
vt 0.0099 0.3819
vt 0.1316 0.3928
vt 0.0150 0.3102
vt 0.1331 0.3145
vt 0.0169 0.2394
vt 0.1328 0.2389
vt 0.0159 0.1695
vt 0.1308 0.1637
vt 0.0111 0.1004
vt 0.1263 0.0869
vt 0.0002 0.0330
vt 0.1176 0.0061
vt 0.5365 0.4772
vt 0.4096 0.4542
vt 0.4193 0.3819
vt 0.5409 0.3928
vt 0.4243 0.3102
vt 0.5424 0.3145
vt 0.4263 0.2394
vt 0.5422 0.2389
vt 0.4253 0.1695
vt 0.5402 0.1637
vt 0.3889 0.7276
vt 0.4399 0.7570
vt 0.4033 0.8205
vt 0.3523 0.7910
vt 0.4205 0.1004
vt 0.5356 0.0869
vt 0.4096 0.0330
vt 0.5270 0.0061
vt 0.3157 0.8544
vt 0.3667 0.8839
vt 0.3301 0.9473
vt 0.2791 0.9179
vt 0.8089 0.0956
vt 0.6872 0.0846
vt 0.6917 0.0002
vt 0.8185 0.0232
vt 0.8038 0.1672
vt 0.6857 0.1629
vt 0.8019 0.2380
vt 0.6859 0.2386
vt 0.8029 0.3080
vt 0.6879 0.3137
vt 0.8077 0.3771
vt 0.6925 0.3905
vt 0.8185 0.4444
vt 0.7011 0.4714
vt 0.3995 0.0956
vt 0.2778 0.0846
vt 0.2823 0.0002
vt 0.4092 0.0232
vt 0.3944 0.1672
vt 0.2763 0.1629
vt 0.3925 0.2380
vt 0.2765 0.2386
vt 0.3935 0.3080
vt 0.2785 0.3137
vt 0.3983 0.3771
vt 0.2831 0.3905
vt 0.4091 0.4444
vt 0.2917 0.4714
vt 0.0954 0.7421
vt 0.0443 0.7712
vt 0.0337 0.7606
vt 0.0915 0.7276
vt 0.2044 0.6830
vt 0.2335 0.6320
vt 0.2483 0.6358
vt 0.2153 0.6937
vt 0.1543 0.7423
vt 0.1581 0.7278
vt 0.2332 0.5731
vt 0.2480 0.5691
vt 0.2053 0.7716
vt 0.2158 0.7609
vt 0.2040 0.5220
vt 0.2148 0.5112
vt 0.2348 0.8224
vt 0.2492 0.8184
vt 0.1533 0.4924
vt 0.1572 0.4777
vt 0.2347 0.8810
vt 0.2492 0.8848
vt 0.0948 0.4924
vt 0.0907 0.4777
vt 0.2052 0.9316
vt 0.2158 0.9422
vt 0.0441 0.5219
vt 0.0332 0.5112
vt 0.1541 0.9606
vt 0.1580 0.9751
vt 0.0150 0.5729
vt 0.0002 0.5691
vt 0.0952 0.9604
vt 0.0914 0.9750
vt 0.0152 0.6318
vt 0.0004 0.6358
vt 0.0442 0.9311
vt 0.0336 0.9418
vt 0.0445 0.6828
vt 0.0338 0.6936
vt 0.0147 0.8804
vt 0.0002 0.8844
vt 0.0952 0.7124
vt 0.0913 0.7272
vt 0.0147 0.8218
vt 0.0002 0.8179
vt 0.1538 0.7124
vt 0.1578 0.7272
vt 0.2497 0.8669
vt 0.2497 0.8080
vt 0.2791 0.7570
vt 0.3301 0.7276
vt 0.4399 0.9179
vt 0.4693 0.8669
vt 0.3889 0.9473
vt 0.4693 0.8080
vt 0.3425 0.5735
vt 0.3131 0.6245
vt 0.2497 0.5879
vt 0.2791 0.5369
vt 0.4693 0.6467
vt 0.4399 0.6977
vt 0.3765 0.6611
vt 0.4059 0.6101
vt 0.3301 0.7272
vt 0.3889 0.7272
vt 0.2791 0.6977
vt 0.2497 0.6467
vt 0.3301 0.5075
vt 0.3889 0.5075
vt 0.4399 0.5369
vt 0.4693 0.5879
vt 0.4993 0.6196
vt 0.5110 0.6256
vt 0.5036 0.6393
vt 0.4921 0.6325
vt 0.4768 0.6258
vt 0.4868 0.6195
vt 0.4698 0.6373
vt 0.4843 0.6471
vt 0.4698 0.6498
vt 0.4769 0.6609
vt 0.4959 0.6539
vt 0.4886 0.6669
vt 0.5112 0.6606
vt 0.5011 0.6670
vt 0.5181 0.6492
vt 0.5181 0.6366
vt 0.5394 0.7912
vt 0.5198 0.8004
vt 0.5153 0.7822
vt 0.5228 0.7780
vt 0.5501 0.7737
vt 0.5271 0.7700
vt 0.5501 0.7545
vt 0.5269 0.7602
vt 0.5407 0.7379
vt 0.5228 0.7519
vt 0.5232 0.7276
vt 0.5153 0.7474
vt 0.5014 0.7290
vt 0.5058 0.7474
vt 0.4811 0.7379
vt 0.4978 0.7515
vt 0.4699 0.7557
vt 0.4933 0.7597
vt 0.4698 0.7754
vt 0.4931 0.7695
vt 0.4797 0.7925
vt 0.4977 0.7777
vt 0.4979 0.8024
vt 0.5056 0.7821
vt 0.5217 0.6756
vt 0.5102 0.6933
vt 0.4979 0.6864
vt 0.5080 0.6674
vt 0.5014 0.7084
vt 0.4914 0.7271
vt 0.4778 0.7191
vt 0.4891 0.7015
vt 0.4699 0.7054
vt 0.4698 0.6895
vt 0.4775 0.6756
vt 0.4916 0.6674
vt 0.5297 0.6896
vt 0.5296 0.7058
vt 0.5214 0.7193
vt 0.5075 0.7272
vt 0.9546 0.0002
vt 0.9546 0.3266
vt 0.9395 0.3296
vt 0.9395 0.0002
vt 0.8491 0.0002
vt 0.8491 0.3296
vt 0.8340 0.3325
vt 0.8340 0.0002
vt 0.8642 0.0002
vt 0.8642 0.3266
vt 0.8943 0.0002
vt 0.8943 0.3325
vt 0.8792 0.3296
vt 0.8792 0.0002
vt 0.9244 0.3325
vt 0.9244 0.0002
vt 0.9847 0.0002
vt 0.9847 0.3325
vt 0.9696 0.3296
vt 0.9696 0.0002
vt 0.9094 0.0002
vt 0.9094 0.3339
vt 0.9998 0.0002
vt 0.9998 0.3337
vt 0.8190 0.3337
vt 0.8190 0.0002
vn 0.0000 0.9920 0.1258
vn 0.0000 0.8178 0.5755
vn 0.4089 0.7082 0.5755
vn 0.4960 0.8591 0.1258
vn 0.7082 0.4089 0.5755
vn 0.8591 0.4960 0.1258
vn 0.8178 0.0000 0.5755
vn 0.9920 0.0000 0.1258
vn 0.7082 -0.4089 0.5755
vn 0.8591 -0.4960 0.1258
vn 0.4089 -0.7082 0.5755
vn 0.4960 -0.8591 0.1258
vn 0.0000 -0.8178 0.5755
vn 0.0000 -0.9920 0.1258
vn -0.4089 -0.7082 0.5755
vn -0.4960 -0.8591 0.1258
vn -0.7082 -0.4089 0.5755
vn -0.8591 -0.4960 0.1258
vn -0.8178 0.0000 0.5755
vn -0.9920 0.0000 0.1258
vn -0.7082 0.4089 0.5755
vn -0.8591 0.4960 0.1258
vn 0.1434 -0.2485 -0.9579
vn 0.0000 -0.2869 -0.9579
vn 0.0000 0.0000 -1.0000
vn -0.4089 0.7082 0.5755
vn -0.4960 0.8591 0.1258
vn -0.1434 0.2485 -0.9579
vn 0.0000 0.2869 -0.9579
vn -0.4053 0.7021 -0.5854
vn -0.4960 0.8591 -0.1258
vn 0.0000 0.9920 -0.1258
vn 0.0000 0.8107 -0.5854
vn -0.7021 0.4053 -0.5854
vn -0.8591 0.4960 -0.1258
vn -0.8107 0.0000 -0.5854
vn -0.9920 0.0000 -0.1258
vn -0.7021 -0.4053 -0.5854
vn -0.8591 -0.4960 -0.1258
vn -0.4053 -0.7021 -0.5854
vn -0.4960 -0.8591 -0.1258
vn 0.0000 -0.8107 -0.5854
vn 0.0000 -0.9920 -0.1258
vn 0.4053 -0.7021 -0.5854
vn 0.4960 -0.8591 -0.1258
vn 0.7021 -0.4053 -0.5854
vn 0.8591 -0.4960 -0.1258
vn 0.8107 0.0000 -0.5854
vn 0.9920 0.0000 -0.1258
vn 0.7021 0.4053 -0.5854
vn 0.8591 0.4960 -0.1258
vn 0.4053 0.7021 -0.5854
vn 0.4960 0.8591 -0.1258
vn 0.1434 0.2485 -0.9579
vn 0.0000 0.3021 0.9533
vn 0.1510 0.2616 0.9533
vn 0.2485 0.1434 -0.9579
vn 0.2616 0.1510 0.9533
vn 0.2869 0.0000 -0.9579
vn 0.3021 0.0000 0.9533
vn 0.2485 -0.1434 -0.9579
vn 0.2616 -0.1510 0.9533
vn 0.1510 -0.2616 0.9533
vn 0.0000 -0.3021 0.9533
vn -0.1434 -0.2485 -0.9579
vn -0.1510 -0.2616 0.9533
vn -0.2485 -0.1434 -0.9579
vn -0.2616 -0.1510 0.9533
vn -0.2869 0.0000 -0.9579
vn -0.3021 0.0000 0.9533
vn -0.2485 0.1434 -0.9579
vn -0.2616 0.1510 0.9533
vn -0.1510 0.2616 0.9533
vn 0.0000 0.0000 1.0000
vn 0.8385 0.5445 0.0231
vn 0.7184 0.5505 -0.4252
vn 0.2274 0.9061 -0.3566
vn 0.3757 0.9057 0.1963
vn 0.4430 0.5838 0.6803
vn 0.7563 0.5007 0.4209
vn -0.0189 0.5998 0.7999
vn -0.2263 0.9060 0.3576
vn -0.4492 0.5196 0.7267
vn -0.7184 0.5501 0.4257
vn -0.3750 0.9061 -0.1957
vn -0.8390 0.5437 -0.0228
vn -0.4430 0.5831 -0.6809
vn -0.7569 0.4995 -0.4213
vn 0.0193 0.5993 -0.8003
vn 0.4492 0.5196 -0.7267
vn 0.5324 0.3572 -0.7674
vn 0.0013 0.3948 -0.9187
vn 0.8398 0.3239 -0.4356
vn 0.9502 0.3116 0.0016
vn 0.8420 0.3198 0.4344
vn 0.5323 0.3582 0.7671
vn -0.0013 0.3948 0.9187
vn -0.5324 0.3572 0.7674
vn -0.8398 0.3239 0.4356
vn -0.9502 0.3116 -0.0016
vn -0.8420 0.3198 -0.4344
vn -0.5323 0.3582 -0.7671
vn 0.8759 -0.4820 0.0187
vn 0.2642 -0.9543 0.1400
vn 0.1588 -0.9543 -0.2533
vn 0.7492 -0.4820 -0.4541
vn -0.1588 -0.9543 0.2533
vn -0.7492 -0.4820 0.4541
vn -0.8759 -0.4820 -0.0187
vn -0.2642 -0.9543 -0.1400
vn -0.7699 -0.4579 -0.4445
vn -0.4487 -0.4908 -0.7468
vn 0.0152 -0.4908 -0.8711
vn 0.4445 -0.4579 -0.7699
vn 0.7699 -0.4579 0.4445
vn 0.4487 -0.4908 0.7468
vn -0.0152 -0.4908 0.8711
vn -0.4445 -0.4579 0.7699
vn 0.5285 0.0000 -0.8489
vn -0.5285 0.0000 0.8489
vn -0.8777 0.0000 0.4791
vn 0.8783 0.0000 0.4780
vn 0.5285 0.0000 0.8489
vn 0.8783 0.0000 -0.4780
vn -0.8777 0.0000 -0.4790
vn -0.5285 0.0000 -0.8489
vn 1.0000 0.0000 0.0000
vn -1.0000 0.0000 0.0000
usemtl Material.001
s 1
f 26/1/1 52/2/2 51/3/3 27/4/4
f 27/4/4 51/3/3 54/5/5 29/6/6
f 29/6/6 54/5/5 56/7/7 31/8/8
f 31/8/8 56/7/7 58/9/9 33/10/10
f 33/10/10 58/9/9 60/11/11 35/12/12
f 35/12/12 60/11/11 62/13/13 37/14/14
f 37/15/14 62/16/13 64/17/15 39/18/16
f 39/18/16 64/17/15 66/19/17 41/20/18
f 41/20/18 66/19/17 68/21/19 43/22/20
f 43/22/20 68/21/19 70/23/21 45/24/22
f 11/25/23 13/26/24 75/27/25 73/28/25
f 45/24/22 70/23/21 72/29/26 47/30/27
f 47/30/27 72/29/26 52/31/2 26/32/1
f 74/33/25 76/34/25 23/35/28 1/36/29
f 71/37/30 48/38/31 25/39/32 49/40/33
f 48/38/31 47/30/27 26/32/1 25/39/32
f 69/41/34 46/42/35 48/38/31 71/37/30
f 46/42/35 45/24/22 47/30/27 48/38/31
f 67/43/36 44/44/37 46/42/35 69/41/34
f 44/44/37 43/22/20 45/24/22 46/42/35
f 65/45/38 42/46/39 44/44/37 67/43/36
f 42/46/39 41/20/18 43/22/20 44/44/37
f 63/47/40 40/48/41 42/46/39 65/45/38
f 40/48/41 39/18/16 41/20/18 42/46/39
f 61/49/42 38/50/43 40/48/41 63/47/40
f 38/50/43 37/15/14 39/18/16 40/48/41
f 59/51/44 36/52/45 38/53/43 61/54/42
f 36/52/45 35/12/12 37/14/14 38/53/43
f 57/55/46 34/56/47 36/52/45 59/51/44
f 34/56/47 33/10/10 35/12/12 36/52/45
f 55/57/48 32/58/49 34/56/47 57/55/46
f 32/58/49 31/8/8 33/10/10 34/56/47
f 53/59/50 30/60/51 32/58/49 55/57/48
f 30/60/51 29/6/6 31/8/8 32/58/49
f 50/61/52 28/62/53 30/60/51 53/59/50
f 28/62/53 27/4/4 29/6/6 30/60/51
f 49/63/33 25/64/32 28/62/53 50/61/52
f 25/64/32 26/1/1 27/4/4 28/62/53
f 3/65/54 1/66/29 49/67/33 50/68/52
f 2/69/55 4/70/56 51/71/3 52/72/2
f 5/73/57 3/65/54 50/68/52 53/74/50
f 4/70/56 6/75/58 54/76/5 51/71/3
f 7/77/59 5/73/57 53/74/50 55/78/48
f 6/75/58 8/79/60 56/80/7 54/76/5
f 9/81/61 7/77/59 55/78/48 57/82/46
f 8/79/60 10/83/62 58/84/9 56/80/7
f 11/85/23 9/81/61 57/82/46 59/86/44
f 10/83/62 12/87/63 60/88/11 58/84/9
f 13/89/24 11/85/23 59/86/44 61/90/42
f 12/87/63 14/91/64 62/92/13 60/88/11
f 15/93/65 13/89/24 61/90/42 63/94/40
f 14/91/64 16/95/66 64/96/15 62/92/13
f 17/97/67 15/93/65 63/94/40 65/98/38
f 16/95/66 18/99/68 66/100/17 64/96/15
f 19/101/69 17/97/67 65/98/38 67/102/36
f 18/99/68 20/103/70 68/104/19 66/100/17
f 21/105/71 19/101/69 67/102/36 69/106/34
f 20/103/70 22/107/72 70/108/21 68/104/19
f 23/109/28 21/105/71 69/106/34 71/110/30
f 22/107/72 24/111/73 72/112/26 70/108/21
f 1/66/29 23/109/28 71/110/30 49/67/33
f 24/111/73 2/69/55 52/72/2 72/112/26
f 73/28/25 75/27/25 76/34/25 74/33/25
f 1/36/29 3/113/54 5/114/57 74/33/25
f 5/114/57 7/115/59 73/28/25 74/33/25
f 7/115/59 9/116/61 11/25/23 73/28/25
f 19/117/69 76/34/25 75/27/25 17/118/67
f 21/119/71 23/35/28 76/34/25 19/117/69
f 13/26/24 15/120/65 17/118/67 75/27/25
f 78/121/74 80/122/74 16/123/66 14/124/64
f 4/125/56 2/126/55 79/127/74 77/128/74
f 77/128/74 79/127/74 80/122/74 78/121/74
f 22/129/72 79/127/74 2/126/55 24/130/73
f 20/131/70 80/122/74 79/127/74 22/129/72
f 16/123/66 80/122/74 20/131/70 18/132/68
f 12/133/63 10/134/62 78/121/74 14/124/64
f 10/134/62 8/135/60 77/128/74 78/121/74
f 4/125/56 77/128/74 8/135/60 6/136/58
f 91/137/75 89/138/76 83/139/77 81/140/78
f 91/137/75 81/140/78 95/141/79 93/142/80
f 97/143/81 95/141/79 81/140/78 82/144/82
f 99/145/83 97/143/81 82/144/82 101/146/84
f 82/144/82 84/147/85 103/148/86 101/146/84
f 103/148/86 84/147/85 107/149/87 105/150/88
f 107/149/87 84/147/85 83/139/77 86/151/89
f 81/140/78 83/139/77 84/147/85 82/144/82
f 86/151/89 83/139/77 89/138/76 87/152/90
f 88/153/91 85/154/92 86/155/89 87/156/90
f 90/157/93 88/153/91 87/156/90 89/158/76
f 92/159/94 90/157/93 89/158/76 91/160/75
f 94/161/95 92/159/94 91/160/75 93/162/80
f 96/163/96 94/161/95 93/162/80 95/164/79
f 98/165/97 96/163/96 95/164/79 97/166/81
f 100/167/98 98/165/97 97/166/81 99/168/83
f 102/169/99 100/167/98 99/168/83 101/170/84
f 104/171/100 102/169/99 101/170/84 103/172/86
f 106/173/101 104/171/100 103/172/86 105/174/88
f 108/175/102 106/173/101 105/174/88 107/176/87
f 85/154/92 108/175/102 107/176/87 86/155/89
f 112/177/103 121/178/104 124/179/105 111/180/106
f 122/181/107 117/182/108 118/183/109 123/184/110
f 121/178/104 122/181/107 123/184/110 124/179/105
f 118/183/109 119/185/111 120/186/112 123/184/110
f 109/187/113 124/179/105 123/184/110 120/186/112
f 110/188/114 111/180/106 124/179/105 109/187/113
f 112/177/103 113/189/115 114/190/116 121/178/104
f 115/191/117 122/181/107 121/178/104 114/190/116
f 116/192/118 117/182/108 122/181/107 115/191/117
f 109/193/113 125/194/25 126/195/119 110/196/114
f 116/197/118 133/198/120 134/199/121 117/200/108
f 115/201/117 132/202/74 133/198/120 116/197/118
f 113/203/115 130/204/122 131/205/123 114/206/116
f 110/196/114 126/195/119 128/207/124 111/208/106
f 119/209/111 136/210/125 127/211/126 120/212/112
f 112/213/103 129/214/127 130/204/122 113/203/115
f 118/215/109 135/216/128 136/210/125 119/209/111
f 117/200/108 134/199/121 135/217/128 118/218/109
f 114/206/116 131/205/123 132/202/74 115/201/117
f 111/208/106 128/207/124 129/214/127 112/213/103
f 120/212/112 127/211/126 125/194/25 109/193/113
