# Blender v2.78 (sub 0) OBJ File: 'mailbox.blend'
# www.blender.org
mtllib mailbowx.mtl
o Cube_Cube.001
v -0.344426 2.030407 0.665646
v -0.344426 2.419578 0.665646
v -0.344426 2.030407 -0.692073
v -0.293229 2.484690 -0.692073
v 0.361162 2.030407 0.665646
v 0.361162 2.419578 0.665646
v 0.361162 2.030407 -0.692073
v 0.309965 2.484690 -0.692073
v -0.287635 2.611706 0.665646
v -0.246591 2.546592 -0.691424
v 0.263161 2.546594 -0.692073
v 0.304371 2.611706 0.665646
v -0.073132 2.721060 0.665646
v -0.073132 2.721060 -0.692073
v 0.089869 2.721060 -0.692073
v 0.089869 2.721060 0.665646
v -0.344426 2.419578 -0.692073
v 0.361162 2.419578 -0.692073
v -0.287635 2.611706 -0.692073
v 0.304371 2.611706 -0.692073
v -0.282309 2.482254 -0.702250
v 0.298879 2.482257 -0.702899
vt 0.6667 0.0000
vt 0.6667 0.2808
vt 0.3333 0.2808
vt 0.3333 0.0000
vt 0.6667 1.0000
vt 0.6667 0.7183
vt 1.0000 0.7183
vt 1.0000 1.0000
vt 0.0000 0.5071
vt 0.0000 0.2263
vt 0.3333 0.2263
vt 0.3333 0.5071
vt 0.6667 0.5000
vt 0.6667 0.2183
vt 1.0000 0.2183
vt 1.0000 0.5000
vt 0.0000 0.7889
vt 0.3333 0.7889
vt 0.7130 0.6263
vt 0.9537 0.6263
vt 0.9706 0.6729
vt 0.6961 0.6729
vt 0.3333 0.0858
vt 0.0000 0.0858
vt 0.0000 0.0000
vt 0.3333 0.0000
vt 0.6667 0.4213
vt 0.3333 0.4213
vt 0.6935 0.0792
vt 0.9732 0.0792
vt 0.4103 0.7889
vt 0.3333 0.7889
vt 0.3333 0.5071
vt 0.4103 0.5071
vt 0.6667 0.5071
vt 0.3333 0.5071
vt 0.7948 0.0000
vt 0.8718 0.0000
vt 0.9732 0.5792
vt 0.6935 0.5792
vt 0.7948 0.5000
vt 0.8718 0.5000
vt 0.6909 0.6711
vt 0.9758 0.6711
vn -1.0000 0.0000 0.0000
vn 0.0000 0.0000 -1.0000
vn 1.0000 0.0000 0.0000
vn 0.0000 0.0000 1.0000
vn 0.0000 -1.0000 0.0000
vn -0.0012 0.1659 -0.9861
vn 0.4542 0.8909 0.0000
vn 0.9590 0.2835 0.0000
vn -0.9590 0.2835 0.0000
vn 0.0000 1.0000 0.0000
vn -0.4542 0.8909 0.0000
vn -0.0006 -0.0050 -1.0000
vn 0.0070 -0.0003 -1.0000
vn -0.5620 0.4308 -0.7061
vn 0.5776 0.4367 -0.6897
vn 0.0001 -0.9742 0.2259
usemtl Material.001
s off
f 1/1/1 2/2/1 17/3/1 3/4/1
f 3/5/2 17/6/2 18/7/2 7/8/2
f 7/9/3 18/10/3 6/11/3 5/12/3
f 5/13/4 6/14/4 2/15/4 1/16/4
f 3/17/5 7/9/5 5/12/5 1/18/5
f 10/19/6 11/20/6 22/21/6 21/22/6
f 12/23/7 20/24/7 15/25/7 16/26/7
f 6/11/8 18/10/8 20/24/8 12/23/8
f 17/3/9 2/2/9 9/27/9 19/28/9
f 2/15/4 6/14/4 12/29/4 9/30/4
f 15/31/10 14/32/10 13/33/10 16/34/10
f 19/28/11 9/27/11 13/35/11 14/36/11
f 9/30/4 12/29/4 16/37/4 13/38/4
f 20/39/2 19/40/2 14/41/2 15/42/2
f 4/43/2 8/44/2 18/7/2 17/6/2
f 11/20/12 10/19/12 19/40/12 20/39/12
f 10/19/13 4/43/13 17/6/13 19/40/13
f 8/44/2 11/20/2 20/39/2 18/7/2
f 10/19/14 21/22/14 4/43/14
f 8/44/15 22/21/15 11/20/15
f 8/44/16 4/43/16 21/22/16 22/21/16
