# Blender v2.78 (sub 0) OBJ File: 'untitltted.blend'
# www.blender.org
mtllib platforma.mtl
o Cylinder.012
v 1.073361 0.805764 -3.042140
v 1.073361 0.908538 -2.913499
v 1.492553 0.805764 -2.929818
v 1.428233 0.908538 -2.818412
v 1.799423 0.805764 -2.622948
v 1.688017 0.908538 -2.558628
v 1.911746 0.805764 -2.203756
v 1.783105 0.908538 -2.203756
v 1.799423 0.805764 -1.784564
v 1.688017 0.908538 -1.848884
v 1.492554 0.805764 -1.477694
v 1.428233 0.908538 -1.589100
v 1.073362 0.805764 -1.365372
v 1.073362 0.908538 -1.494012
v 0.654169 0.805764 -1.477694
v 0.718490 0.908538 -1.589100
v 0.347300 0.805764 -1.784564
v 0.458705 0.908538 -1.848884
v 0.234977 0.805764 -2.203755
v 0.363618 0.908538 -2.203756
v 0.347299 0.805764 -2.622947
v 0.458705 0.908538 -2.558627
v 0.654169 0.805764 -2.929818
v 0.718489 0.908538 -2.818412
v 1.492553 0.908538 -2.929818
v 1.073361 0.908538 -3.042140
v 1.799423 0.908538 -2.622948
v 1.911746 0.908538 -2.203756
v 1.799423 0.908538 -1.784564
v 1.492554 0.908538 -1.477694
v 1.073362 0.908538 -1.365372
v 0.654169 0.908538 -1.477694
v 0.347300 0.908538 -1.784564
v 0.234977 0.908538 -2.203755
v 0.347299 0.908538 -2.622947
v 0.654169 0.908538 -2.929818
vt 0.8790 0.9627
vt 0.8790 0.4817
vt 0.7587 0.4817
vt 0.7587 0.9627
vt 0.6707 0.4817
vt 0.6707 0.9627
vt 0.4297 0.9627
vt 0.4297 0.4817
vt 0.5499 0.4817
vt 0.5499 0.9627
vt 0.6702 0.4817
vt 0.6702 0.9627
vt 0.4297 0.4812
vt 0.4297 0.0003
vt 0.5177 0.0003
vt 0.5177 0.4812
vt 0.6380 0.0003
vt 0.6380 0.4812
vt 0.7582 0.0003
vt 0.7582 0.4812
vt 0.3293 0.9106
vt 0.3293 0.4297
vt 0.4173 0.4297
vt 0.4173 0.9106
vt 0.3288 0.9106
vt 0.3288 0.4297
vt 0.2085 0.4297
vt 0.2085 0.9106
vt 0.0883 0.4297
vt 0.0883 0.9106
vt 0.0003 0.4297
vt 0.0003 0.9106
vt 0.9997 0.9627
vt 0.9997 0.4817
vt 0.8795 0.4817
vt 0.8795 0.9627
vt 0.9389 0.1152
vt 0.9389 0.0098
vt 0.9745 0.0003
vt 0.9745 0.1247
vt 0.0530 0.3408
vt 0.1442 0.3935
vt 0.1347 0.4292
vt 0.0269 0.3669
vt 0.2496 0.3935
vt 0.2591 0.4292
vt 0.3408 0.3408
vt 0.3669 0.3669
vt 0.3935 0.2496
vt 0.4292 0.2591
vt 0.3935 0.1442
vt 0.4292 0.1347
vt 0.3408 0.0530
vt 0.3669 0.0269
vt 0.9383 0.0359
vt 0.8471 0.0886
vt 0.8210 0.0625
vt 0.9288 0.0003
vt 0.7944 0.1799
vt 0.7587 0.1703
vt 0.7944 0.2852
vt 0.7587 0.2948
vt 0.8471 0.3765
vt 0.8210 0.4026
vt 0.9383 0.4292
vt 0.9288 0.4648
vt 0.0003 0.2496
vt 0.0003 0.1442
vt 0.0530 0.0530
vt 0.1442 0.0003
vt 0.2496 0.0003
vn 0.0000 0.0000 -1.0000
vn 0.0000 0.6532 -0.7571
vn 0.3786 0.6532 -0.6557
vn 0.5000 0.0000 -0.8660
vn 0.6557 0.6532 -0.3786
vn 0.8660 0.0000 -0.5000
vn 0.7571 0.6532 0.0000
vn 1.0000 0.0000 0.0000
vn 0.6557 0.6532 0.3786
vn 0.8660 0.0000 0.5000
vn 0.3786 0.6532 0.6557
vn 0.5000 0.0000 0.8660
vn 0.0000 0.6532 0.7571
vn 0.0000 0.0000 1.0000
vn -0.3786 0.6532 0.6557
vn -0.5000 0.0000 0.8660
vn -0.6557 0.6532 0.3786
vn -0.8660 0.0000 0.5000
vn -0.7571 0.6532 0.0000
vn -1.0000 0.0000 0.0000
vn -0.6557 0.6532 -0.3786
vn -0.8660 0.0000 -0.5000
vn -0.3786 0.6532 -0.6557
vn -0.5000 0.0000 -0.8660
vn 0.0000 1.0000 0.0000
usemtl None
s 1
f 1/1/1 26/2/2 25/3/3 3/4/4
f 3/4/4 25/3/3 27/5/5 5/6/6
f 5/7/6 27/8/5 28/9/7 7/10/8
f 7/10/8 28/9/7 29/11/9 9/12/10
f 9/13/10 29/14/9 30/15/11 11/16/12
f 11/16/12 30/15/11 31/17/13 13/18/14
f 13/18/14 31/17/13 32/19/15 15/20/16
f 15/21/16 32/22/15 33/23/17 17/24/18
f 17/25/18 33/26/17 34/27/19 19/28/20
f 19/28/20 34/27/19 35/29/21 21/30/22
f 21/30/22 35/29/21 36/31/23 23/32/24
f 23/33/24 36/34/23 26/35/2 1/36/1
f 2/37/25 4/38/25 25/39/3 26/40/2
f 4/41/25 6/42/25 27/43/5 25/44/3
f 6/42/25 8/45/25 28/46/7 27/43/5
f 8/45/25 10/47/25 29/48/9 28/46/7
f 10/47/25 12/49/25 30/50/11 29/48/9
f 12/49/25 14/51/25 31/52/13 30/50/11
f 14/51/25 16/53/25 32/54/15 31/52/13
f 16/55/25 18/56/25 33/57/17 32/58/15
f 18/56/25 20/59/25 34/60/19 33/57/17
f 20/59/25 22/61/25 35/62/21 34/60/19
f 22/61/25 24/63/25 36/64/23 35/62/21
f 24/63/25 2/65/25 26/66/2 36/64/23
f 4/41/25 2/67/25 24/68/25 22/69/25 20/70/25 18/71/25 16/53/25 14/51/25 12/49/25 10/47/25 8/45/25 6/42/25
