# Blender v2.78 (sub 0) OBJ File: 'rock.blend'
# www.blender.org
mtllib rock.mtl
o Cube_Cube.001
v -0.845761 0.014967 -1.000000
v -0.529199 1.116039 -0.119339
v 1.000000 0.014967 -1.000000
v 0.529199 1.116039 -0.119339
v -1.944829 0.014967 2.140548
v -1.305782 1.137347 1.737452
v 1.661582 0.867560 2.033382
v 1.753010 0.014967 2.179492
v 0.456477 0.014967 -1.586777
v -0.333333 0.014967 -1.181651
v -0.176400 1.549582 -0.357935
v 0.176400 1.549582 -0.357935
v -0.757881 -0.009532 2.820789
v 0.553861 0.014967 3.175535
v 0.553860 1.511516 2.388898
v -0.273045 1.511516 1.865753
v -0.764599 0.565503 -0.559670
v 0.764599 0.565503 -0.559670
v -1.661582 0.441264 1.922928
v 1.710407 0.441264 2.179492
v 1.050867 0.631918 2.756860
v -0.232211 0.979231 2.410592
v -0.254866 0.782275 -1.157931
v 0.254866 0.782275 -1.157931
v -2.317129 0.014967 1.273637
v -2.332967 0.014967 0.492412
v -1.716538 1.139265 1.530770
v -1.340795 1.132894 0.550857
v 2.388972 0.014967 1.524018
v 2.175576 0.014967 0.492412
v 1.690384 1.348058 1.569475
v 0.942717 1.613019 0.557527
v -0.715573 0.014967 0.492412
v -0.780485 0.014967 1.524018
v 0.801067 0.014967 1.524018
v 0.730002 0.014967 0.492412
v 0.530871 2.004174 0.530646
v 0.703063 1.945437 1.566449
v -0.353028 2.037456 1.153372
v -0.613988 2.165700 0.541108
v -1.765416 0.575176 0.512162
v -2.139084 0.499757 1.532620
v 1.836162 0.880186 0.532303
v 2.210418 0.759099 1.526046
vt 0.0004 0.8639
vt 0.0054 0.9347
vt 0.0909 0.9923
vt 0.0909 0.8319
vt 0.3627 0.6486
vt 0.2653 0.5470
vt 0.3203 0.5167
vt 0.3902 0.5726
vt 0.7192 0.4029
vt 0.7192 0.2021
vt 0.5095 0.2335
vt 0.5545 0.4000
vt 0.9363 0.2302
vt 0.9991 0.2283
vt 0.9991 0.3550
vt 0.9533 0.3354
vt 0.7192 0.0004
vt 0.6360 0.0812
vt 0.8341 0.5513
vt 0.9366 0.4037
vt 0.9441 0.4616
vt 0.9161 0.5908
vt 0.5771 0.6235
vt 0.5095 0.6196
vt 0.5545 0.4875
vt 0.6421 0.4407
vt 0.4602 0.6285
vt 0.3503 0.4339
vt 0.4602 0.4390
vt 0.8068 0.8071
vt 0.8068 0.9324
vt 0.7023 0.9511
vt 0.7478 0.8105
vt 0.8821 0.2274
vt 0.8821 0.0297
vt 0.7200 0.0004
vt 0.7810 0.1631
vt 0.7200 0.3081
vt 0.7551 0.3756
vt 0.8372 0.3750
vt 0.8372 0.2283
vt 0.2653 0.2372
vt 0.2659 0.1924
vt 0.3809 0.1386
vt 0.3774 0.2839
vt 0.0545 0.5792
vt 0.1087 0.5854
vt 0.1905 0.7261
vt 0.0788 0.6630
vt 0.1905 0.8311
vt 0.1229 0.8259
vt 0.3965 0.7786
vt 0.4021 0.7038
vt 0.4610 0.7649
vt 0.4795 0.8190
vt 0.9153 0.7899
vt 0.9769 0.8228
vt 0.9769 0.7127
vt 0.9227 0.7403
vt 0.8393 0.6952
vt 0.9441 0.7119
vt 0.2624 0.5763
vt 0.1913 0.5738
vt 0.1925 0.7099
vt 0.2624 0.7658
vt 0.0519 0.2544
vt 0.0004 0.3547
vt 0.2645 0.3894
vt 0.2645 0.2058
vt 0.0917 0.8677
vt 0.1034 0.9564
vt 0.1642 0.9727
vt 0.1642 0.8319
vt 0.2653 0.8740
vt 0.3669 0.8839
vt 0.3669 0.9287
vt 0.2653 0.9387
vt 0.9355 0.2933
vt 0.8380 0.3033
vt 0.8380 0.3680
vt 0.9355 0.3936
vt 0.9355 0.2283
vt 0.8656 0.2386
vt 0.7014 0.7210
vt 0.6243 0.7856
vt 0.7014 0.5544
vt 0.0004 0.5738
vt 0.0004 0.7261
vt 0.2626 0.7666
vt 0.1913 0.8199
vt 0.1924 0.9230
vt 0.2626 0.8937
vt 0.0749 0.4237
vt 0.2645 0.5730
vt 0.6955 0.4037
vt 0.3963 0.8731
vt 0.4795 0.8731
vt 0.4602 0.7030
vt 0.9996 0.4323
vt 0.9996 0.5296
vt 0.9449 0.5024
vt 0.9559 0.4037
vt 0.8341 0.7901
vt 0.8349 0.9146
vt 0.9057 0.9195
vt 0.2653 0.8731
vt 0.2703 0.7633
vt 0.7023 0.5956
vt 0.7023 0.7791
vt 0.8333 0.8062
vt 0.8333 0.6046
vt 0.3835 0.0463
vt 0.5086 0.0004
vt 0.4582 0.1728
vt 0.4964 0.9048
vt 0.7014 0.9177
vt 0.7014 0.7864
vt 0.5047 0.8059
vt 0.7023 0.4120
vt 0.8333 0.4037
vt 0.3801 0.3363
vt 0.5086 0.3077
vt 0.5072 0.4331
vt 0.9769 0.9220
vt 0.9761 0.1602
vt 0.9197 0.1950
vt 0.8829 0.0653
vt 0.9761 0.0004
vt 0.0749 0.1893
vt 0.2645 0.0004
vn -0.6504 0.3662 -0.6655
vn 0.7613 0.5312 -0.3718
vn 0.0094 -0.9999 -0.0076
vn 0.6755 0.4346 -0.5956
vn 0.0000 -1.0000 0.0000
vn -0.3274 0.7333 0.5960
vn -0.3875 0.5425 0.7454
vn 0.6384 0.4668 -0.6120
vn 0.4926 0.6757 0.5485
vn -0.0055 -0.9999 -0.0103
vn 0.4367 0.6205 -0.6514
vn 0.0888 0.8563 -0.5088
vn 0.5769 0.4965 0.6487
vn -0.2777 0.4448 0.8515
vn 0.6570 0.4307 0.6187
vn -0.7642 0.3627 0.5334
vn -0.2134 0.8326 0.5111
vn -0.5848 0.5775 -0.5696
vn -0.7613 0.5312 -0.3718
vn 0.0000 0.7217 -0.6922
vn -0.2882 0.2495 -0.9245
vn -0.6161 0.3270 -0.7166
vn -0.1588 0.5309 0.8324
vn 0.6473 0.0238 0.7618
vn -0.5570 0.5861 -0.5884
vn -0.4270 0.5593 0.7105
vn 0.7314 0.1370 0.6680
vn 0.6716 0.5501 -0.4963
vn -0.4935 0.3962 0.7743
vn -0.7812 0.5612 -0.2733
vn 0.9201 0.3026 -0.2489
vn -0.6778 0.7352 0.0074
vn 0.5740 0.8085 -0.1300
vn 0.0984 0.9914 0.0866
vn -0.7900 0.5988 -0.1318
vn 0.6586 0.7163 -0.2305
usemtl Material.001
s off
f 11/1/1 2/2/1 28/3/1 40/4/1
f 24/5/2 12/6/2 4/7/2 18/8/2
f 34/9/3 35/10/3 14/11/3 13/12/3
f 4/13/4 12/14/4 37/15/4 32/16/4
f 35/10/5 29/17/5 8/18/5 14/11/5
f 39/19/6 27/20/6 6/21/6 16/22/6
f 22/23/7 16/24/7 6/25/7 19/26/7
f 3/27/8 18/8/8 43/28/8 30/29/8
f 31/30/9 38/31/9 15/32/9 7/33/9
f 25/34/10 34/35/10 13/36/10 5/37/10
f 18/38/11 4/39/11 32/40/11 43/41/11
f 12/42/12 11/43/12 40/44/12 37/45/12
f 20/46/13 7/47/13 15/48/13 21/49/13
f 21/49/14 15/48/14 16/50/14 22/51/14
f 44/52/15 31/53/15 7/54/15 20/55/15
f 42/56/16 25/57/16 5/58/16 19/59/16
f 38/60/17 39/19/17 16/22/17 15/61/17
f 26/62/18 41/63/18 17/64/18 1/65/18
f 10/66/5 9/67/5 36/68/5 33/69/5
f 17/70/19 2/71/19 11/72/19 23/73/19
f 23/74/20 11/75/20 12/76/20 24/77/20
f 10/78/21 23/79/21 24/80/21 9/81/21
f 1/82/22 17/83/22 23/79/22 10/78/22
f 14/84/23 21/85/23 22/23/23 13/86/23
f 8/87/24 20/46/24 21/49/24 14/88/24
f 41/89/25 28/90/25 2/91/25 17/92/25
f 9/67/5 3/93/5 30/94/5 36/68/5
f 13/86/26 22/23/26 19/26/26 5/95/26
f 29/96/27 44/52/27 20/55/27 8/97/27
f 9/98/28 24/5/28 18/8/28 3/27/28
f 27/99/29 42/100/29 19/101/29 6/102/29
f 42/56/30 27/103/30 28/104/30 41/105/30
f 44/52/31 29/96/31 30/106/31 43/107/31
f 36/108/5 30/109/5 29/110/5 35/111/5
f 40/44/32 28/112/32 27/113/32 39/114/32
f 26/115/5 33/116/5 34/117/5 25/118/5
f 33/119/5 36/108/5 35/111/5 34/120/5
f 32/121/33 37/45/33 38/122/33 31/123/33
f 37/45/34 40/44/34 39/114/34 38/122/34
f 25/57/35 42/56/35 41/105/35 26/124/35
f 31/125/36 44/126/36 43/127/36 32/128/36
f 1/129/5 10/66/5 33/69/5 26/130/5
