# Blender v2.78 (sub 0) OBJ File: 'shild.blend'
# www.blender.org
mtllib shild.mtl
o Plane
v 1.167625 0.000000 1.180618
v 0.561780 0.000000 -1.000000
v 1.073395 0.000000 1.107746
v 0.490322 0.000000 -0.930952
v 0.513449 0.032535 -0.988730
v 1.102221 0.031219 1.132567
v 0.001365 0.138345 1.290015
v 1.168991 0.031219 1.180117
v 0.563145 0.031219 -1.000501
v 0.001365 0.066193 -1.346555
v 0.001365 0.075272 -1.246745
v 0.001365 0.138345 1.213849
v 0.142198 0.094080 1.277131
v 0.069781 0.061933 -1.304412
v 0.068416 0.030715 -1.303911
v 0.130722 0.094080 1.179129
v 0.059713 0.038688 -1.174892
v 0.143563 0.125299 1.276631
v 0.135432 0.125299 1.203951
v 0.063729 0.070067 -1.215323
v 1.000193 0.000000 0.663545
v 1.095429 0.000000 0.701119
v 1.096794 0.031219 0.700619
v 1.036931 0.031697 0.671979
v 0.071102 0.094080 0.715566
v 0.965740 0.000000 0.454480
v 1.061449 0.000000 0.475441
v 1.062814 0.031219 0.474941
v 1.006202 0.031922 0.455201
v 0.066906 0.094080 0.497388
v 0.074903 -0.229118 0.697619
v 0.046072 -0.214543 0.497725
v 0.045531 -0.264716 0.694638
v 0.037603 -0.266348 0.497791
v 0.021965 -0.227553 0.143065
v 0.026284 -0.270124 0.143131
v 0.920228 0.000000 -0.241554
v 0.985689 0.000000 -0.027721
v 0.823613 0.000000 -0.217700
v 0.890147 0.000000 -0.004228
v 0.873198 0.032535 -0.237533
v 0.938320 0.032420 -0.023668
v 0.921593 0.031219 -0.242054
v 0.987055 0.031219 -0.028221
v 0.098888 0.094080 0.014510
v 0.101690 0.088705 -0.200615
v -1.167625 0.000000 1.180618
v -0.561780 0.000000 -1.000000
v 0.000000 0.107126 1.290515
v 0.000000 0.034974 -1.346055
v -1.073395 0.000000 1.107746
v -0.490322 0.000000 -0.930952
v 0.000000 0.107126 1.189028
v 0.000000 0.044053 -1.208720
v -0.513449 0.032535 -0.988730
v -1.102221 0.031219 1.132567
v -0.001365 0.138345 1.290015
v -1.168991 0.031219 1.180117
v -0.563145 0.031219 -1.000501
v -0.001365 0.066193 -1.346555
v -0.001365 0.075272 -1.246745
v -0.001365 0.138345 1.213849
v -0.142198 0.094080 1.277131
v -0.069781 0.061933 -1.304412
v -0.068416 0.030715 -1.303911
v -0.130722 0.094080 1.179129
v -0.059713 0.038688 -1.174892
v -0.143563 0.125299 1.276631
v -0.135432 0.125299 1.203951
v -0.063729 0.070067 -1.215323
v -1.000193 0.000000 0.663545
v -1.095429 0.000000 0.701119
v -1.096794 0.031219 0.700619
v -1.036931 0.031697 0.671979
v 0.000000 0.107126 0.729903
v -0.071102 0.094080 0.715566
v -0.965740 0.000000 0.454480
v -1.061449 0.000000 0.475441
v -1.062814 0.031219 0.474941
v -1.006202 0.031922 0.455201
v 0.000000 0.107126 0.503338
v -0.066906 0.094080 0.497388
v -0.074903 -0.229118 0.697619
v 0.000000 -0.216072 0.723117
v 0.000000 -0.207269 0.503675
v -0.046072 -0.214543 0.497725
v -0.045531 -0.264716 0.694638
v 0.000000 -0.279024 0.708113
v 0.000000 -0.279024 0.503741
v -0.037603 -0.266348 0.497791
v -0.021965 -0.227553 0.143065
v 0.000000 -0.214507 0.149015
v -0.026284 -0.270124 0.143131
v 0.000000 -0.277459 0.149081
v 0.000000 0.107126 0.016856
v 0.000000 0.101199 -0.198208
v -0.920228 0.000000 -0.241554
v -0.985689 0.000000 -0.027721
v -0.823613 0.000000 -0.217700
v -0.890147 0.000000 -0.004228
v -0.873198 0.032535 -0.237533
v -0.938320 0.032420 -0.023668
v -0.921593 0.031219 -0.242054
v -0.987055 0.031219 -0.028221
v -0.098888 0.094080 0.014510
v -0.101690 0.088705 -0.200615
vn -0.5729 0.8149 0.0881
vn 0.0184 0.9998 -0.0022
vn -0.9991 0.0417 -0.0032
vn 0.1105 0.9939 -0.0051
vn 0.9878 -0.0456 -0.1487
vn 0.5225 -0.0365 -0.8519
vn 0.0936 0.9956 -0.0051
vn 0.0949 0.9947 -0.0407
vn 0.0038 1.0000 -0.0000
vn 0.1206 0.9911 -0.0562
vn 0.0028 0.6222 -0.7829
vn -0.7167 0.6887 0.1101
vn -0.1926 0.8459 0.4973
vn 0.0948 0.0118 0.9954
vn -0.2508 0.7650 0.5932
vn 0.0027 0.6215 -0.7834
vn 0.1201 0.9890 -0.0863
vn 0.0892 0.9945 -0.0556
vn 0.9031 -0.0463 -0.4268
vn 0.1557 0.9878 0.0051
vn 0.1272 0.9918 -0.0082
vn -0.6398 0.7622 0.0983
vn 0.0106 0.9999 -0.0010
vn 0.0991 0.9950 -0.0145
vn 0.0249 0.9996 -0.0118
vn -0.4967 0.8355 0.2351
vn 0.1019 0.9948 -0.0092
vn -0.9145 0.3927 0.0975
vn -0.9965 0.0246 0.0796
vn 0.1043 -0.0024 0.9945
vn -0.2571 0.0354 -0.9657
vn -0.3083 0.9513 0.0022
vn -0.3000 0.2571 -0.9187
vn 0.1855 0.9826 -0.0018
vn 0.2407 0.0111 0.9705
vn -0.2986 0.9544 0.0018
vn -0.2801 -0.9593 0.0369
vn -0.9978 0.0440 0.0488
vn 0.9552 -0.0465 -0.2924
vn 0.1257 0.9917 -0.0252
vn 0.0252 0.9997 -0.0074
vn -0.5027 0.8504 0.1551
vn 0.1192 0.9924 -0.0302
vn 0.1206 0.9911 -0.0561
vn 0.5729 0.8149 0.0881
vn -0.0184 0.9998 -0.0022
vn 0.9991 0.0417 -0.0032
vn -0.1105 0.9939 -0.0051
vn -0.9878 -0.0456 -0.1487
vn -0.5225 -0.0365 -0.8519
vn -0.0936 0.9956 -0.0051
vn -0.0949 0.9947 -0.0407
vn -0.0038 1.0000 -0.0000
vn -0.1206 0.9911 -0.0562
vn -0.0028 0.6222 -0.7829
vn 0.7167 0.6887 0.1101
vn 0.1926 0.8459 0.4973
vn -0.0948 0.0118 0.9954
vn 0.2508 0.7650 0.5932
vn -0.0027 0.6215 -0.7834
vn -0.1201 0.9890 -0.0863
vn -0.0892 0.9945 -0.0556
vn -0.9031 -0.0463 -0.4268
vn -0.1557 0.9878 0.0051
vn -0.1272 0.9918 -0.0082
vn 0.6398 0.7622 0.0983
vn -0.0106 0.9999 -0.0010
vn -0.0991 0.9950 -0.0145
vn -0.0249 0.9996 -0.0118
vn 0.4967 0.8355 0.2351
vn -0.1019 0.9948 -0.0092
vn 0.9145 0.3927 0.0975
vn 0.9965 0.0246 0.0796
vn -0.1043 -0.0024 0.9945
vn 0.2571 0.0354 -0.9657
vn 0.3083 0.9513 0.0022
vn 0.3000 0.2571 -0.9187
vn -1.0000 0.0000 0.0000
vn -0.1855 0.9826 -0.0018
vn -0.2407 0.0111 0.9705
vn 0.2986 0.9544 0.0018
vn 0.2801 -0.9593 0.0369
vn 0.9978 0.0440 0.0488
vn -0.9552 -0.0465 -0.2924
vn -0.1257 0.9917 -0.0252
vn -0.0252 0.9997 -0.0074
vn 0.5027 0.8504 0.1551
vn -0.1192 0.9924 -0.0302
vn -0.1206 0.9911 -0.0561
usemtl None
s off
f 40//1 26//1 29//1 42//1
f 42//2 29//2 28//2 44//2
f 50//3 54//3 11//3 10//3
f 30//4 26//4 40//4 45//4
f 27//5 38//5 44//5 28//5
f 15//6 50//6 10//6 14//6
f 19//7 12//7 7//7 18//7
f 14//8 20//8 5//8 9//8
f 24//9 6//9 8//9 23//9
f 46//10 39//10 4//10 17//10
f 16//11 53//11 12//11 19//11
f 21//12 3//12 6//12 24//12
f 17//13 4//13 5//13 20//13
f 13//14 1//14 8//14 18//14
f 49//14 13//14 18//14 7//14
f 54//15 17//15 20//15 11//15
f 3//16 16//16 19//16 6//16
f 10//17 11//17 20//17 14//17
f 6//18 19//18 18//18 8//18
f 2//6 15//6 14//6 9//6
f 37//19 2//19 9//19 43//19
f 81//20 30//20 45//20 95//20
f 53//21 16//21 25//21 75//21
f 26//22 21//22 24//22 29//22
f 1//5 22//5 23//5 8//5
f 29//23 24//23 23//23 28//23
f 16//24 3//24 21//24 25//24
f 5//25 41//25 43//25 9//25
f 4//26 39//26 41//26 5//26
f 22//5 27//5 28//5 23//5
f 25//27 21//27 26//27 30//27
f 31//28 32//28 34//28 33//28
f 25//29 30//29 32//29 31//29
f 30//30 81//30 85//30 32//30
f 75//31 25//31 31//31 84//31
f 88//32 33//32 34//32 89//32
f 84//33 31//33 33//33 88//33
f 30//34 81//34 75//34 25//34
f 35//35 92//35 94//35 36//35
f 89//36 34//36 36//36 94//36
f 32//37 85//37 92//37 35//37
f 34//38 32//38 35//38 36//38
f 44//39 38//39 37//39 43//39
f 46//40 96//40 95//40 45//40
f 42//41 44//41 43//41 41//41
f 40//42 42//42 41//42 39//42
f 39//43 46//43 45//43 40//43
f 96//44 46//44 17//44 54//44
f 100//45 102//45 80//45 77//45
f 102//46 104//46 79//46 80//46
f 50//47 60//47 61//47 54//47
f 82//48 105//48 100//48 77//48
f 78//49 79//49 104//49 98//49
f 65//50 64//50 60//50 50//50
f 69//51 68//51 57//51 62//51
f 64//52 59//52 55//52 70//52
f 74//53 73//53 58//53 56//53
f 106//54 67//54 52//54 99//54
f 66//55 69//55 62//55 53//55
f 71//56 74//56 56//56 51//56
f 67//57 70//57 55//57 52//57
f 63//58 68//58 58//58 47//58
f 49//58 57//58 68//58 63//58
f 54//59 61//59 70//59 67//59
f 51//60 56//60 69//60 66//60
f 60//61 64//61 70//61 61//61
f 56//62 58//62 68//62 69//62
f 48//50 59//50 64//50 65//50
f 97//63 103//63 59//63 48//63
f 81//64 95//64 105//64 82//64
f 53//65 75//65 76//65 66//65
f 77//66 80//66 74//66 71//66
f 47//49 58//49 73//49 72//49
f 80//67 79//67 73//67 74//67
f 66//68 76//68 71//68 51//68
f 55//69 59//69 103//69 101//69
f 52//70 55//70 101//70 99//70
f 72//49 73//49 79//49 78//49
f 76//71 82//71 77//71 71//71
f 83//72 87//72 90//72 86//72
f 76//73 83//73 86//73 82//73
f 82//74 86//74 85//74 81//74
f 75//75 84//75 83//75 76//75
f 88//76 89//76 90//76 87//76
f 84//77 88//77 87//77 83//77
f 85//78 92//78 94//78 89//78
f 82//79 76//79 75//79 81//79
f 91//80 93//80 94//80 92//80
f 89//81 94//81 93//81 90//81
f 86//82 91//82 92//82 85//82
f 90//83 93//83 91//83 86//83
f 104//84 103//84 97//84 98//84
f 106//85 105//85 95//85 96//85
f 102//86 101//86 103//86 104//86
f 100//87 99//87 101//87 102//87
f 99//88 100//88 105//88 106//88
f 96//89 54//89 67//89 106//89
