# Blender v2.78 (sub 0) OBJ File: 'stairs.blend'
# www.blender.org
mtllib stairs.mtl
o Cube
v 1.000000 -1.000000 -1.000000
v 1.000000 -1.000000 1.000000
v -1.000000 -1.000000 1.000000
v -1.000000 -1.000000 -1.000000
v 1.000000 -0.420507 -0.999999
v 0.999999 -0.420507 1.000001
v -1.000000 -0.420507 1.000000
v -1.000000 -0.420507 -1.000000
v 1.000001 -0.996924 -2.929243
v -0.999999 -0.996924 -2.929243
v 1.000000 0.061828 -0.999999
v -1.000000 0.061828 -0.999999
v 1.000001 0.061829 -2.929242
v -1.000000 0.061829 -2.929242
v 1.000001 0.472947 -2.929241
v -1.000000 0.472947 -2.929241
v 1.000001 0.472948 -4.893231
v -0.999999 0.472948 -4.893231
v 1.000001 -0.993848 -4.893233
v -0.999999 -0.993848 -4.893233
vn 0.0000 -1.0000 0.0000
vn 0.0000 1.0000 0.0000
vn 1.0000 0.0000 0.0000
vn -0.0000 -0.0000 1.0000
vn -1.0000 -0.0000 -0.0000
vn 0.0000 -1.0000 -0.0016
vn 0.0000 0.0000 -1.0000
usemtl Material
s off
f 1//1 2//1 3//1 4//1
f 5//2 8//2 7//2 6//2
f 1//3 5//3 6//3 2//3
f 2//4 6//4 7//4 3//4
f 3//5 7//5 8//5 4//5
f 8//4 5//4 11//4 12//4
f 1//6 4//6 10//6 9//6
f 12//2 11//2 13//2 14//2
f 5//3 1//3 9//3
f 14//5 16//5 18//5 20//5
f 17//7 19//7 20//7 18//7
f 10//5 4//5 8//5
f 19//3 13//3 9//3
f 17//3 15//3 13//3 19//3
f 16//2 15//2 17//2 18//2
f 20//5 10//5 14//5
f 14//4 13//4 15//4 16//4
f 9//6 10//6 20//6 19//6
f 9//3 13//3 11//3 5//3
f 8//5 12//5 14//5 10//5
