# Blender v2.78 (sub 0) OBJ File: 'stairs.blend'
# www.blender.org
mtllib stai2rs.mtl
o Cube
v 1.000000 -1.000000 -1.000000
v 1.000000 -1.000000 1.000000
v -1.000000 -1.000000 1.000000
v -1.000000 -1.000000 -1.000000
v 1.000000 -0.420507 -0.999999
v 0.999999 -0.420507 1.000001
v -1.000000 -0.420507 1.000000
v -1.000000 -0.420507 -1.000000
v 1.000001 -0.996924 -2.929243
v -0.999999 -0.996924 -2.929243
v 1.000000 0.061828 -0.999999
v -1.000000 0.061828 -0.999999
v 1.000001 0.061829 -2.929242
v -1.000000 0.061829 -2.929242
v 1.000001 0.472947 -2.929241
v -1.000000 0.472947 -2.929241
v 1.000001 0.472948 -4.893231
v -0.999999 0.472948 -4.893231
v 1.000001 -0.993848 -4.893233
v -0.999999 -0.993848 -4.893233
vt 0.2534 0.2534
vt 0.2534 0.0003
vt 0.0003 0.0003
vt 0.0003 0.2534
vt 0.2540 0.2534
vt 0.2540 0.0003
vt 0.5071 0.0003
vt 0.5071 0.2534
vt 0.9487 0.2534
vt 0.8754 0.2534
vt 0.8754 0.0003
vt 0.9487 0.0003
vt 0.9487 0.5071
vt 0.8754 0.5071
vt 0.8754 0.2540
vt 0.9487 0.2540
vt 0.0736 0.7466
vt 0.0003 0.7466
vt 0.0003 0.9997
vt 0.0736 0.9997
vt 0.7672 0.7607
vt 0.7672 0.5077
vt 0.8282 0.5077
vt 0.8282 0.7607
vt 0.0003 0.4975
vt 0.2534 0.4975
vt 0.2540 0.5077
vt 0.5071 0.5077
vt 0.5071 0.7518
vt 0.2540 0.7518
vt 0.0742 0.7467
vt 0.1476 0.7466
vt 0.1476 0.9907
vt 0.6412 0.7562
vt 0.6933 0.7562
vt 0.6933 0.5077
vt 0.5077 0.5077
vt 0.5031 0.2540
vt 0.5031 0.4396
vt 0.7562 0.4396
vt 0.7562 0.2540
vt 0.6943 0.5166
vt 0.6939 0.7607
vt 0.5077 0.1859
vt 0.7562 0.0523
vt 0.7562 0.1863
vt 0.5077 0.0003
vt 0.7562 0.0003
vt 0.5025 0.2540
vt 0.5025 0.5071
vt 0.2540 0.5071
vt 0.2540 0.2540
vt 0.8748 0.0003
vt 0.7568 0.2190
vt 0.8748 0.2824
vt 0.7562 0.4922
vt 0.5031 0.4922
vt 0.5031 0.4402
vt 0.7562 0.4402
vt 0.0003 0.7460
vt 0.2534 0.7460
vt 0.8288 0.5077
vt 0.9628 0.5077
vt 0.9628 0.7518
vt 0.9018 0.7518
vt 0.8282 0.5166
vn 0.0000 -1.0000 0.0000
vn 0.0000 1.0000 0.0000
vn 1.0000 0.0000 0.0000
vn -0.0000 -0.0000 1.0000
vn -1.0000 -0.0000 -0.0000
vn 0.0000 -1.0000 -0.0016
vn 0.0000 0.0000 -1.0000
usemtl Material
s off
f 1/1/1 2/2/1 3/3/1 4/4/1
f 5/5/2 8/6/2 7/7/2 6/8/2
f 1/9/3 5/10/3 6/11/3 2/12/3
f 2/13/4 6/14/4 7/15/4 3/16/4
f 3/17/5 7/18/5 8/19/5 4/20/5
f 8/21/4 5/22/4 11/23/4 12/24/4
f 1/1/6 4/4/6 10/25/6 9/26/6
f 12/27/2 11/28/2 13/29/2 14/30/2
f 5/31/3 1/32/3 9/33/3
f 14/34/5 16/35/5 18/36/5 20/37/5
f 17/38/7 19/39/7 20/40/7 18/41/7
f 10/42/5 4/43/5 8/21/5
f 19/44/3 13/45/3 9/46/3
f 17/47/3 15/48/3 13/45/3 19/44/3
f 16/49/2 15/50/2 17/51/2 18/52/2
f 20/53/5 10/54/5 14/55/5
f 14/56/4 13/57/4 15/58/4 16/59/4
f 9/26/6 10/25/6 20/60/6 19/61/6
f 9/62/3 13/63/3 11/64/3 5/65/3
f 8/21/5 12/24/5 14/66/5 10/42/5
