# Blender v2.78 (sub 0) OBJ File: 'toycar51x.blend'
# www.blender.org
mtllib toycar51x.mtl
o Cylinder.006_Cylinder.007
v -0.886751 0.623363 1.901936
v -0.470288 -0.038850 -2.279433
v -0.839020 -0.064878 1.901936
v -0.727287 0.854779 0.452695
v -0.662546 0.968297 -0.825686
v -0.716110 -0.056202 0.508146
v -0.593199 -0.047526 -0.885644
v -0.676189 0.822798 0.508146
v -0.793659 0.328375 0.011068
v -0.680530 0.412138 -0.871662
v -0.990005 0.524620 2.113211
v -0.990005 0.093253 2.113211
v -1.125879 0.447209 2.270585
v -1.125879 0.235558 2.270585
v -0.838221 0.226272 -2.586214
v -1.011106 0.393201 -2.234334
v -0.812825 0.207973 -2.565039
v -0.492333 -0.022965 -2.297814
v -0.986794 0.379393 -2.302403
v -1.174914 1.381089 -2.279433
v -0.447242 1.033585 -2.279433
v -0.528680 1.113410 -2.279433
v -1.174934 1.201131 -0.943198
v -0.570153 0.961675 -0.885644
v -1.174914 1.207267 -1.003941
v -1.174934 0.481661 -0.870877
v -1.174914 0.948700 -2.586214
v -0.896613 0.833424 -2.586214
v -0.815175 0.753599 -2.586214
v -1.174914 0.716378 -2.234334
v -1.087255 0.680069 -2.234334
v -1.005817 0.600244 -2.234334
v -0.871217 0.852749 -2.565040
v -0.789779 0.772924 -2.565040
v -1.174914 0.978545 -2.565040
v -0.469287 1.016810 -2.297814
v -0.550725 1.096635 -2.297814
v -1.174914 1.355183 -2.297814
v -1.174914 0.740780 -2.302403
v -1.074764 0.581401 -2.191471
v -0.983462 0.615386 -2.302403
v -1.064900 0.695211 -2.302403
v -0.179605 0.299086 -2.279433
v -0.169423 0.362870 -2.279433
v -0.698406 0.358771 1.901936
v -0.690832 0.292881 1.901936
v -0.520930 0.294746 0.508146
v -0.515103 0.363609 0.508146
v -0.342228 0.363268 -0.885644
v -0.350528 0.296860 -0.885644
v -0.906994 0.367358 2.113211
v -0.904356 0.300026 2.113211
v -1.096512 0.306457 2.270585
v -1.095711 0.374376 2.270585
v -0.699940 0.387032 -2.586214
v -0.689758 0.450816 -2.586214
v -0.964174 0.499709 -2.234334
v -0.974356 0.435924 -2.234334
v -0.653843 0.444746 -2.565040
v -0.664025 0.380961 -2.565040
v -0.200599 0.368139 -2.297814
v -0.210781 0.304355 -2.297814
v -0.933089 0.493775 -2.302403
v -0.943271 0.429990 -2.302403
v -0.912285 0.337076 -2.511010
v -0.847341 0.244733 -2.586214
v -1.174914 0.928186 -2.586214
v -1.174914 0.815564 -2.511010
v -0.829680 0.739094 -2.586214
v -0.914951 0.661791 -2.511010
v -0.996390 0.741616 -2.511010
v -0.911118 0.818919 -2.586214
v -0.721912 0.390551 -2.586214
v -0.848006 0.411804 -2.511010
v -0.837824 0.475589 -2.511010
v -0.711730 0.454336 -2.586214
v -0.784349 0.861463 0.065467
v -0.709358 0.974980 -0.748329
v -0.784349 0.348828 0.019491
v -0.687666 0.462346 -0.806204
v -1.242179 0.786018 1.901936
v -1.597607 0.623363 1.901936
v -2.014070 -0.038850 -2.279433
v -1.645338 -0.064878 1.901936
v -1.242179 -0.082519 -2.279433
v -1.242179 -0.078855 1.901936
v -1.757071 0.854779 0.452695
v -1.821813 0.968297 -0.825686
v -1.768248 -0.056202 0.508146
v -1.891159 -0.047526 -0.885644
v -1.242179 -0.080076 0.508146
v -1.242179 -0.081298 -0.885644
v -1.808169 0.822798 0.508146
v -1.242179 0.939530 0.854171
v -1.690699 0.328375 0.011068
v -1.803828 0.412138 -0.871662
v -1.494353 0.524620 2.113211
v -1.242179 0.624735 2.113211
v -1.494353 0.093253 2.113211
v -1.242179 0.084649 2.113211
v -1.358479 0.447209 2.270585
v -1.242179 0.491044 2.270585
v -1.358479 0.235558 2.270585
v -1.242179 0.231791 2.270585
v -1.646137 0.226272 -2.586214
v -1.242179 0.203705 -2.586214
v -1.473252 0.393201 -2.234334
v -1.242179 0.380549 -2.213377
v -1.242179 0.183949 -2.565040
v -1.671533 0.207973 -2.565039
v -1.992025 -0.022965 -2.297814
v -1.242179 -0.065370 -2.297814
v -1.242179 0.365346 -2.302403
v -1.497565 0.379393 -2.302403
v -1.309444 1.381089 -2.279433
v -2.037116 1.033585 -2.279433
v -1.955678 1.113410 -2.279433
v -1.309424 1.201131 -0.943198
v -1.242179 0.935852 0.756379
v -1.242179 0.939541 0.854075
v -1.914205 0.961675 -0.885644
v -1.242179 1.201131 -0.943198
v -1.242179 1.207267 -1.003941
v -1.242179 1.381089 -2.279433
v -1.309444 1.207267 -1.003941
v -1.309424 0.481661 -0.870877
v -1.242179 0.350537 0.164363
v -1.309444 0.948700 -2.586214
v -1.587745 0.833424 -2.586214
v -1.669183 0.753599 -2.586214
v -1.309444 0.716378 -2.234334
v -1.397103 0.680069 -2.234334
v -1.478541 0.600244 -2.234334
v -1.613141 0.852749 -2.565040
v -1.694579 0.772924 -2.565040
v -1.309444 0.978545 -2.565040
v -2.015071 1.016810 -2.297814
v -1.933633 1.096635 -2.297814
v -1.309444 1.355183 -2.297814
v -1.309444 0.740780 -2.302403
v -1.242179 0.579015 -2.178705
v -1.409594 0.581401 -2.191471
v -1.500896 0.615386 -2.302403
v -1.419458 0.695211 -2.302403
v -1.242179 0.525185 -0.870877
v -1.242179 0.978545 -2.565040
v -1.242179 0.948700 -2.586214
v -1.242179 0.740780 -2.302403
v -1.242179 0.716378 -2.234334
v -1.242179 1.355183 -2.297814
v -2.304753 0.299086 -2.279433
v -2.314935 0.362870 -2.279433
v -1.785952 0.358771 1.901936
v -1.793526 0.292881 1.901936
v -1.963428 0.294746 0.508146
v -1.969255 0.363609 0.508146
v -2.142130 0.363268 -0.885644
v -2.133830 0.296860 -0.885644
v -1.577364 0.367358 2.113211
v -1.580002 0.300026 2.113211
v -1.387846 0.306457 2.270585
v -1.388648 0.374376 2.270585
v -1.784418 0.387032 -2.586214
v -1.794600 0.450816 -2.586214
v -1.520184 0.499709 -2.234334
v -1.510002 0.435924 -2.234334
v -1.830515 0.444746 -2.565040
v -1.820333 0.380961 -2.565040
v -2.283760 0.368139 -2.297814
v -2.273577 0.304355 -2.297814
v -1.551269 0.493775 -2.302403
v -1.541087 0.429990 -2.302403
v -1.572073 0.337076 -2.511010
v -1.637017 0.244733 -2.586214
v -1.242179 0.318754 -2.511020
v -1.242179 0.222753 -2.586214
v -1.309444 0.928186 -2.586214
v -1.309444 0.815564 -2.511010
v -1.654678 0.739094 -2.586214
v -1.569407 0.661791 -2.511010
v -1.487968 0.741616 -2.511010
v -1.573240 0.818919 -2.586214
v -1.242179 0.928186 -2.586214
v -1.242179 0.815564 -2.511010
v -1.762446 0.390551 -2.586214
v -1.636352 0.411804 -2.511010
v -1.646534 0.475589 -2.511010
v -1.772628 0.454336 -2.586214
v -1.700009 0.861463 0.065467
v -1.775000 0.974980 -0.748329
v -1.700009 0.348828 0.019491
v -1.796692 0.462346 -0.806204
v -1.242179 0.942536 0.369152
v -1.242179 0.372062 0.172786
vt 0.4766 0.6667
vt 0.4275 0.8778
vt 0.3486 0.8644
vt 0.3742 0.5751
vt 0.9345 0.4770
vt 0.9595 0.5561
vt 0.8976 0.5576
vt 0.8839 0.5150
vt 0.2824 0.8612
vt 0.2751 0.5742
vt 0.1793 0.5818
vt 0.1900 0.8675
vt 0.1082 0.8778
vt 0.0726 0.5953
vt 0.6801 0.7161
vt 0.5968 0.7415
vt 0.5953 0.7357
vt 0.6736 0.7120
vt 0.5742 0.0187
vt 0.5350 0.2796
vt 0.3993 0.2900
vt 0.4322 0.0046
vt 0.8640 0.4418
vt 0.8593 0.4423
vt 0.8655 0.3437
vt 0.8703 0.3450
vt 0.1568 0.0103
vt 0.1685 0.2961
vt 0.0367 0.3130
vt 0.0002 0.0306
vt 0.8214 0.6933
vt 0.7691 0.7691
vt 0.7633 0.7656
vt 0.8139 0.6923
vt 0.8972 0.5710
vt 0.8828 0.6031
vt 0.8451 0.5846
vt 0.8508 0.5712
vt 0.4089 0.0032
vt 0.2679 0.2874
vt 0.2606 0.0002
vt 0.3876 0.5654
vt 0.4161 0.3051
vt 0.5333 0.2920
vt 0.8014 0.9218
vt 0.5883 0.9381
vt 0.6176 0.8457
vt 0.7985 0.8198
vt 0.8597 0.1283
vt 0.8754 0.0118
vt 0.9998 0.0917
vt 0.9587 0.1851
vt 0.9426 0.1904
vt 0.8484 0.1429
vt 0.6949 0.6631
vt 0.6727 0.6043
vt 0.6758 0.6015
vt 0.6993 0.6638
vt 0.4804 0.6444
vt 0.4772 0.6640
vt 0.8383 0.6378
vt 0.8234 0.5959
vt 0.9264 0.6332
vt 0.8639 0.6884
vt 0.8539 0.4427
vt 0.8338 0.4973
vt 0.2610 0.5747
vt 0.2688 0.8614
vt 0.8467 0.5455
vt 0.8234 0.5425
vt 0.8514 0.5588
vt 0.1638 0.8982
vt 0.1422 0.9094
vt 0.1381 0.8950
vt 0.1553 0.8861
vt 0.8748 0.6888
vt 0.8842 0.6991
vt 0.8762 0.7332
vt 0.8520 0.7095
vt 0.6098 0.5450
vt 0.6673 0.5796
vt 0.6608 0.5840
vt 0.6082 0.5523
vt 0.8604 0.7713
vt 0.8911 0.7407
vt 0.8826 0.7614
vt 0.8721 0.7697
vt 0.6823 0.5973
vt 0.7079 0.6648
vt 0.6978 0.6767
vt 0.6933 0.6763
vt 0.0792 0.9695
vt 0.0596 0.9647
vt 0.0674 0.9192
vt 0.0807 0.9225
vt 0.1897 0.9353
vt 0.1750 0.8903
vt 0.2010 0.9275
vt 0.0215 0.8944
vt 0.0304 0.8782
vt 0.0700 0.9044
vt 0.0812 0.9072
vt 0.1203 0.9174
vt 0.0939 0.9228
vt 0.0944 0.9075
vt 0.1162 0.9030
vt 0.7063 0.6779
vt 0.2542 0.2879
vt 0.7652 0.5432
vt 0.8155 0.6791
vt 0.6311 0.4522
vt 0.7500 0.5253
vt 0.6169 0.8144
vt 0.6183 0.8194
vt 0.9583 0.5700
vt 0.7709 0.5395
vt 0.8230 0.6801
vt 0.5939 0.5537
vt 0.5947 0.5496
vt 0.6074 0.5565
vt 0.5944 0.7320
vt 0.6712 0.7087
vt 0.6576 0.5865
vt 0.6326 0.4459
vt 0.6175 0.4491
vt 0.6190 0.4427
vt 0.5879 0.0207
vt 0.5486 0.2815
vt 0.8029 0.9381
vt 0.7558 0.5215
vt 0.1546 0.9536
vt 0.1327 0.9616
vt 0.0924 0.9698
vt 0.8911 0.7175
vt 0.8234 0.7401
vt 0.5962 0.5421
vt 0.1666 0.8782
vt 0.8829 0.0002
vt 0.9998 0.0753
vt 0.5469 0.2939
vt 0.2474 0.0008
vt 0.5883 0.7081
vt 0.6522 0.6887
vt 0.6017 0.5837
vt 0.5883 0.5809
vt 0.6505 0.6213
vt 0.6355 0.6038
vt 0.6634 0.6724
vt 0.6650 0.6595
vt 0.0002 0.9325
vt 0.7758 0.2952
vt 0.8684 0.3451
vt 0.7012 0.3808
vt 0.8150 0.4283
vt 0.6149 0.2236
vt 0.6939 0.2107
vt 0.5883 0.3440
vt 0.6637 0.3201
vt 0.3742 0.5751
vt 0.3486 0.8644
vt 0.9345 0.4770
vt 0.8839 0.5150
vt 0.8976 0.5576
vt 0.9595 0.5561
vt 0.2751 0.5742
vt 0.2824 0.8612
vt 0.1793 0.5818
vt 0.1900 0.8675
vt 0.6801 0.7161
vt 0.6736 0.7120
vt 0.5742 0.0187
vt 0.4322 0.0046
vt 0.3993 0.2900
vt 0.5350 0.2796
vt 0.8703 0.3450
vt 0.8655 0.3437
vt 0.1568 0.0103
vt 0.1685 0.2961
vt 0.8214 0.6933
vt 0.8139 0.6923
vt 0.7633 0.7656
vt 0.7691 0.7691
vt 0.8972 0.5710
vt 0.8508 0.5712
vt 0.8451 0.5846
vt 0.8828 0.6031
vt 0.4089 0.0032
vt 0.2606 0.0002
vt 0.2679 0.2874
vt 0.3876 0.5654
vt 0.4161 0.3051
vt 0.5333 0.2920
vt 0.8014 0.9218
vt 0.7985 0.8198
vt 0.6176 0.8457
vt 0.8597 0.1283
vt 0.9587 0.1851
vt 0.9998 0.0917
vt 0.8754 0.0118
vt 0.8484 0.1429
vt 0.9426 0.1904
vt 0.6949 0.6631
vt 0.6993 0.6638
vt 0.6758 0.6015
vt 0.6727 0.6043
vt 0.9264 0.6332
vt 0.2610 0.5747
vt 0.2688 0.8614
vt 0.8467 0.5455
vt 0.8514 0.5588
vt 0.1638 0.8982
vt 0.1553 0.8861
vt 0.1381 0.8950
vt 0.1422 0.9094
vt 0.8762 0.7332
vt 0.8842 0.6991
vt 0.6098 0.5450
vt 0.6082 0.5523
vt 0.6608 0.5840
vt 0.6673 0.5796
vt 0.8604 0.7713
vt 0.8721 0.7697
vt 0.8826 0.7614
vt 0.8911 0.7407
vt 0.6823 0.5973
vt 0.7079 0.6648
vt 0.6978 0.6767
vt 0.6933 0.6763
vt 0.0792 0.9695
vt 0.0807 0.9225
vt 0.0674 0.9192
vt 0.0596 0.9647
vt 0.1897 0.9353
vt 0.0700 0.9044
vt 0.0812 0.9072
vt 0.1203 0.9174
vt 0.1162 0.9030
vt 0.0944 0.9075
vt 0.0939 0.9228
vt 0.7063 0.6779
vt 0.2542 0.2879
vt 0.7652 0.5432
vt 0.8155 0.6791
vt 0.6311 0.4522
vt 0.7500 0.5253
vt 0.9583 0.5700
vt 0.7709 0.5395
vt 0.8230 0.6801
vt 0.6074 0.5565
vt 0.6712 0.7087
vt 0.6576 0.5865
vt 0.6326 0.4459
vt 0.7558 0.5215
vt 0.1327 0.9616
vt 0.1546 0.9536
vt 0.0924 0.9698
vt 0.8911 0.7175
vt 0.2474 0.0008
vt 0.6522 0.6887
vt 0.6017 0.5837
vt 0.6505 0.6213
vt 0.6355 0.6038
vt 0.6634 0.6724
vt 0.6650 0.6595
vt 0.7758 0.2952
vt 0.8684 0.3451
vt 0.6149 0.2236
vt 0.6939 0.2107
vn 0.0000 0.9888 0.1492
vn 0.0000 0.9303 0.3668
vn 0.6115 0.6926 0.3825
vn 0.6594 0.7385 0.1404
vn 0.5119 -0.7760 0.3684
vn 0.8934 -0.1752 0.4136
vn 0.6677 -0.1185 0.7349
vn 0.3684 -0.5664 0.7371
vn 0.8820 0.2325 0.4100
vn 0.9758 0.1744 0.1318
vn 0.5253 -0.8493 0.0511
vn 0.0000 -0.9472 0.3207
vn 0.0000 -1.0000 -0.0007
vn 0.2428 -0.5705 -0.7845
vn 0.0000 -0.7314 -0.6819
vn 0.0000 -0.4106 -0.9118
vn 0.1299 -0.3924 -0.9105
vn 0.1694 0.9112 -0.3754
vn 0.1804 0.9721 0.1497
vn 0.6901 0.7096 0.1420
vn 0.5096 0.7660 -0.3919
vn 0.0000 0.8207 -0.5713
vn 0.0000 0.3168 -0.9485
vn -0.7917 0.2102 -0.5735
vn -0.5184 0.7639 -0.3844
vn 0.4518 -0.8013 -0.3922
vn 0.4830 -0.8744 0.0464
vn 0.0000 -1.0000 -0.0004
vn 0.0000 -0.9321 -0.3622
vn 0.8403 -0.3517 -0.4126
vn 0.2429 -0.5705 -0.7845
vn 0.4663 -0.2253 -0.8555
vn 0.6783 0.2123 0.7035
vn 0.5119 0.5744 0.6388
vn 0.2996 0.3702 0.8793
vn 0.3786 0.1040 0.9197
vn 0.7603 0.5100 -0.4023
vn 0.9856 0.1208 0.1186
vn 0.9088 0.0966 -0.4059
vn 0.2120 0.9745 0.0732
vn -0.1011 0.9060 0.4110
vn 0.1128 0.7123 0.6927
vn 0.1995 0.6864 0.6993
vn -0.5966 0.6330 0.4933
vn -0.9770 0.0624 -0.2037
vn -0.7737 0.6258 -0.0983
vn -0.2238 -0.0185 -0.9745
vn -0.2076 -0.1442 -0.9675
vn 0.2684 0.1785 -0.9466
vn 0.3111 0.0538 -0.9488
vn 0.0000 0.9976 0.0698
vn 0.0000 0.9947 0.1025
vn 0.0000 0.7923 0.6102
vn 0.0000 0.4950 0.8689
vn 0.0000 -0.7621 0.6474
vn 0.9560 -0.2722 0.1096
vn 0.2224 -0.3745 0.9001
vn 0.0000 -0.4052 0.9142
vn 0.3680 -0.0778 0.9265
vn -0.1848 -0.9251 -0.3316
vn -0.5163 -0.7842 -0.3440
vn -0.4276 -0.6568 -0.6211
vn -0.1627 -0.7310 -0.6627
vn 0.0000 -0.7140 -0.7001
vn -0.2036 -0.1238 -0.9712
vn 0.0000 -0.0864 -0.9962
vn 0.1173 0.5746 -0.8099
vn 0.3135 0.4834 -0.8173
vn 0.1750 0.2889 -0.9412
vn 0.0748 0.3350 -0.9392
vn -0.3463 0.6531 -0.6734
vn -0.6152 -0.3895 -0.6854
vn -0.7102 -0.0744 -0.7000
vn -0.6615 0.2485 -0.7076
vn 0.4592 0.3091 -0.8328
vn 0.5153 0.0694 -0.8542
vn 0.2778 -0.1465 -0.9494
vn -0.2060 0.0875 -0.9746
vn -0.6559 0.3140 -0.6864
vn -0.3392 0.6790 -0.6510
vn -0.4113 0.8556 -0.3141
vn -0.8258 0.3863 -0.4108
vn -0.1558 -0.7622 -0.6283
vn 0.0000 -0.9413 -0.3374
vn 0.0000 -0.7880 -0.6156
vn 0.0000 0.9789 -0.2044
vn 0.0000 0.6978 -0.7162
vn -0.7703 -0.5202 -0.3687
vn -0.9077 -0.1104 -0.4049
vn 0.9274 -0.3587 0.1056
vn 0.0000 -0.7314 -0.6820
vn 0.0000 -0.2901 -0.9570
vn 0.0000 0.3037 -0.9528
vn -0.0461 -0.2553 -0.9657
vn 0.0000 0.3158 -0.9488
vn -0.1024 0.1953 -0.9754
vn -0.1470 -0.2121 -0.9661
vn 0.0000 0.5786 -0.8155
vn 0.0000 0.9174 -0.3978
vn 0.0000 0.9930 0.1178
vn 0.0000 0.5276 0.8495
vn -0.4244 -0.6458 -0.6347
vn -0.6331 -0.4209 -0.6496
vn -0.7241 -0.0935 -0.6833
vn 0.0000 0.7082 0.7060
vn 0.0000 0.8423 -0.5390
vn -0.5014 0.8192 -0.2783
vn 0.0000 0.9071 -0.4209
vn -0.6594 0.7385 0.1404
vn -0.6115 0.6926 0.3825
vn -0.5119 -0.7760 0.3684
vn -0.3684 -0.5664 0.7371
vn -0.6677 -0.1185 0.7349
vn -0.8934 -0.1752 0.4136
vn -0.9758 0.1744 0.1318
vn -0.8820 0.2325 0.4100
vn -0.5253 -0.8493 0.0511
vn -0.2428 -0.5705 -0.7845
vn -0.1299 -0.3924 -0.9105
vn -0.1694 0.9112 -0.3754
vn -0.5096 0.7660 -0.3919
vn -0.6901 0.7096 0.1420
vn -0.1804 0.9721 0.1497
vn 0.5184 0.7639 -0.3844
vn 0.7917 0.2102 -0.5735
vn -0.4518 -0.8013 -0.3922
vn -0.4830 -0.8744 0.0464
vn -0.8403 -0.3517 -0.4126
vn -0.4663 -0.2253 -0.8555
vn -0.2429 -0.5705 -0.7845
vn -0.6783 0.2123 0.7035
vn -0.3786 0.1040 0.9197
vn -0.2996 0.3702 0.8793
vn -0.5119 0.5744 0.6388
vn -0.7603 0.5100 -0.4023
vn -0.9088 0.0966 -0.4059
vn -0.9856 0.1208 0.1186
vn -0.2120 0.9745 0.0732
vn 0.1011 0.9060 0.4110
vn -0.1128 0.7123 0.6927
vn -0.1995 0.6864 0.6993
vn 0.5966 0.6330 0.4933
vn 0.7737 0.6258 -0.0983
vn 0.9770 0.0624 -0.2037
vn 0.2238 -0.0185 -0.9745
vn -0.3111 0.0538 -0.9488
vn -0.2684 0.1785 -0.9466
vn 0.2076 -0.1442 -0.9675
vn -0.9560 -0.2722 0.1096
vn -0.2224 -0.3745 0.9001
vn -0.3680 -0.0778 0.9265
vn 0.1848 -0.9251 -0.3316
vn 0.1627 -0.7310 -0.6627
vn 0.4276 -0.6568 -0.6211
vn 0.5163 -0.7842 -0.3440
vn 0.2036 -0.1238 -0.9712
vn -0.1173 0.5746 -0.8099
vn -0.0748 0.3350 -0.9392
vn -0.1750 0.2889 -0.9412
vn -0.3135 0.4834 -0.8173
vn 0.3463 0.6531 -0.6734
vn 0.6615 0.2485 -0.7076
vn 0.7102 -0.0744 -0.7000
vn 0.6152 -0.3895 -0.6854
vn -0.4592 0.3091 -0.8328
vn -0.5153 0.0694 -0.8542
vn -0.2778 -0.1465 -0.9494
vn 0.2060 0.0875 -0.9746
vn 0.6559 0.3140 -0.6864
vn 0.8258 0.3863 -0.4108
vn 0.4113 0.8556 -0.3141
vn 0.3392 0.6790 -0.6510
vn 0.1558 -0.7622 -0.6283
vn 0.7703 -0.5202 -0.3687
vn 0.9077 -0.1104 -0.4049
vn -0.9274 -0.3587 0.1056
vn 0.0461 -0.2553 -0.9657
vn 0.1024 0.1953 -0.9754
vn 0.1470 -0.2121 -0.9661
vn 0.6331 -0.4209 -0.6496
vn 0.4244 -0.6458 -0.6347
vn 0.7241 -0.0935 -0.6833
vn 0.5014 0.8192 -0.2783
usemtl Material.003
s 1
f 94/1/1 81/2/2 1/3/3 8/4/4
f 3/5/5 46/6/6 52/7/7 12/8/8
f 8/4/4 1/3/3 45/9/9 48/10/10
f 6/11/11 3/12/5 86/13/12 91/14/13
f 17/15/14 109/16/15 106/17/16 15/18/17
f 20/19/18 25/20/19 24/21/20 22/22/21
f 127/23/22 194/24/23 79/25/24 9/26/25
f 2/27/26 7/28/27 92/29/28 85/30/29
f 7/28/27 6/11/11 91/14/13 92/29/28
f 43/31/30 2/32/26 18/33/31 62/34/32
f 51/35/33 11/36/34 13/37/35 54/38/36
f 21/39/37 24/21/20 49/40/38 44/41/39
f 4/42/40 8/4/4 24/21/20 5/43/41
f 23/44/42 5/43/41 24/21/20 25/20/19
f 26/45/43 127/46/22 9/47/25 10/48/44
f 5/49/41 23/50/42 26/51/43 10/52/44
f 5/49/41 10/52/44 80/53/45 78/54/46
f 76/55/47 69/56/48 29/57/49 56/58/50
f 119/59/51 120/60/52 94/1/1 8/4/4 4/42/40
f 11/36/34 98/61/53 102/62/54 13/37/35
f 1/63/3 81/64/2 98/61/53 11/36/34
f 24/21/20 8/4/4 48/10/10 49/40/38
f 86/65/12 3/5/5 12/8/8 100/66/55
f 47/67/56 46/68/6 3/12/5 6/11/11
f 100/66/55 12/8/8 14/69/57 104/70/58
f 12/8/8 52/7/7 53/71/59 14/69/57
f 13/37/35 102/62/54 104/70/58 14/69/57 53/71/59 54/38/36
f 39/72/60 42/73/61 31/74/62 30/75/63
f 149/76/64 30/77/63 40/78/65 141/79/66
f 35/80/67 33/81/68 28/82/69 27/83/70
f 16/84/71 40/78/65 32/85/72 57/86/73 58/87/74
f 34/88/75 59/89/76 56/58/50 29/57/49
f 55/90/77 73/91/78 76/55/47 56/58/50
f 74/92/79 65/93/80 19/94/81 64/95/82
f 68/96/83 39/72/60 148/97/84 184/98/85
f 19/94/81 113/99/86 108/100/87 16/101/71
f 64/95/82 19/94/81 16/101/71 58/102/74
f 41/103/88 63/104/89 57/105/73 32/106/72
f 62/34/32 18/33/31 17/15/14 60/107/32
f 50/108/90 47/67/56 6/11/11 7/28/27
f 36/109/75 61/110/76 59/89/76 34/88/75
f 38/111/67 37/112/68 33/81/68 35/80/67
f 18/33/31 112/113/91 109/16/15 17/15/14
f 2/32/26 85/114/29 112/113/91 18/33/31
f 45/115/9 1/63/3 11/36/34 51/35/33
f 21/116/37 44/117/39 61/110/76 36/109/75
f 183/118/92 147/119/93 27/83/70 67/120/94
f 60/107/32 17/15/14 15/18/17 55/90/77
f 176/121/95 66/122/96 15/18/17 106/17/16
f 29/57/49 69/56/48 72/123/97 28/82/69
f 20/124/18 38/111/67 150/125/98 124/126/99
f 24/21/20 21/39/37 22/22/21
f 124/127/99 123/128/100 25/20/19 20/19/18
f 127/46/22 26/45/43 145/129/101
f 37/112/68 22/130/21 21/116/37 36/109/75
f 42/73/61 71/131/102 70/132/103 41/103/88
f 72/123/97 67/120/94 27/83/70 28/82/69
f 70/132/103 75/133/104 63/104/89 41/103/88
f 40/78/65 30/77/63 31/134/62 32/85/72
f 28/82/69 33/81/68 34/88/75 29/57/49
f 33/81/68 37/112/68 36/109/75 34/88/75
f 141/79/66 40/78/65 16/84/71 108/135/87
f 31/74/62 42/73/61 41/103/88 32/106/72
f 20/124/18 22/130/21 37/112/68 38/111/67
f 68/96/83 71/131/102 42/73/61 39/72/60
f 38/111/67 35/80/67 146/136/98 150/125/98
f 39/72/60 30/75/63 149/137/64 148/97/84
f 35/80/67 27/83/70 147/119/93 146/136/98
f 26/51/43 23/50/42 122/138/105 145/139/101
f 23/44/42 25/20/19 123/128/100 122/140/105
f 66/122/96 73/91/78 55/90/77 15/18/17
f 50/108/90 43/141/30 44/41/39 49/40/38
f 46/68/6 47/67/56 48/10/10 45/9/9
f 47/67/56 50/108/90 49/40/38 48/10/10
f 45/115/9 51/35/33 52/7/7 46/6/6
f 53/71/59 52/7/7 51/35/33 54/38/36
f 60/107/32 55/90/77 56/58/50 59/89/76
f 74/92/79 64/95/82 63/104/89 75/133/104
f 64/95/82 58/102/74 57/105/73 63/104/89
f 62/34/32 60/107/32 59/89/76 61/110/76
f 43/31/30 62/34/32 61/110/76 44/117/39
f 43/141/30 50/108/90 7/28/27 2/27/26
f 66/122/96 176/121/95 175/142/106 65/143/80
f 68/144/83 184/145/85 183/118/92 67/120/94
f 70/146/103 71/147/102 72/123/97 69/56/48
f 67/120/94 72/123/97 71/147/102 68/144/83
f 74/148/79 75/149/104 76/55/47 73/91/78
f 73/91/78 66/122/96 65/143/80 74/148/79
f 69/56/48 76/55/47 75/149/104 70/146/103
f 65/93/80 175/150/106 113/99/86 19/94/81
f 77/151/107 78/54/46 80/53/45 79/152/24
f 193/153/108 77/151/107 79/152/24 194/154/23
f 4/155/40 5/49/41 78/54/46 77/156/107
f 10/52/44 9/26/25 79/25/24 80/53/45
f 119/157/51 4/155/40 77/156/107 193/158/108
f 94/1/1 93/159/109 82/160/110 81/2/2
f 84/161/111 99/162/112 160/163/113 154/164/114
f 93/159/109 156/165/115 153/166/116 82/160/110
f 89/167/117 91/14/13 86/13/12 84/168/111
f 110/169/118 105/170/119 106/17/16 109/16/15
f 115/171/120 117/172/121 121/173/122 125/174/123
f 127/23/22 95/175/124 191/176/125 194/24/23
f 83/177/126 85/30/29 92/29/28 90/178/127
f 90/178/127 92/29/28 91/14/13 89/167/117
f 151/179/128 170/180/129 111/181/130 83/182/126
f 159/183/131 162/184/132 101/185/133 97/186/134
f 116/187/135 152/188/136 157/189/137 121/173/122
f 87/190/138 88/191/139 121/173/122 93/159/109
f 118/192/140 125/174/123 121/173/122 88/191/139
f 126/193/141 96/194/142 95/195/124 127/46/22
f 88/196/139 96/197/142 126/198/141 118/199/140
f 88/196/139 190/200/143 192/201/144 96/197/142
f 188/202/145 164/203/146 130/204/147 179/205/148
f 119/59/51 87/190/138 93/159/109 94/1/1 120/60/52
f 97/186/134 101/185/133 102/62/54 98/61/53
f 82/206/110 97/186/134 98/61/53 81/64/2
f 121/173/122 157/189/137 156/165/115 93/159/109
f 86/65/12 100/66/55 99/162/112 84/161/111
f 155/207/149 89/167/117 84/168/111 154/208/114
f 100/66/55 104/70/58 103/209/150 99/162/112
f 99/162/112 103/209/150 161/210/151 160/163/113
f 101/185/133 162/184/132 161/210/151 103/209/150 104/70/58 102/62/54
f 140/211/152 131/212/153 132/213/154 144/214/155
f 149/76/64 141/79/66 142/215/156 131/216/153
f 136/217/157 128/218/158 129/219/159 134/220/160
f 107/221/161 166/222/162 165/223/163 133/224/164 142/215/156
f 135/225/165 130/204/147 164/203/146 167/226/166
f 163/227/167 164/203/146 188/202/145 185/228/168
f 186/229/169 172/230/170 114/231/171 173/232/172
f 178/233/173 184/98/85 148/97/84 140/211/152
f 114/231/171 107/234/161 108/100/87 113/99/86
f 172/230/170 166/235/162 107/234/161 114/231/171
f 143/236/174 133/237/164 165/238/163 171/239/175
f 170/180/129 168/240/129 110/169/118 111/181/130
f 158/241/176 90/178/127 89/167/117 155/207/149
f 137/242/165 135/225/165 167/226/166 169/243/166
f 139/244/157 136/217/157 134/220/160 138/245/160
f 111/181/130 110/169/118 109/16/15 112/113/91
f 83/182/126 111/181/130 112/113/91 85/114/29
f 153/246/116 159/183/131 97/186/134 82/206/110
f 116/247/135 137/242/165 169/243/166 152/248/136
f 183/118/92 177/249/177 128/218/158 147/119/93
f 168/240/129 163/227/167 105/170/119 110/169/118
f 176/121/95 106/17/16 105/170/119 174/250/178
f 130/204/147 129/219/159 182/251/179 179/205/148
f 115/252/120 124/126/99 150/125/98 139/244/157
f 121/173/122 117/172/121 116/187/135
f 124/127/99 115/171/120 125/174/123 123/128/100
f 127/46/22 145/129/101 126/193/141
f 138/245/160 137/242/165 116/247/135 117/253/121
f 144/214/155 143/236/174 180/254/180 181/255/181
f 182/251/179 129/219/159 128/218/158 177/249/177
f 180/254/180 143/236/174 171/239/175 187/256/182
f 142/215/156 133/224/164 132/257/154 131/216/153
f 129/219/159 130/204/147 135/225/165 134/220/160
f 134/220/160 135/225/165 137/242/165 138/245/160
f 141/79/66 108/135/87 107/221/161 142/215/156
f 132/213/154 133/237/164 143/236/174 144/214/155
f 115/252/120 139/244/157 138/245/160 117/253/121
f 178/233/173 140/211/152 144/214/155 181/255/181
f 139/244/157 150/125/98 146/136/98 136/217/157
f 140/211/152 148/97/84 149/137/64 131/212/153
f 136/217/157 146/136/98 147/119/93 128/218/158
f 126/198/141 145/139/101 122/138/105 118/199/140
f 118/192/140 122/140/105 123/128/100 125/174/123
f 174/250/178 105/170/119 163/227/167 185/228/168
f 158/241/176 157/189/137 152/188/136 151/258/128
f 154/208/114 153/166/116 156/165/115 155/207/149
f 155/207/149 156/165/115 157/189/137 158/241/176
f 153/246/116 154/164/114 160/163/113 159/183/131
f 161/210/151 162/184/132 159/183/131 160/163/113
f 168/240/129 167/226/166 164/203/146 163/227/167
f 186/229/169 187/256/182 171/239/175 172/230/170
f 172/230/170 171/239/175 165/238/163 166/235/162
f 170/180/129 169/243/166 167/226/166 168/240/129
f 151/179/128 152/248/136 169/243/166 170/180/129
f 151/258/128 83/177/126 90/178/127 158/241/176
f 174/250/178 173/259/172 175/142/106 176/121/95
f 178/260/173 177/249/177 183/118/92 184/145/85
f 180/261/180 179/205/148 182/251/179 181/262/181
f 177/249/177 178/260/173 181/262/181 182/251/179
f 186/263/169 185/228/168 188/202/145 187/264/182
f 185/228/168 186/263/169 173/259/172 174/250/178
f 179/205/148 180/261/180 187/264/182 188/202/145
f 173/232/172 114/231/171 113/99/86 175/150/106
f 189/265/183 191/266/125 192/201/144 190/200/143
f 193/153/108 194/154/23 191/266/125 189/265/183
f 87/267/138 189/268/183 190/200/143 88/196/139
f 96/197/142 192/201/144 191/176/125 95/175/124
f 119/157/51 193/158/108 189/268/183 87/267/138
