# Blender v2.78 (sub 0) OBJ File: 'wench.blend'
# www.blender.org
mtllib wench.mtl
o Plane
v 0.234953 0.098179 1.000000
v 0.178160 0.098179 0.000000
v 0.249328 0.088183 -1.285114
v 0.341815 0.098179 1.405867
v 0.433735 0.098179 -1.453773
v 0.267074 0.098179 1.728642
v 0.107142 0.098179 0.000000
v 0.163935 0.098179 1.000000
v 0.229198 0.088183 -1.285114
v 0.268854 0.098179 1.405867
v 0.204650 0.098179 1.765182
v 0.310039 0.098179 1.638998
v 0.216325 0.098179 1.638998
v 0.263895 0.098179 1.199175
v 0.197528 0.098179 1.199175
v 0.354269 0.098179 -1.453773
v 0.615333 0.098179 -1.852248
v 0.577677 0.098179 -1.852248
v 0.025174 0.098179 0.000000
v 0.185572 0.088183 -1.285114
v 0.081968 0.098179 1.000000
v 0.243152 0.098179 -1.453773
v 0.098764 0.098179 1.164562
v 0.393734 0.098179 -1.743019
v 0.131328 0.088183 -1.285114
v 0.163109 0.098179 -1.453773
v 0.191917 0.098179 -1.565863
v 0.040984 0.098179 1.000000
v 0.049382 0.098179 1.147255
v 0.406133 0.098179 -2.228738
v 0.366129 0.098179 -2.228738
v 0.317584 0.098179 -2.228738
v 0.196962 0.098179 -0.655477
v 0.108825 0.098179 -0.655477
v 0.052012 0.098179 -0.655477
v 0.006596 0.098179 -0.655477
v 0.000000 0.098179 0.000000
v -0.234953 0.098179 1.000000
v -0.178160 0.098179 0.000000
v -0.249328 0.088183 -1.285114
v 0.000000 0.098179 1.000000
v 0.000000 0.088183 -1.285114
v -0.341815 0.098179 1.405867
v -0.433735 0.098179 -1.453773
v -0.267074 0.098179 1.728642
v 0.000000 0.098179 1.778493
v -0.107142 0.098179 0.000000
v -0.163935 0.098179 1.000000
v -0.229198 0.088183 -1.285114
v -0.268854 0.098179 1.405867
v -0.204650 0.098179 1.765182
v -0.310039 0.098179 1.638998
v 0.000000 0.098179 1.710731
v -0.216325 0.098179 1.638998
v -0.263895 0.098179 1.199175
v 0.000000 0.098179 1.129948
v -0.197528 0.098179 1.199175
v 0.000000 0.098179 -1.451885
v -0.354269 0.098179 -1.453773
v -0.615333 0.098179 -1.852248
v 0.000000 0.098179 -1.529975
v -0.577677 0.098179 -1.852248
v -0.025174 0.098179 0.000000
v -0.185572 0.088183 -1.285114
v -0.081968 0.098179 1.000000
v -0.243152 0.098179 -1.453773
v -0.098764 0.098179 1.164562
v -0.393734 0.098179 -1.743019
v 0.000000 0.098179 0.000000
v -0.131328 0.088183 -1.285114
v -0.163109 0.098179 -1.453773
v -0.191917 0.098179 -1.565863
v -0.040984 0.098179 1.000000
v -0.049382 0.098179 1.147255
v -0.406133 0.098179 -2.228738
v -0.366129 0.098179 -2.228738
v -0.317584 0.098179 -2.228738
v -0.196962 0.098179 -0.655477
v 0.000000 0.098179 -0.655477
v -0.108825 0.098179 -0.655477
v -0.052012 0.098179 -0.655477
v -0.006596 0.098179 -0.655477
v 0.234953 -0.098179 1.000000
v 0.178160 -0.098179 0.000000
v 0.249328 -0.088183 -1.285114
v 0.341815 -0.098179 1.405867
v 0.433735 -0.098179 -1.453773
v 0.267074 -0.098179 1.728642
v 0.107142 -0.098179 0.000000
v 0.163935 -0.098179 1.000000
v 0.229198 -0.088183 -1.285114
v 0.268854 -0.098179 1.405867
v 0.204650 -0.098179 1.765182
v 0.310039 -0.098179 1.638998
v 0.216325 -0.098179 1.638998
v 0.263895 -0.098179 1.199175
v 0.197528 -0.098179 1.199175
v 0.354269 -0.098179 -1.453773
v 0.615333 -0.098179 -1.852248
v 0.577677 -0.098179 -1.852248
v 0.025174 -0.098179 0.000000
v 0.185572 -0.088183 -1.285114
v 0.081968 -0.098179 1.000000
v 0.243152 -0.098179 -1.453773
v 0.098764 -0.098179 1.164562
v 0.393734 -0.098179 -1.743019
v 0.131328 -0.088183 -1.285114
v 0.163109 -0.098179 -1.453773
v 0.191917 -0.098179 -1.565863
v 0.040984 -0.098179 1.000000
v 0.049382 -0.098179 1.147255
v 0.406133 -0.098179 -2.228738
v 0.366129 -0.098179 -2.228738
v 0.317584 -0.098179 -2.228738
v 0.251135 0.000000 1.000000
v 0.194341 0.000000 0.000000
v 0.275610 0.000000 -1.285114
v 0.358438 0.000000 1.405867
v 0.473537 0.000000 -1.453773
v 0.282735 0.000000 1.733561
v 0.201989 0.000000 1.793933
v 0.331392 0.000000 1.638998
v 0.302596 0.000000 1.199175
v 0.649500 0.000000 -1.852248
v 0.335443 0.000000 -1.764812
v 0.198481 0.000000 -1.636494
v 0.389750 0.000000 -2.314521
v 0.346821 0.000000 -2.314521
v 0.251739 0.000000 -2.314521
v 0.196962 -0.098179 -0.655477
v 0.108825 -0.098179 -0.655477
v 0.052012 -0.098179 -0.655477
v 0.006596 -0.098179 -0.655477
v 0.217044 0.000000 -0.655477
v 0.249517 0.000000 1.397689
v 0.203753 0.000000 1.600798
v 0.187376 0.000000 1.217614
v 0.101330 0.000000 1.187458
v 0.058308 0.000000 1.172380
v 0.000000 -0.098179 0.000000
v -0.234953 -0.098179 1.000000
v -0.178160 -0.098179 0.000000
v -0.249328 -0.088183 -1.285114
v 0.000000 -0.098179 1.000000
v 0.000000 -0.088183 -1.285114
v -0.341815 -0.098179 1.405867
v -0.433735 -0.098179 -1.453773
v -0.267074 -0.098179 1.728642
v 0.000000 -0.098179 1.778493
v -0.107142 -0.098179 0.000000
v -0.163935 -0.098179 1.000000
v -0.229198 -0.088183 -1.285114
v -0.268854 -0.098179 1.405867
v -0.204650 -0.098179 1.765182
v -0.310039 -0.098179 1.638998
v 0.000000 -0.098179 1.710731
v -0.216325 -0.098179 1.638998
v -0.263895 -0.098179 1.199175
v 0.000000 -0.098179 1.129948
v -0.197528 -0.098179 1.199175
v 0.000000 -0.098179 -1.451885
v -0.354269 -0.098179 -1.453773
v -0.615333 -0.098179 -1.852248
v 0.000000 -0.098179 -1.529975
v -0.577677 -0.098179 -1.852248
v -0.025174 -0.098179 0.000000
v -0.185572 -0.088183 -1.285114
v -0.081968 -0.098179 1.000000
v -0.243152 -0.098179 -1.453773
v -0.098764 -0.098179 1.164562
v -0.393734 -0.098179 -1.743019
v 0.000000 -0.098179 0.000000
v -0.131328 -0.088183 -1.285114
v -0.163109 -0.098179 -1.453773
v -0.191917 -0.098179 -1.565863
v -0.040984 -0.098179 1.000000
v -0.049382 -0.098179 1.147255
v -0.406133 -0.098179 -2.228738
v -0.366129 -0.098179 -2.228738
v -0.317584 -0.098179 -2.228738
v -0.251135 0.000000 1.000000
v -0.194341 0.000000 0.000000
v -0.275610 0.000000 -1.285114
v -0.358438 0.000000 1.405867
v -0.473537 0.000000 -1.453773
v -0.282735 0.000000 1.733561
v 0.000000 0.000000 1.793933
v -0.201989 0.000000 1.793933
v -0.331392 0.000000 1.638998
v -0.302596 0.000000 1.199175
v -0.649500 0.000000 -1.852248
v 0.000000 0.000000 -1.584256
v -0.335443 0.000000 -1.764812
v -0.198481 0.000000 -1.636494
v -0.389750 0.000000 -2.314521
v -0.346821 0.000000 -2.314521
v -0.251739 0.000000 -2.314521
v -0.196962 -0.098179 -0.655477
v 0.000000 -0.098179 -0.655477
v -0.108825 -0.098179 -0.655477
v -0.052012 -0.098179 -0.655477
v -0.006596 -0.098179 -0.655477
v -0.217044 0.000000 -0.655477
v -0.249517 0.000000 1.397689
v 0.000000 0.000000 1.663294
v -0.203753 0.000000 1.600798
v 0.000000 0.000000 1.157302
v -0.187376 0.000000 1.217614
v -0.101330 0.000000 1.187458
v -0.058308 0.000000 1.172380
vt 0.2398 0.1208
vt 0.2398 0.2184
vt 0.0002 0.2764
vt 0.0002 0.2541
vt 0.8695 0.1818
vt 0.8695 0.2604
vt 0.4891 0.1975
vt 0.4891 0.1189
vt 0.3369 0.7601
vt 0.3278 0.7126
vt 0.3647 0.5645
vt 0.3879 0.6854
vt 0.5365 0.4558
vt 0.6753 0.6529
vt 0.6561 0.6700
vt 0.5092 0.4973
vt 0.4675 0.3782
vt 0.4737 0.4364
vt 0.6265 0.3052
vt 0.6753 0.3601
vt 0.5641 0.3534
vt 0.5104 0.2930
vt 0.8695 0.0910
vt 0.4891 0.0281
vt 0.2398 0.0578
vt 0.0002 0.2058
vt 0.3236 0.6907
vt 0.3481 0.4781
vt 0.9453 0.2190
vt 0.9453 0.2925
vt 0.8695 0.0456
vt 0.8695 0.0003
vt 0.9189 0.0003
vt 0.9255 0.0549
vt 0.4670 0.2930
vt 0.4645 0.5009
vt 0.3231 0.6395
vt 0.2399 0.6684
vt 0.0002 0.5911
vt 0.0396 0.5774
vt 0.4045 0.7724
vt 0.4404 0.7331
vt 0.9321 0.1096
vt 0.2398 0.0076
vt 0.0002 0.1457
vt 0.4891 0.0003
vt 0.3482 0.8191
vt 0.3755 0.9619
vt 0.4378 0.9500
vt 0.4891 0.0003
vt 0.2398 0.0003
vt 0.0002 0.0002
vt 0.4670 0.9444
vt 0.2457 0.5499
vt 0.2141 0.3653
vt 0.2649 0.3477
vt 0.1722 0.3798
vt 0.5461 0.6705
vt 0.6348 0.6705
vt 0.6348 0.7079
vt 0.5461 0.7079
vt 0.3231 0.2930
vt 0.3040 0.5209
vt 0.4675 0.6705
vt 0.4675 0.7079
vt 0.7596 0.9624
vt 0.5471 0.9624
vt 0.5398 0.9997
vt 0.7596 0.9997
vt 0.6758 0.4666
vt 0.6758 0.6983
vt 0.7132 0.7362
vt 0.7132 0.4485
vt 0.7137 0.6363
vt 0.7137 0.5888
vt 0.7510 0.6061
vt 0.7510 0.6600
vt 0.9458 0.0760
vt 0.9458 0.0002
vt 0.9831 0.0002
vt 0.9831 0.0760
vt 0.6758 0.4972
vt 0.7132 0.5413
vt 0.3236 0.9624
vt 0.3881 0.9997
vt 0.6758 0.4223
vt 0.7132 0.4010
vt 0.9458 0.7057
vt 0.9458 0.4564
vt 0.9831 0.4564
vt 0.9831 0.7057
vt 0.7137 0.5196
vt 0.7137 0.2930
vt 0.7510 0.2930
vt 0.7510 0.5167
vt 0.6796 0.2930
vt 0.7132 0.3221
vt 0.7137 0.7334
vt 0.7137 0.7872
vt 0.7510 0.7658
vt 0.7510 0.6605
vt 0.0002 0.7105
vt 0.2398 0.7067
vt 0.2398 0.7441
vt 0.0002 0.7441
vt 0.2403 0.6689
vt 0.2403 0.7576
vt 0.2777 0.7607
vt 0.2777 0.6834
vt 0.7889 0.5360
vt 0.7889 0.5907
vt 0.7515 0.5907
vt 0.7515 0.5262
vt 0.7889 0.3720
vt 0.7889 0.4814
vt 0.7515 0.4785
vt 0.7515 0.3832
vt 0.7889 0.2930
vt 0.7515 0.3144
vt 0.2398 0.6689
vt 0.0002 0.6689
vt 0.0142 0.7062
vt 0.2398 0.7062
vt 0.2398 0.1208
vt 0.0002 0.2541
vt 0.0002 0.2764
vt 0.2398 0.2184
vt 0.8695 0.1818
vt 0.4891 0.1189
vt 0.4891 0.1975
vt 0.8695 0.2604
vt 0.3369 0.7601
vt 0.3879 0.6854
vt 0.3647 0.5645
vt 0.3278 0.7126
vt 0.5365 0.4558
vt 0.5092 0.4973
vt 0.4675 0.3782
vt 0.4737 0.4364
vt 0.6265 0.3052
vt 0.5104 0.2930
vt 0.5641 0.3534
vt 0.6753 0.3601
vt 0.8695 0.0910
vt 0.4891 0.0281
vt 0.2398 0.0578
vt 0.0002 0.2058
vt 0.3481 0.4781
vt 0.3236 0.6907
vt 0.9453 0.2925
vt 0.9453 0.2190
vt 0.8695 0.0456
vt 0.9255 0.0549
vt 0.4645 0.5009
vt 0.4670 0.2930
vt 0.3231 0.6395
vt 0.0396 0.5774
vt 0.0002 0.5911
vt 0.2399 0.6684
vt 0.4045 0.7724
vt 0.4404 0.7331
vt 0.9321 0.1096
vt 0.2398 0.0076
vt 0.0002 0.1457
vt 0.3482 0.8191
vt 0.2457 0.5499
vt 0.2649 0.3477
vt 0.2141 0.3653
vt 0.1722 0.3798
vt 0.5461 0.6705
vt 0.5461 0.7079
vt 0.6348 0.7079
vt 0.6348 0.6705
vt 0.3040 0.5209
vt 0.3231 0.2930
vt 0.4675 0.6705
vt 0.4675 0.7079
vt 0.5398 0.9997
vt 0.5471 0.9624
vt 0.6758 0.4666
vt 0.7132 0.4485
vt 0.7132 0.7362
vt 0.6758 0.6983
vt 0.7137 0.6363
vt 0.7510 0.6600
vt 0.7510 0.6061
vt 0.7137 0.5888
vt 0.9458 0.0760
vt 0.9831 0.0760
vt 0.9831 0.0002
vt 0.9458 0.0002
vt 0.7132 0.5413
vt 0.6758 0.4972
vt 0.3881 0.9997
vt 0.3236 0.9624
vt 0.6758 0.4223
vt 0.7132 0.4010
vt 0.9458 0.7057
vt 0.9831 0.7057
vt 0.9831 0.4564
vt 0.9458 0.4564
vt 0.7137 0.5196
vt 0.7510 0.5167
vt 0.7132 0.3221
vt 0.6796 0.2930
vt 0.7137 0.7334
vt 0.7510 0.6605
vt 0.7510 0.7658
vt 0.7137 0.7872
vt 0.0002 0.7105
vt 0.0002 0.7441
vt 0.2398 0.7441
vt 0.2398 0.7067
vt 0.2403 0.6689
vt 0.2777 0.6834
vt 0.2777 0.7607
vt 0.2403 0.7576
vt 0.7889 0.5360
vt 0.7515 0.5262
vt 0.7889 0.3720
vt 0.7515 0.3832
vt 0.7515 0.4785
vt 0.7889 0.4814
vt 0.7889 0.2930
vt 0.7515 0.3144
vt 0.0142 0.7062
vt 0.0002 0.6689
vt 0.2398 0.1208
vt 0.0002 0.2541
vt 0.0002 0.2764
vt 0.2398 0.2184
vt 0.8695 0.1818
vt 0.4891 0.1189
vt 0.4891 0.1975
vt 0.8695 0.2604
vt 0.3369 0.7601
vt 0.3879 0.6854
vt 0.3647 0.5645
vt 0.3278 0.7126
vt 0.5365 0.4558
vt 0.5092 0.4973
vt 0.6561 0.6700
vt 0.6753 0.6529
vt 0.4675 0.3782
vt 0.4737 0.4364
vt 0.6265 0.3052
vt 0.5104 0.2930
vt 0.5641 0.3534
vt 0.6753 0.3601
vt 0.8695 0.0910
vt 0.4891 0.0281
vt 0.2398 0.0578
vt 0.0002 0.2058
vt 0.3481 0.4781
vt 0.3236 0.6907
vt 0.9453 0.2925
vt 0.9453 0.2190
vt 0.8695 0.0456
vt 0.9255 0.0549
vt 0.9189 0.0003
vt 0.8695 0.0003
vt 0.4645 0.5009
vt 0.4670 0.2930
vt 0.3231 0.6395
vt 0.0396 0.5774
vt 0.0002 0.5911
vt 0.2399 0.6684
vt 0.4045 0.7724
vt 0.4404 0.7331
vt 0.9321 0.1096
vt 0.2398 0.0076
vt 0.0002 0.1457
vt 0.4891 0.0003
vt 0.3482 0.8191
vt 0.3755 0.9619
vt 0.4378 0.9500
vt 0.4891 0.0003
vt 0.2398 0.0003
vt 0.0002 0.0002
vt 0.4670 0.9444
vt 0.2457 0.5499
vt 0.2649 0.3477
vt 0.2141 0.3653
vt 0.1722 0.3798
vt 0.5461 0.6705
vt 0.6348 0.6705
vt 0.4675 0.6705
vt 0.7596 0.9624
vt 0.5471 0.9624
vt 0.6758 0.4666
vt 0.6758 0.6983
vt 0.7137 0.6363
vt 0.7137 0.5888
vt 0.9458 0.0760
vt 0.9458 0.0002
vt 0.6758 0.4972
vt 0.3236 0.9624
vt 0.6758 0.4223
vt 0.9458 0.7057
vt 0.9458 0.4564
vt 0.7137 0.5196
vt 0.7137 0.2930
vt 0.6796 0.2930
vt 0.7137 0.7334
vt 0.7137 0.7872
vt 0.0002 0.7105
vt 0.2398 0.7067
vt 0.2403 0.6689
vt 0.2403 0.7576
vt 0.7889 0.5360
vt 0.7889 0.5907
vt 0.7889 0.3720
vt 0.7889 0.4814
vt 0.7889 0.2930
vt 0.2398 0.6689
vt 0.0002 0.6689
vt 0.2398 0.1208
vt 0.2398 0.2184
vt 0.0002 0.2764
vt 0.0002 0.2541
vt 0.8695 0.1818
vt 0.8695 0.2604
vt 0.4891 0.1975
vt 0.4891 0.1189
vt 0.3369 0.7601
vt 0.3278 0.7126
vt 0.3647 0.5645
vt 0.3879 0.6854
vt 0.5365 0.4558
vt 0.5092 0.4973
vt 0.4675 0.3782
vt 0.4737 0.4364
vt 0.6265 0.3052
vt 0.6753 0.3601
vt 0.5641 0.3534
vt 0.5104 0.2930
vt 0.8695 0.0910
vt 0.4891 0.0281
vt 0.2398 0.0578
vt 0.0002 0.2058
vt 0.3236 0.6907
vt 0.3481 0.4781
vt 0.9453 0.2190
vt 0.9453 0.2925
vt 0.8695 0.0456
vt 0.9255 0.0549
vt 0.4670 0.2930
vt 0.4645 0.5009
vt 0.3231 0.6395
vt 0.2399 0.6684
vt 0.0002 0.5911
vt 0.0396 0.5774
vt 0.4045 0.7724
vt 0.4404 0.7331
vt 0.9321 0.1096
vt 0.2398 0.0076
vt 0.0002 0.1457
vt 0.3482 0.8191
vt 0.2457 0.5499
vt 0.2141 0.3653
vt 0.2649 0.3477
vt 0.1722 0.3798
vt 0.5461 0.6705
vt 0.6348 0.6705
vt 0.4675 0.6705
vt 0.5471 0.9624
vt 0.6758 0.4666
vt 0.6758 0.6983
vt 0.7137 0.6363
vt 0.7137 0.5888
vt 0.9458 0.0760
vt 0.9458 0.0002
vt 0.6758 0.4972
vt 0.3236 0.9624
vt 0.6758 0.4223
vt 0.9458 0.7057
vt 0.9458 0.4564
vt 0.7137 0.5196
vt 0.6796 0.2930
vt 0.7137 0.7334
vt 0.7137 0.7872
vt 0.0002 0.7105
vt 0.2398 0.7067
vt 0.2403 0.6689
vt 0.2403 0.7576
vt 0.7889 0.5360
vt 0.7889 0.3720
vt 0.7889 0.4814
vt 0.7889 0.2930
vt 0.0002 0.6689
vn 0.0000 0.9999 -0.0159
vn 0.0000 1.0000 -0.0000
vn 0.0000 0.9982 0.0592
vn 0.0004 0.9982 0.0595
vn 0.9744 0.1884 0.1229
vn -0.8692 0.4760 0.1342
vn 0.9190 0.2589 -0.2974
vn -0.1877 0.5227 -0.8316
vn 0.8378 0.2805 -0.4684
vn 0.8812 0.1771 0.4383
vn 0.9454 0.2642 -0.1908
vn 0.8628 0.3250 0.3871
vn -0.5927 0.4655 -0.6573
vn 0.0000 0.6580 -0.7530
vn 0.9829 0.1815 0.0311
vn 0.0319 0.2190 0.9752
vn 0.6409 0.2273 0.7332
vn 0.5518 0.1763 0.8151
vn 0.9851 0.1624 -0.0559
vn 0.9670 0.2406 0.0833
vn -0.9546 0.2059 -0.2151
vn -0.2799 0.2360 0.9306
vn -0.3236 0.2069 0.9233
vn -0.9336 0.1570 0.3222
vn -0.2791 0.3988 -0.8735
vn -0.0004 0.9982 0.0595
vn -0.9744 0.1884 0.1229
vn 0.8692 0.4760 0.1342
vn -0.9190 0.2589 -0.2974
vn 0.1877 0.5227 -0.8316
vn -0.8378 0.2805 -0.4684
vn -0.8812 0.1771 0.4383
vn -0.9454 0.2642 -0.1908
vn -0.8628 0.3250 0.3871
vn 0.5927 0.4655 -0.6573
vn -0.9829 0.1815 0.0311
vn -0.0319 0.2190 0.9752
vn -0.6409 0.2273 0.7332
vn -0.5518 0.1763 0.8151
vn -0.9851 0.1624 -0.0559
vn -0.9670 0.2406 0.0833
vn 0.9546 0.2059 -0.2151
vn 0.2799 0.2360 0.9306
vn 0.3236 0.2069 0.9233
vn 0.9336 0.1570 0.3222
vn 0.2791 0.3988 -0.8735
vn 0.0000 -0.9999 -0.0159
vn 0.0000 -1.0000 -0.0000
vn 0.0000 -0.9982 0.0592
vn 0.0004 -0.9982 0.0595
vn 0.9744 -0.1884 0.1229
vn -0.8692 -0.4760 0.1342
vn 0.9190 -0.2589 -0.2974
vn -0.1877 -0.5227 -0.8316
vn 0.8378 -0.2805 -0.4684
vn 0.8812 -0.1771 0.4383
vn 0.9454 -0.2642 -0.1908
vn 0.8628 -0.3250 0.3871
vn -0.5927 -0.4655 -0.6573
vn 0.0000 -0.6580 -0.7530
vn 0.9829 -0.1815 0.0311
vn 0.0319 -0.2190 0.9752
vn 0.6409 -0.2273 0.7332
vn 0.5518 -0.1763 0.8151
vn 0.9851 -0.1624 -0.0559
vn 0.9670 -0.2406 0.0833
vn -0.9546 -0.2059 -0.2151
vn -0.2799 -0.2360 0.9306
vn -0.3236 -0.2069 0.9233
vn -0.9336 -0.1570 0.3222
vn -0.2791 -0.3988 -0.8735
vn -0.0004 -0.9982 0.0595
vn -0.9744 -0.1884 0.1229
vn 0.8692 -0.4760 0.1342
vn -0.9190 -0.2589 -0.2974
vn 0.1877 -0.5227 -0.8316
vn -0.8378 -0.2805 -0.4684
vn -0.8812 -0.1771 0.4383
vn -0.9454 -0.2642 -0.1908
vn -0.8628 -0.3250 0.3871
vn 0.5927 -0.4655 -0.6573
vn -0.9829 -0.1815 0.0311
vn -0.0319 -0.2190 0.9752
vn -0.6409 -0.2273 0.7332
vn -0.5518 -0.1763 0.8151
vn -0.9851 -0.1624 -0.0559
vn -0.9670 -0.2406 0.0833
vn 0.9546 -0.2059 -0.2151
vn 0.2799 -0.2360 0.9306
vn 0.3236 -0.2069 0.9233
vn 0.9336 -0.1570 0.3222
vn 0.2791 -0.3988 -0.8735
usemtl Material.001
s off
f 34/1/1 33/2/1 3/3/1 9/4/1
f 8/5/2 1/6/2 2/7/2 7/8/2
f 20/9/3 9/10/3 16/11/3 22/12/3
f 13/13/2 53/14/2 46/15/2 11/16/2
f 12/17/2 13/13/2 11/16/2 6/18/2
f 14/19/2 15/20/2 10/21/2 4/22/2
f 21/23/2 8/5/2 7/8/2 19/24/2
f 35/25/1 34/1/1 9/4/1 20/26/1
f 4/22/2 10/21/2 13/13/2 12/17/2
f 9/10/3 3/27/3 5/28/3 16/11/3
f 1/6/2 8/5/2 15/29/2 14/30/2
f 28/31/2 41/32/2 56/33/2 29/34/2
f 22/12/2 16/11/2 18/35/2 24/36/2
f 16/37/2 5/38/2 17/39/2 18/40/2
f 26/41/2 22/12/2 24/36/2 27/42/2
f 8/5/2 21/23/2 23/43/2 15/29/2
f 36/44/1 35/25/1 20/26/1 25/45/1
f 28/31/2 21/23/2 19/24/2 69/46/2
f 25/47/3 20/9/3 22/12/3 26/41/3
f 42/48/4 25/47/4 26/41/4 58/49/4
f 41/32/2 28/31/2 69/46/2 37/50/2
f 79/51/1 36/44/1 25/45/1 42/52/1
f 58/49/2 26/41/2 27/42/2 61/53/2
f 21/23/2 28/31/2 29/34/2 23/43/2
f 24/54/2 18/40/2 31/55/2 32/56/2
f 18/40/2 17/39/2 30/57/2 31/55/2
f 4/58/5 12/59/5 122/60/5 118/61/5
f 24/54/6 32/56/6 129/62/6 125/63/6
f 14/64/7 4/58/7 118/61/7 123/65/7
f 61/66/8 27/67/8 126/68/8 192/69/8
f 30/70/9 17/71/9 124/72/9 127/73/9
f 12/74/10 6/75/10 120/76/10 122/77/10
f 1/78/11 14/79/11 123/80/11 115/81/11
f 17/71/12 5/82/12 119/83/12 124/72/12
f 27/67/13 24/84/13 125/85/13 126/68/13
f 31/86/14 30/70/14 127/73/14 128/87/14
f 33/88/15 2/89/15 116/90/15 134/91/15
f 11/92/16 46/93/16 187/94/16 121/95/16
f 5/82/17 3/96/17 117/97/17 119/83/17
f 6/75/18 11/92/18 121/95/18 120/76/18
f 32/98/14 31/99/14 128/100/14 129/101/14
f 2/89/19 1/78/19 115/81/19 116/90/19
f 3/102/20 33/103/20 134/104/20 117/105/20
f 37/50/2 69/46/2 36/44/2 79/51/2
f 69/46/2 19/24/2 35/25/2 36/44/2
f 19/24/2 7/8/2 34/1/2 35/25/2
f 7/8/2 2/7/2 33/2/2 34/1/2
f 13/106/21 10/107/21 135/108/21 136/109/21
f 29/110/22 56/111/22 207/112/22 139/113/22
f 15/114/23 23/115/23 138/116/23 137/117/23
f 23/115/23 29/110/23 139/113/23 138/116/23
f 10/118/24 15/114/24 137/117/24 135/119/24
f 53/120/25 13/121/25 136/122/25 205/123/25
f 80/124/1 49/125/1 40/126/1 78/127/1
f 48/128/2 47/129/2 39/130/2 38/131/2
f 64/132/3 66/133/3 59/134/3 49/135/3
f 54/136/2 51/137/2 46/15/2 53/14/2
f 52/138/2 45/139/2 51/137/2 54/136/2
f 55/140/2 43/141/2 50/142/2 57/143/2
f 65/144/2 63/145/2 47/129/2 48/128/2
f 81/146/1 64/147/1 49/125/1 80/124/1
f 43/141/2 52/138/2 54/136/2 50/142/2
f 49/135/3 59/134/3 44/148/3 40/149/3
f 38/131/2 55/150/2 57/151/2 48/128/2
f 73/152/2 74/153/2 56/33/2 41/32/2
f 66/133/2 68/154/2 62/155/2 59/134/2
f 59/156/2 62/157/2 60/158/2 44/159/2
f 71/160/2 72/161/2 68/154/2 66/133/2
f 48/128/2 57/151/2 67/162/2 65/144/2
f 82/163/1 70/164/1 64/147/1 81/146/1
f 73/152/2 69/46/2 63/145/2 65/144/2
f 70/165/3 71/160/3 66/133/3 64/132/3
f 42/48/26 58/49/26 71/160/26 70/165/26
f 41/32/2 37/50/2 69/46/2 73/152/2
f 79/51/1 42/52/1 70/164/1 82/163/1
f 58/49/2 61/53/2 72/161/2 71/160/2
f 65/144/2 67/162/2 74/153/2 73/152/2
f 68/166/2 77/167/2 76/168/2 62/157/2
f 62/157/2 76/168/2 75/169/2 60/158/2
f 43/170/27 184/171/27 189/172/27 52/173/27
f 68/166/28 193/174/28 197/175/28 77/167/28
f 55/176/29 190/177/29 184/171/29 43/170/29
f 61/66/30 192/69/30 194/178/30 72/179/30
f 75/180/31 195/181/31 191/182/31 60/183/31
f 52/184/32 189/185/32 186/186/32 45/187/32
f 38/188/33 181/189/33 190/190/33 55/191/33
f 60/183/34 191/182/34 185/192/34 44/193/34
f 72/179/35 194/178/35 193/194/35 68/195/35
f 76/196/14 196/197/14 195/181/14 75/180/14
f 78/198/36 203/199/36 182/200/36 39/201/36
f 51/202/37 188/203/37 187/94/37 46/93/37
f 44/193/38 185/192/38 183/204/38 40/205/38
f 45/187/39 186/186/39 188/203/39 51/202/39
f 77/206/14 197/207/14 196/208/14 76/209/14
f 39/201/40 182/200/40 181/189/40 38/188/40
f 40/210/41 183/211/41 203/212/41 78/213/41
f 37/50/2 79/51/2 82/163/2 69/46/2
f 69/46/2 82/163/2 81/146/2 63/145/2
f 63/145/2 81/146/2 80/124/2 47/129/2
f 47/129/2 80/124/2 78/127/2 39/130/2
f 54/214/42 206/215/42 204/216/42 50/217/42
f 74/218/43 210/219/43 207/112/43 56/111/43
f 57/220/44 208/221/44 209/222/44 67/223/44
f 67/223/44 209/222/44 210/219/44 74/218/44
f 50/224/45 204/225/45 208/221/45 57/220/45
f 53/120/46 205/123/46 206/226/46 54/227/46
f 131/228/47 91/229/47 85/230/47 130/231/47
f 90/232/48 89/233/48 84/234/48 83/235/48
f 102/236/49 104/237/49 98/238/49 91/239/49
f 95/240/48 93/241/48 149/242/48 156/243/48
f 94/244/48 88/245/48 93/241/48 95/240/48
f 96/246/48 86/247/48 92/248/48 97/249/48
f 103/250/48 101/251/48 89/233/48 90/232/48
f 132/252/47 102/253/47 91/229/47 131/228/47
f 86/247/48 94/244/48 95/240/48 92/248/48
f 91/239/49 98/238/49 87/254/49 85/255/49
f 83/235/48 96/256/48 97/257/48 90/232/48
f 110/258/48 111/259/48 159/260/48 144/261/48
f 104/237/48 106/262/48 100/263/48 98/238/48
f 98/264/48 100/265/48 99/266/48 87/267/48
f 108/268/48 109/269/48 106/262/48 104/237/48
f 90/232/48 97/257/48 105/270/48 103/250/48
f 133/271/47 107/272/47 102/253/47 132/252/47
f 110/258/48 172/273/48 101/251/48 103/250/48
f 107/274/49 108/268/49 104/237/49 102/236/49
f 145/275/50 161/276/50 108/268/50 107/274/50
f 144/261/48 140/277/48 172/273/48 110/258/48
f 199/278/47 145/279/47 107/272/47 133/271/47
f 161/276/48 164/280/48 109/269/48 108/268/48
f 103/250/48 105/270/48 111/259/48 110/258/48
f 106/281/48 114/282/48 113/283/48 100/265/48
f 100/265/48 113/283/48 112/284/48 99/266/48
f 86/285/51 118/61/51 122/60/51 94/286/51
f 106/281/52 125/63/52 129/62/52 114/282/52
f 96/287/53 123/65/53 118/61/53 86/285/53
f 164/288/54 192/69/54 126/68/54 109/289/54
f 112/290/55 127/73/55 124/72/55 99/291/55
f 94/292/56 122/77/56 120/76/56 88/293/56
f 83/294/57 115/81/57 123/80/57 96/295/57
f 99/291/58 124/72/58 119/83/58 87/296/58
f 109/289/59 126/68/59 125/85/59 106/297/59
f 113/298/60 128/87/60 127/73/60 112/290/60
f 130/299/61 134/91/61 116/90/61 84/300/61
f 93/301/62 121/95/62 187/94/62 149/302/62
f 87/296/63 119/83/63 117/97/63 85/303/63
f 88/293/64 120/76/64 121/95/64 93/301/64
f 114/304/60 129/101/60 128/100/60 113/305/60
f 84/300/65 116/90/65 115/81/65 83/294/65
f 85/306/66 117/105/66 134/104/66 130/307/66
f 140/277/48 199/278/48 133/271/48 172/273/48
f 172/273/48 133/271/48 132/252/48 101/251/48
f 101/251/48 132/252/48 131/228/48 89/233/48
f 89/233/48 131/228/48 130/231/48 84/234/48
f 95/308/67 136/109/67 135/108/67 92/309/67
f 111/310/68 139/113/68 207/112/68 159/311/68
f 97/312/69 137/117/69 138/116/69 105/313/69
f 105/313/69 138/116/69 139/113/69 111/310/69
f 92/314/70 135/119/70 137/117/70 97/312/70
f 156/315/71 205/123/71 136/122/71 95/316/71
f 200/317/47 198/318/47 143/319/47 152/320/47
f 151/321/48 141/322/48 142/323/48 150/324/48
f 167/325/49 152/326/49 162/327/49 169/328/49
f 157/329/48 156/243/48 149/242/48 154/330/48
f 155/331/48 157/329/48 154/330/48 148/332/48
f 158/333/48 160/334/48 153/335/48 146/336/48
f 168/337/48 151/321/48 150/324/48 166/338/48
f 201/339/47 200/317/47 152/320/47 167/340/47
f 146/336/48 153/335/48 157/329/48 155/331/48
f 152/326/49 143/341/49 147/342/49 162/327/49
f 141/322/48 151/321/48 160/343/48 158/344/48
f 176/345/48 144/261/48 159/260/48 177/346/48
f 169/328/48 162/327/48 165/347/48 171/348/48
f 162/349/48 147/350/48 163/351/48 165/352/48
f 174/353/48 169/328/48 171/348/48 175/354/48
f 151/321/48 168/337/48 170/355/48 160/343/48
f 202/356/47 201/339/47 167/340/47 173/357/47
f 176/345/48 168/337/48 166/338/48 172/273/48
f 173/358/49 167/325/49 169/328/49 174/353/49
f 145/275/72 173/358/72 174/353/72 161/276/72
f 144/261/48 176/345/48 172/273/48 140/277/48
f 199/278/47 202/356/47 173/357/47 145/279/47
f 161/276/48 174/353/48 175/354/48 164/280/48
f 168/337/48 176/345/48 177/346/48 170/355/48
f 171/359/48 165/352/48 179/360/48 180/361/48
f 165/352/48 163/351/48 178/362/48 179/360/48
f 146/363/73 155/364/73 189/172/73 184/171/73
f 171/359/74 180/361/74 197/175/74 193/174/74
f 158/365/75 146/363/75 184/171/75 190/177/75
f 164/288/76 175/366/76 194/178/76 192/69/76
f 178/367/77 163/368/77 191/182/77 195/181/77
f 155/369/78 148/370/78 186/186/78 189/185/78
f 141/371/79 158/372/79 190/190/79 181/189/79
f 163/368/80 147/373/80 185/192/80 191/182/80
f 175/366/81 171/374/81 193/194/81 194/178/81
f 179/375/60 178/367/60 195/181/60 196/197/60
f 198/376/82 142/377/82 182/200/82 203/199/82
f 154/378/83 149/302/83 187/94/83 188/203/83
f 147/373/84 143/379/84 183/204/84 185/192/84
f 148/370/85 154/378/85 188/203/85 186/186/85
f 180/380/60 179/381/60 196/208/60 197/207/60
f 142/377/86 141/371/86 181/189/86 182/200/86
f 143/382/87 198/383/87 203/212/87 183/211/87
f 140/277/48 172/273/48 202/356/48 199/278/48
f 172/273/48 166/338/48 201/339/48 202/356/48
f 166/338/48 150/324/48 200/317/48 201/339/48
f 150/324/48 142/323/48 198/318/48 200/317/48
f 157/384/88 153/385/88 204/216/88 206/215/88
f 177/386/89 159/311/89 207/112/89 210/219/89
f 160/387/90 170/388/90 209/222/90 208/221/90
f 170/388/90 177/386/90 210/219/90 209/222/90
f 153/389/91 160/387/91 208/221/91 204/225/91
f 156/315/92 157/390/92 206/226/92 205/123/92
