# Blender v2.78 (sub 0) OBJ File: 'toycar51x.blend'
# www.blender.org
mtllib wheel.mtl
o Cylinder
v -0.497729 -0.049035 1.047140
v -0.497729 -0.310580 1.308685
v -0.497729 -0.310580 1.678565
v -0.497729 -0.049035 1.940110
v -0.497729 0.320845 1.940110
v -0.497729 0.582390 1.678565
v -0.342870 0.135905 1.493625
v -0.497729 0.582390 1.308685
v -0.497729 0.320845 1.047140
v -0.583218 0.135905 1.493625
v -0.377521 -0.029312 1.094756
v -0.377521 -0.262964 1.328408
v -0.377521 -0.262964 1.658842
v -0.377521 -0.029312 1.892494
v -0.377522 0.301122 1.892493
v -0.377522 0.534773 1.658842
v -0.377522 0.534773 1.328408
v -0.377522 0.301122 1.094757
v -0.356242 0.005923 1.179821
v -0.356242 -0.177899 1.363643
v -0.356242 -0.177899 1.623607
v -0.356242 0.005923 1.807429
v -0.356242 0.265887 1.807429
v -0.356242 0.449709 1.623607
v -0.356242 0.449709 1.363643
v -0.356242 0.265887 1.179821
v -0.369682 0.034894 1.249764
v -0.369682 -0.107956 1.392614
v -0.369682 -0.107956 1.594636
v -0.369682 0.034894 1.737486
v -0.369682 0.236915 1.737486
v -0.369682 0.379766 1.594635
v -0.369682 0.379766 1.392614
v -0.369682 0.236915 1.249764
v -0.356276 0.067117 1.327556
v -0.356276 -0.030164 1.424837
v -0.356276 -0.030164 1.562413
v -0.356276 0.067117 1.659694
v -0.356276 0.204693 1.659694
v -0.356276 0.301974 1.562413
v -0.356276 0.301974 1.424837
v -0.356276 0.204693 1.327556
v -0.561846 -0.002800 1.158761
v -0.424933 -0.044104 1.059044
v -0.497729 0.135905 1.008838
v -0.497729 -0.206891 1.150829
v -0.561846 -0.198959 1.354920
v -0.424933 -0.298676 1.313616
v -0.497729 -0.348882 1.493625
v -0.561846 -0.198959 1.632330
v -0.424933 -0.298676 1.673634
v -0.497729 -0.206891 1.836421
v -0.561846 -0.002800 1.828489
v -0.424933 -0.044104 1.928206
v -0.497729 0.135905 1.978412
v -0.561846 0.274610 1.828489
v -0.424933 0.315914 1.928206
v -0.497729 0.478701 1.836421
v -0.561846 0.470769 1.632330
v -0.424933 0.570486 1.673634
v -0.497729 0.620692 1.493625
v -0.561846 0.470769 1.354920
v -0.424933 0.570486 1.313616
v -0.497729 0.478701 1.150829
v -0.561846 0.274610 1.158762
v -0.424933 0.315914 1.059044
v -0.354842 -0.010642 1.139831
v -0.354842 -0.217889 1.347079
v -0.354842 -0.217889 1.640171
v -0.354842 -0.010642 1.847419
v -0.354842 0.282451 1.847419
v -0.354842 0.489699 1.640171
v -0.354842 0.489699 1.347079
v -0.354842 0.282451 1.139831
v -0.377521 0.135905 1.060539
v -0.377521 -0.170333 1.187387
v -0.377521 -0.297181 1.493625
v -0.377521 -0.170333 1.799863
v -0.377521 0.135905 1.926711
v -0.377522 0.442143 1.799863
v -0.377522 0.568991 1.493625
v -0.377522 0.442143 1.187387
v -0.366322 0.020922 1.216031
v -0.366322 -0.141689 1.378642
v -0.366322 -0.141689 1.608608
v -0.366322 0.020922 1.771219
v -0.366322 0.250888 1.771219
v -0.366322 0.413499 1.608608
v -0.366322 0.413499 1.378642
v -0.366322 0.250888 1.216031
v -0.356242 0.135905 1.152901
v -0.356242 -0.105024 1.252697
v -0.356242 -0.204819 1.493625
v -0.356242 -0.105024 1.734553
v -0.356242 0.135905 1.834349
v -0.356242 0.376833 1.734553
v -0.356242 0.476629 1.493625
v -0.356242 0.376833 1.252697
v -0.366330 0.049680 1.285460
v -0.366330 -0.072261 1.407400
v -0.366330 -0.072261 1.579850
v -0.366330 0.049680 1.701791
v -0.366330 0.222130 1.701791
v -0.366330 0.344070 1.579850
v -0.366330 0.344070 1.407400
v -0.366330 0.222130 1.285460
v -0.369682 0.135905 1.228844
v -0.369682 -0.051324 1.306397
v -0.369682 -0.128876 1.493625
v -0.369682 -0.051324 1.680853
v -0.369682 0.135905 1.758406
v -0.369682 0.323133 1.680853
v -0.369682 0.400686 1.493625
v -0.369682 0.323133 1.306397
v -0.346222 0.093695 1.391722
v -0.346221 0.034002 1.451415
v -0.346221 0.034002 1.535835
v -0.346222 0.093695 1.595528
v -0.346222 0.178115 1.595528
v -0.346222 0.237808 1.535835
v -0.346222 0.237808 1.451415
v -0.346222 0.178115 1.391722
v -0.356276 0.135905 1.313310
v -0.356276 0.008403 1.366123
v -0.356276 -0.044411 1.493625
v -0.356276 0.008403 1.621127
v -0.356276 0.135905 1.673940
v -0.356276 0.263407 1.621127
v -0.356276 0.316220 1.493625
v -0.356276 0.263407 1.366123
v -0.545223 0.135905 1.079726
v -0.348828 0.135905 1.359809
v -0.545223 -0.156766 1.200954
v -0.348828 0.041282 1.399002
v -0.545223 -0.277994 1.493625
v -0.348828 0.002088 1.493625
v -0.545223 -0.156766 1.786296
v -0.348828 0.041282 1.588248
v -0.545223 0.135905 1.907524
v -0.348828 0.135905 1.627442
v -0.545223 0.428575 1.786296
v -0.348828 0.230527 1.588248
v -0.545223 0.549804 1.493625
v -0.348828 0.269721 1.493625
v -0.545223 0.428575 1.200954
v -0.348828 0.230527 1.399002
v -0.424933 -0.197752 1.159968
v -0.424933 0.135905 1.021763
v -0.424933 -0.335957 1.493625
v -0.424933 -0.197752 1.827282
v -0.424933 0.135905 1.965487
v -0.424933 0.469562 1.827282
v -0.424933 0.607767 1.493625
v -0.424933 0.469562 1.159968
v -0.354842 -0.135727 1.221993
v -0.354842 0.135905 1.109480
v -0.354842 -0.248240 1.493625
v -0.354842 -0.135727 1.765257
v -0.354842 0.135905 1.877770
v -0.354842 0.407536 1.765257
v -0.354842 0.520050 1.493625
v -0.354842 0.407536 1.221994
v -0.366322 -0.077223 1.280497
v -0.366322 0.135905 1.192217
v -0.366322 -0.165503 1.493625
v -0.366322 -0.077223 1.706753
v -0.366322 0.135905 1.795033
v -0.366322 0.349033 1.706753
v -0.366322 0.437313 1.493625
v -0.366322 0.349033 1.280497
v -0.366330 -0.023918 1.333802
v -0.366330 0.135905 1.267602
v -0.366330 -0.090118 1.493625
v -0.366330 -0.023918 1.653448
v -0.366330 0.135905 1.719648
v -0.366330 0.295728 1.653448
v -0.366330 0.361928 1.493625
v -0.366330 0.295728 1.333802
vt 0.5625 0.6448
vt 0.5625 0.6715
vt 0.5000 0.6715
vt 0.5000 0.6448
vt 0.5000 0.6181
vt 0.5625 0.6181
vt 0.6250 0.6181
vt 0.6250 0.6448
vt 0.6250 0.6715
vt 0.6875 0.6448
vt 0.6875 0.6715
vt 0.6875 0.6181
vt 0.7500 0.6181
vt 0.7500 0.6448
vt 0.7500 0.6715
vt 0.8124 0.6448
vt 0.8124 0.6715
vt 0.8124 0.6181
vt 0.8749 0.6181
vt 0.8749 0.6448
vt 0.8749 0.6715
vt 0.9374 0.6448
vt 0.9374 0.6715
vt 0.9374 0.6181
vt 0.9999 0.6181
vt 0.9999 0.6448
vt 0.9999 0.6715
vt 0.0626 0.6448
vt 0.0626 0.6715
vt 0.0001 0.6715
vt 0.0001 0.6448
vt 0.0001 0.6181
vt 0.0626 0.6181
vt 0.1251 0.6181
vt 0.1251 0.6448
vt 0.1251 0.6715
vt 0.1876 0.6448
vt 0.1876 0.6715
vt 0.1876 0.6181
vt 0.2500 0.6181
vt 0.2500 0.6448
vt 0.2500 0.6715
vt 0.1581 0.1581
vt 0.1915 0.1583
vt 0.1955 0.1739
vt 0.1816 0.1819
vt 0.1734 0.1957
vt 0.1579 0.1914
vt 0.1423 0.1954
vt 0.1343 0.1815
vt 0.1204 0.1733
vt 0.1246 0.1578
vt 0.1206 0.1422
vt 0.1346 0.1343
vt 0.1428 0.1204
vt 0.1583 0.1247
vt 0.1739 0.1207
vt 0.1819 0.1346
vt 0.1957 0.1428
vt 0.3125 0.6448
vt 0.3125 0.6715
vt 0.3125 0.6181
vt 0.3750 0.6181
vt 0.3750 0.6448
vt 0.3750 0.6715
vt 0.4375 0.6448
vt 0.4375 0.6715
vt 0.4375 0.6181
vt 0.1509 0.4671
vt 0.1509 0.3162
vt 0.2134 0.3162
vt 0.2576 0.3604
vt 0.3018 0.4046
vt 0.3018 0.4671
vt 0.3018 0.5296
vt 0.2576 0.5737
vt 0.2134 0.6179
vt 0.1509 0.6179
vt 0.0885 0.6179
vt 0.0443 0.5737
vt 0.0001 0.5296
vt 0.0001 0.4671
vt 0.0001 0.4046
vt 0.0443 0.3604
vt 0.0885 0.3162
vt 0.2556 0.2559
vt 0.2109 0.2862
vt 0.2038 0.2694
vt 0.2427 0.2432
vt 0.2692 0.2045
vt 0.2861 0.2113
vt 0.3045 0.2187
vt 0.2698 0.2698
vt 0.2188 0.3045
vt 0.2963 0.1583
vt 0.2781 0.1585
vt 0.2695 0.1124
vt 0.2863 0.1052
vt 0.3045 0.0974
vt 0.3161 0.1581
vt 0.2560 0.0605
vt 0.2433 0.0735
vt 0.2046 0.0470
vt 0.2114 0.0301
vt 0.2187 0.0117
vt 0.2698 0.0464
vt 0.1583 0.0199
vt 0.1585 0.0380
vt 0.1124 0.0467
vt 0.1053 0.0299
vt 0.0974 0.0117
vt 0.1581 0.0001
vt 0.0605 0.0602
vt 0.0735 0.0729
vt 0.0470 0.1116
vt 0.0301 0.1048
vt 0.0117 0.0974
vt 0.0464 0.0464
vt 0.0199 0.1578
vt 0.0381 0.1576
vt 0.0467 0.2037
vt 0.0299 0.2109
vt 0.0117 0.2187
vt 0.0001 0.1581
vt 0.0602 0.2556
vt 0.0729 0.2426
vt 0.1116 0.2691
vt 0.1048 0.2860
vt 0.0975 0.3045
vt 0.0464 0.2698
vt 0.1579 0.2962
vt 0.1577 0.2781
vt 0.1581 0.3160
vt 0.2321 0.2327
vt 0.1980 0.2557
vt 0.1932 0.2439
vt 0.2232 0.2238
vt 0.2436 0.1940
vt 0.2553 0.1989
vt 0.2632 0.1586
vt 0.2506 0.1586
vt 0.2440 0.1230
vt 0.2557 0.1182
vt 0.2328 0.0841
vt 0.2238 0.0930
vt 0.1940 0.0726
vt 0.1989 0.0608
vt 0.1586 0.0529
vt 0.1586 0.0656
vt 0.1230 0.0722
vt 0.1182 0.0605
vt 0.0841 0.0834
vt 0.0930 0.0923
vt 0.0726 0.1221
vt 0.0608 0.1172
vt 0.0530 0.1576
vt 0.0656 0.1576
vt 0.0722 0.1931
vt 0.0605 0.1979
vt 0.0834 0.2320
vt 0.0924 0.2231
vt 0.1221 0.2435
vt 0.1173 0.2553
vt 0.1576 0.2632
vt 0.1576 0.2505
vt 0.2151 0.2157
vt 0.1888 0.2333
vt 0.1843 0.2222
vt 0.2067 0.2072
vt 0.2220 0.1849
vt 0.2331 0.1896
vt 0.2392 0.1585
vt 0.2272 0.1585
vt 0.2223 0.1319
vt 0.2334 0.1274
vt 0.2157 0.1011
vt 0.2072 0.1095
vt 0.1850 0.0942
vt 0.1896 0.0831
vt 0.1585 0.0770
vt 0.1585 0.0890
vt 0.1319 0.0939
vt 0.1274 0.0828
vt 0.1011 0.1004
vt 0.1095 0.1089
vt 0.0942 0.1312
vt 0.0831 0.1265
vt 0.0770 0.1576
vt 0.0890 0.1577
vt 0.0939 0.1842
vt 0.0828 0.1887
vt 0.1005 0.2150
vt 0.1090 0.2066
vt 0.1312 0.2219
vt 0.1266 0.2330
vt 0.1577 0.2391
vt 0.1577 0.2271
vt 0.1966 0.1971
vt 0.1788 0.2090
vt 0.2088 0.1794
vt 0.2129 0.1584
vt 0.2090 0.1374
vt 0.1971 0.1196
vt 0.1794 0.1074
vt 0.1584 0.1032
vt 0.1373 0.1071
vt 0.1195 0.1190
vt 0.1074 0.1367
vt 0.1032 0.1577
vt 0.1071 0.1787
vt 0.1191 0.1965
vt 0.1367 0.2087
vt 0.1578 0.2129
vn -0.3947 -0.3516 -0.8489
vn -0.9591 -0.1082 -0.2614
vn -0.9303 0.0000 -0.3668
vn -0.3983 0.0000 -0.9173
vn 0.4055 0.0000 -0.9141
vn 0.4055 -0.3498 -0.8445
vn 0.4055 -0.6463 -0.6463
vn -0.3983 -0.6486 -0.6486
vn -0.9303 -0.2593 -0.2593
vn -0.3947 -0.8489 -0.3516
vn -0.9591 -0.2614 -0.1082
vn 0.4055 -0.8445 -0.3498
vn 0.4055 -0.9141 0.0000
vn -0.3983 -0.9173 0.0000
vn -0.9303 -0.3668 0.0000
vn -0.3947 -0.8489 0.3516
vn -0.9591 -0.2614 0.1082
vn 0.4055 -0.8445 0.3498
vn 0.4056 -0.6463 0.6463
vn -0.3983 -0.6486 0.6486
vn -0.9303 -0.2593 0.2593
vn -0.3947 -0.3516 0.8489
vn -0.9591 -0.1082 0.2614
vn 0.4055 -0.3498 0.8445
vn 0.4055 0.0000 0.9141
vn -0.3983 0.0000 0.9173
vn -0.9303 0.0000 0.3668
vn -0.3947 0.3516 0.8489
vn -0.9591 0.1082 0.2614
vn 0.4055 0.3498 0.8445
vn 0.4055 0.6463 0.6463
vn -0.3983 0.6486 0.6486
vn -0.9303 0.2593 0.2593
vn -0.3947 0.8489 0.3516
vn -0.9591 0.2614 0.1082
vn 0.4055 0.8445 0.3498
vn 0.4055 0.9141 0.0000
vn -0.3983 0.9173 0.0000
vn -0.9303 0.3668 0.0000
vn 1.0000 0.0000 0.0000
vn 0.9962 -0.0804 -0.0333
vn 0.9931 -0.0829 -0.0829
vn 0.9962 -0.0333 -0.0804
vn 0.9931 0.0000 -0.1172
vn 0.9962 0.0333 -0.0804
vn 0.9931 0.0829 -0.0829
vn 0.9962 0.0804 -0.0333
vn 0.9931 0.1172 0.0000
vn 0.9962 0.0804 0.0333
vn 0.9931 0.0829 0.0829
vn 0.9962 0.0333 0.0804
vn 0.9931 0.0000 0.1172
vn 0.9962 -0.0333 0.0804
vn 0.9931 -0.0829 0.0829
vn 0.9962 -0.0804 0.0333
vn 0.9931 -0.1172 0.0000
vn -0.3947 0.8489 -0.3516
vn -0.9591 0.2614 -0.1082
vn 0.4055 0.8445 -0.3498
vn 0.4055 0.6463 -0.6463
vn -0.3983 0.6486 -0.6486
vn -0.9303 0.2593 -0.2593
vn -0.3947 0.3516 -0.8489
vn -0.9591 0.1082 -0.2614
vn 0.4055 0.3498 -0.8445
vn -1.0000 0.0000 0.0000
vn 0.7765 -0.2411 -0.5821
vn 0.7763 0.0000 -0.6303
vn 0.9737 0.0000 -0.2280
vn 0.9740 -0.0866 -0.2092
vn 0.9737 -0.1612 -0.1612
vn 0.7763 -0.4457 -0.4457
vn 0.7765 -0.5821 -0.2411
vn 0.9740 -0.2092 -0.0866
vn 0.9737 -0.2280 0.0000
vn 0.7763 -0.6303 0.0000
vn 0.7765 -0.5821 0.2411
vn 0.9740 -0.2092 0.0866
vn 0.9737 -0.1612 0.1612
vn 0.7763 -0.4457 0.4457
vn 0.7765 -0.2411 0.5821
vn 0.9740 -0.0866 0.2092
vn 0.9737 0.0000 0.2280
vn 0.7763 0.0000 0.6303
vn 0.7765 0.2411 0.5821
vn 0.9740 0.0866 0.2092
vn 0.9737 0.1612 0.1612
vn 0.7763 0.4457 0.4457
vn 0.7765 0.5821 0.2411
vn 0.9740 0.2092 0.0866
vn 0.9737 0.2280 0.0000
vn 0.7763 0.6303 0.0000
vn 0.7765 0.5821 -0.2411
vn 0.9740 0.2092 -0.0866
vn 0.9737 0.1612 -0.1612
vn 0.7763 0.4457 -0.4457
vn 0.7765 0.2411 -0.5821
vn 0.9740 0.0866 -0.2092
vn 0.9917 0.0492 0.1188
vn 0.9919 0.0000 0.1271
vn 0.9836 0.0000 0.1804
vn 0.9836 0.0689 0.1664
vn 0.9836 0.1275 0.1275
vn 0.9919 0.0899 0.0899
vn 0.9917 0.1188 0.0492
vn 0.9836 0.1664 0.0689
vn 0.9836 0.1804 0.0000
vn 0.9919 0.1271 0.0000
vn 0.9917 0.1188 -0.0492
vn 0.9836 0.1664 -0.0689
vn 0.9836 0.1275 -0.1275
vn 0.9919 0.0899 -0.0899
vn 0.9917 0.0492 -0.1188
vn 0.9836 0.0689 -0.1664
vn 0.9836 0.0000 -0.1804
vn 0.9919 0.0000 -0.1271
vn 0.9917 -0.0492 -0.1188
vn 0.9836 -0.0689 -0.1664
vn 0.9836 -0.1275 -0.1275
vn 0.9919 -0.0899 -0.0899
vn 0.9917 -0.1188 -0.0492
vn 0.9836 -0.1664 -0.0689
vn 0.9836 -0.1804 0.0000
vn 0.9919 -0.1271 0.0000
vn 0.9917 -0.1188 0.0492
vn 0.9836 -0.1664 0.0689
vn 0.9836 -0.1275 0.1275
vn 0.9919 -0.0899 0.0899
vn 0.9917 -0.0492 0.1188
vn 0.9836 -0.0689 0.1664
vn 0.9999 0.0051 0.0123
vn 0.9999 0.0000 0.0141
vn 0.9898 0.0000 -0.1425
vn 0.9896 -0.0549 -0.1327
vn 0.9898 -0.1008 -0.1008
vn 0.9999 0.0100 0.0100
vn 0.9999 0.0123 0.0051
vn 0.9896 -0.1327 -0.0549
vn 0.9898 -0.1425 0.0000
vn 0.9999 0.0141 0.0000
vn 0.9999 0.0123 -0.0051
vn 0.9896 -0.1327 0.0549
vn 0.9898 -0.1008 0.1008
vn 0.9999 0.0100 -0.0100
vn 0.9999 0.0051 -0.0123
vn 0.9896 -0.0549 0.1327
vn 0.9898 0.0000 0.1425
vn 0.9999 0.0000 -0.0141
vn 0.9999 -0.0051 -0.0123
vn 0.9896 0.0549 0.1327
vn 0.9898 0.1008 0.1008
vn 0.9999 -0.0100 -0.0100
vn 0.9999 -0.0123 -0.0051
vn 0.9896 0.1327 0.0549
vn 0.9898 0.1425 0.0000
vn 0.9999 -0.0141 0.0000
vn 0.9999 -0.0123 0.0051
vn 0.9896 0.1327 -0.0549
vn 0.9898 0.1008 -0.1008
vn 0.9999 -0.0100 0.0100
vn 0.9999 -0.0051 0.0123
vn 0.9896 0.0549 -0.1327
vn 0.9824 -0.0715 -0.1727
vn 0.9826 0.0000 -0.1855
vn 0.9826 -0.1311 -0.1311
vn 0.9824 -0.1727 -0.0715
vn 0.9826 -0.1855 0.0000
vn 0.9824 -0.1727 0.0715
vn 0.9826 -0.1311 0.1311
vn 0.9824 -0.0715 0.1727
vn 0.9826 0.0000 0.1855
vn 0.9824 0.0715 0.1727
vn 0.9826 0.1311 0.1311
vn 0.9824 0.1727 0.0715
vn 0.9826 0.1855 0.0000
vn 0.9824 0.1727 -0.0715
vn 0.9826 0.1311 -0.1311
vn 0.9824 0.0715 -0.1727
usemtl Material.008
s 1
f 1/1/1 43/2/2 131/3/3 45/4/4
f 1/1/1 45/4/4 148/5/5 44/6/6
f 1/1/1 44/6/6 147/7/7 46/8/8
f 1/1/1 46/8/8 133/9/9 43/2/2
f 2/10/10 47/11/11 133/9/9 46/8/8
f 2/10/10 46/8/8 147/7/7 48/12/12
f 2/10/10 48/12/12 149/13/13 49/14/14
f 2/10/10 49/14/14 135/15/15 47/11/11
f 3/16/16 50/17/17 135/15/15 49/14/14
f 3/16/16 49/14/14 149/13/13 51/18/18
f 3/16/16 51/18/18 150/19/19 52/20/20
f 3/16/16 52/20/20 137/21/21 50/17/17
f 4/22/22 53/23/23 137/21/21 52/20/20
f 4/22/22 52/20/20 150/19/19 54/24/24
f 4/22/22 54/24/24 151/25/25 55/26/26
f 4/22/22 55/26/26 139/27/27 53/23/23
f 5/28/28 56/29/29 139/30/27 55/31/26
f 5/28/28 55/31/26 151/32/25 57/33/30
f 5/28/28 57/33/30 152/34/31 58/35/32
f 5/28/28 58/35/32 141/36/33 56/29/29
f 6/37/34 59/38/35 141/36/33 58/35/32
f 6/37/34 58/35/32 152/34/31 60/39/36
f 6/37/34 60/39/36 153/40/37 61/41/38
f 6/37/34 61/41/38 143/42/39 59/38/35
f 7/43/40 116/44/41 134/45/42 115/46/43
f 7/43/40 115/46/43 132/47/44 122/48/45
f 7/43/40 122/48/45 146/49/46 121/50/47
f 7/43/40 121/50/47 144/51/48 120/52/49
f 7/43/40 120/52/49 142/53/50 119/54/51
f 7/43/40 119/54/51 140/55/52 118/56/53
f 7/43/40 118/56/53 138/57/54 117/58/55
f 7/43/40 117/58/55 136/59/56 116/44/41
f 8/60/57 62/61/58 143/42/39 61/41/38
f 8/60/57 61/41/38 153/40/37 63/62/59
f 8/60/57 63/62/59 154/63/60 64/64/61
f 8/60/57 64/64/61 145/65/62 62/61/58
f 9/66/63 65/67/64 145/65/62 64/64/61
f 9/66/63 64/64/61 154/63/60 66/68/65
f 9/66/63 66/68/65 148/5/5 45/4/4
f 9/66/63 45/4/4 131/3/3 65/67/64
f 10/69/66 65/70/64 131/71/3 43/72/2
f 10/69/66 43/72/2 133/73/9 47/74/11
f 10/69/66 47/74/11 135/75/15 50/76/17
f 10/69/66 50/76/17 137/77/21 53/78/23
f 10/69/66 53/78/23 139/79/27 56/80/29
f 10/69/66 56/80/29 141/81/33 59/82/35
f 10/69/66 59/82/35 143/83/39 62/84/58
f 10/69/66 62/84/58 145/85/62 65/70/64
f 11/86/67 75/87/68 156/88/69 67/89/70
f 11/86/67 67/89/70 155/90/71 76/91/72
f 11/86/67 76/91/72 147/92/7 44/93/6
f 11/86/67 44/93/6 148/94/5 75/87/68
f 12/95/73 76/91/72 155/90/71 68/96/74
f 12/95/73 68/96/74 157/97/75 77/98/76
f 12/95/73 77/98/76 149/99/13 48/100/12
f 12/95/73 48/100/12 147/92/7 76/91/72
f 13/101/77 77/98/76 157/97/75 69/102/78
f 13/101/77 69/102/78 158/103/79 78/104/80
f 13/101/77 78/104/80 150/105/19 51/106/18
f 13/101/77 51/106/18 149/99/13 77/98/76
f 14/107/81 78/104/80 158/103/79 70/108/82
f 14/107/81 70/108/82 159/109/83 79/110/84
f 14/107/81 79/110/84 151/111/25 54/112/24
f 14/107/81 54/112/24 150/105/19 78/104/80
f 15/113/85 79/110/84 159/109/83 71/114/86
f 15/113/85 71/114/86 160/115/87 80/116/88
f 15/113/85 80/116/88 152/117/31 57/118/30
f 15/113/85 57/118/30 151/111/25 79/110/84
f 16/119/89 80/116/88 160/115/87 72/120/90
f 16/119/89 72/120/90 161/121/91 81/122/92
f 16/119/89 81/122/92 153/123/37 60/124/36
f 16/119/89 60/124/36 152/117/31 80/116/88
f 17/125/93 81/122/92 161/121/91 73/126/94
f 17/125/93 73/126/94 162/127/95 82/128/96
f 17/125/93 82/128/96 154/129/60 63/130/59
f 17/125/93 63/130/59 153/123/37 81/122/92
f 18/131/97 82/128/96 162/127/95 74/132/98
f 18/131/97 74/132/98 156/88/69 75/87/68
f 18/131/97 75/87/68 148/94/5 66/133/65
f 18/131/97 66/133/65 154/129/60 82/128/96
f 19/134/99 91/135/100 164/136/101 83/137/102
f 19/134/99 83/137/102 163/138/103 92/139/104
f 19/134/99 92/139/104 155/90/71 67/89/70
f 19/134/99 67/89/70 156/88/69 91/135/100
f 20/140/105 92/139/104 163/138/103 84/141/106
f 20/140/105 84/141/106 165/142/107 93/143/108
f 20/140/105 93/143/108 157/97/75 68/96/74
f 20/140/105 68/96/74 155/90/71 92/139/104
f 21/144/109 93/143/108 165/142/107 85/145/110
f 21/144/109 85/145/110 166/146/111 94/147/112
f 21/144/109 94/147/112 158/103/79 69/102/78
f 21/144/109 69/102/78 157/97/75 93/143/108
f 22/148/113 94/147/112 166/146/111 86/149/114
f 22/148/113 86/149/114 167/150/115 95/151/116
f 22/148/113 95/151/116 159/109/83 70/108/82
f 22/148/113 70/108/82 158/103/79 94/147/112
f 23/152/117 95/151/116 167/150/115 87/153/118
f 23/152/117 87/153/118 168/154/119 96/155/120
f 23/152/117 96/155/120 160/115/87 71/114/86
f 23/152/117 71/114/86 159/109/83 95/151/116
f 24/156/121 96/155/120 168/154/119 88/157/122
f 24/156/121 88/157/122 169/158/123 97/159/124
f 24/156/121 97/159/124 161/121/91 72/120/90
f 24/156/121 72/120/90 160/115/87 96/155/120
f 25/160/125 97/159/124 169/158/123 89/161/126
f 25/160/125 89/161/126 170/162/127 98/163/128
f 25/160/125 98/163/128 162/127/95 73/126/94
f 25/160/125 73/126/94 161/121/91 97/159/124
f 26/164/129 98/163/128 170/162/127 90/165/130
f 26/164/129 90/165/130 164/136/101 91/135/100
f 26/164/129 91/135/100 156/88/69 74/132/98
f 26/164/129 74/132/98 162/127/95 98/163/128
f 27/166/131 107/167/132 172/168/133 99/169/134
f 27/166/131 99/169/134 171/170/135 108/171/136
f 27/166/131 108/171/136 163/138/103 83/137/102
f 27/166/131 83/137/102 164/136/101 107/167/132
f 28/172/137 108/171/136 171/170/135 100/173/138
f 28/172/137 100/173/138 173/174/139 109/175/140
f 28/172/137 109/175/140 165/142/107 84/141/106
f 28/172/137 84/141/106 163/138/103 108/171/136
f 29/176/141 109/175/140 173/174/139 101/177/142
f 29/176/141 101/177/142 174/178/143 110/179/144
f 29/176/141 110/179/144 166/146/111 85/145/110
f 29/176/141 85/145/110 165/142/107 109/175/140
f 30/180/145 110/179/144 174/178/143 102/181/146
f 30/180/145 102/181/146 175/182/147 111/183/148
f 30/180/145 111/183/148 167/150/115 86/149/114
f 30/180/145 86/149/114 166/146/111 110/179/144
f 31/184/149 111/183/148 175/182/147 103/185/150
f 31/184/149 103/185/150 176/186/151 112/187/152
f 31/184/149 112/187/152 168/154/119 87/153/118
f 31/184/149 87/153/118 167/150/115 111/183/148
f 32/188/153 112/187/152 176/186/151 104/189/154
f 32/188/153 104/189/154 177/190/155 113/191/156
f 32/188/153 113/191/156 169/158/123 88/157/122
f 32/188/153 88/157/122 168/154/119 112/187/152
f 33/192/157 113/191/156 177/190/155 105/193/158
f 33/192/157 105/193/158 178/194/159 114/195/160
f 33/192/157 114/195/160 170/162/127 89/161/126
f 33/192/157 89/161/126 169/158/123 113/191/156
f 34/196/161 114/195/160 178/194/159 106/197/162
f 34/196/161 106/197/162 172/168/133 107/167/132
f 34/196/161 107/167/132 164/136/101 90/165/130
f 34/196/161 90/165/130 170/162/127 114/195/160
f 35/198/163 123/199/164 132/47/44 115/46/43
f 35/198/163 115/46/43 134/45/42 124/200/165
f 35/198/163 124/200/165 171/170/135 99/169/134
f 35/198/163 99/169/134 172/168/133 123/199/164
f 36/201/166 124/200/165 134/45/42 116/44/41
f 36/201/166 116/44/41 136/59/56 125/202/167
f 36/201/166 125/202/167 173/174/139 100/173/138
f 36/201/166 100/173/138 171/170/135 124/200/165
f 37/203/168 125/202/167 136/59/56 117/58/55
f 37/203/168 117/58/55 138/57/54 126/204/169
f 37/203/168 126/204/169 174/178/143 101/177/142
f 37/203/168 101/177/142 173/174/139 125/202/167
f 38/205/170 126/204/169 138/57/54 118/56/53
f 38/205/170 118/56/53 140/55/52 127/206/171
f 38/205/170 127/206/171 175/182/147 102/181/146
f 38/205/170 102/181/146 174/178/143 126/204/169
f 39/207/172 127/206/171 140/55/52 119/54/51
f 39/207/172 119/54/51 142/53/50 128/208/173
f 39/207/172 128/208/173 176/186/151 103/185/150
f 39/207/172 103/185/150 175/182/147 127/206/171
f 40/209/174 128/208/173 142/53/50 120/52/49
f 40/209/174 120/52/49 144/51/48 129/210/175
f 40/209/174 129/210/175 177/190/155 104/189/154
f 40/209/174 104/189/154 176/186/151 128/208/173
f 41/211/176 129/210/175 144/51/48 121/50/47
f 41/211/176 121/50/47 146/49/46 130/212/177
f 41/211/176 130/212/177 178/194/159 105/193/158
f 41/211/176 105/193/158 177/190/155 129/210/175
f 42/213/178 130/212/177 146/49/46 122/48/45
f 42/213/178 122/48/45 132/47/44 123/199/164
f 42/213/178 123/199/164 172/168/133 106/197/162
f 42/213/178 106/197/162 178/194/159 130/212/177
